{"glyphs":{"0":{"ha":586,"x_min":46,"x_max":576,"o":"m 219 -14 q 91 50 136 -14 q 46 246 46 114 q 55 384 46 306 q 83 548 64 463 q 131 715 101 633 q 200 862 160 796 q 292 967 240 928 q 406 1006 343 1006 q 481 990 449 1006 q 534 944 513 975 q 566 868 556 914 q 576 763 576 822 q 567 611 576 694 q 538 440 557 528 q 490 272 519 353 q 420 127 460 192 q 331 24 381 63 q 219 -14 281 -14 m 225 54 q 306 90 268 54 q 375 188 344 126 q 429 324 406 249 q 469 479 453 400 q 493 633 485 558 q 501 763 501 707 q 477 894 501 851 q 400 938 453 938 q 317 901 356 938 q 248 805 279 865 q 193 670 217 744 q 153 518 169 596 q 128 369 136 440 q 119 244 119 297 q 147 99 119 144 q 225 54 174 54 z "},"1":{"ha":586,"x_min":171,"x_max":486,"o":"m 360 747 q 371 799 365 775 q 382 847 376 822 q 396 900 388 871 q 369 876 383 888 q 338 850 356 864 l 207 750 l 171 801 l 417 992 l 486 992 l 276 0 l 201 0 l 360 747 z "},"2":{"ha":586,"x_min":-31,"x_max":574,"o":"m -31 0 l -19 61 l 249 358 q 344 470 300 417 q 424 576 389 524 q 477 685 458 629 q 496 800 496 740 q 462 901 496 865 q 367 938 428 938 q 307 929 335 938 q 253 905 279 921 q 201 869 228 889 l 168 925 q 263 983 211 961 q 378 1006 315 1006 q 481 981 438 1006 q 549 913 525 957 q 574 810 574 869 q 540 647 574 725 q 447 492 506 569 q 310 331 388 414 l 75 72 l 75 68 l 442 68 l 429 0 l -31 0 z "},"3":{"ha":586,"x_min":-10,"x_max":579,"o":"m 176 -14 q 72 -3 118 -14 q -10 28 25 8 l -10 106 q 74 67 25 82 q 176 53 122 53 q 279 73 235 53 q 353 128 324 93 q 397 209 382 164 q 411 303 411 254 q 390 404 411 365 q 331 462 369 443 q 238 481 292 481 l 179 481 l 193 546 l 251 546 q 353 566 307 546 q 433 621 400 586 q 485 701 467 656 q 503 800 503 747 q 469 901 503 864 q 371 939 435 939 q 274 919 318 939 q 190 868 231 899 l 158 926 q 257 983 203 961 q 381 1006 311 1006 q 488 981 444 1006 q 556 913 532 957 q 579 810 579 869 q 551 676 579 738 q 472 572 522 614 q 356 515 421 529 l 354 511 q 452 445 414 496 q 490 308 490 394 q 471 188 490 246 q 412 85 451 131 q 314 13 372 39 q 176 -14 256 -14 z "},"4":{"ha":586,"x_min":-14,"x_max":578,"o":"m 292 0 l 342 232 l -14 232 l -3 292 l 488 1000 l 578 1000 l 429 299 l 544 299 l 531 232 l 415 232 l 365 0 l 292 0 m 75 299 l 356 299 l 449 732 q 464 797 457 765 q 478 857 471 828 q 492 913 486 886 l 488 913 q 460 867 474 888 q 435 826 447 846 q 408 786 424 807 l 75 299 z "},"5":{"ha":586,"x_min":-3,"x_max":588,"o":"m 169 -14 q 101 -8 133 -14 q 42 7 68 -3 q -3 26 15 17 l -3 106 q 73 68 28 83 q 171 53 118 53 q 283 76 235 53 q 364 141 332 100 q 413 235 396 182 q 429 347 429 288 q 388 485 429 438 q 264 533 346 533 q 199 527 229 533 q 138 510 169 521 l 107 546 l 232 992 l 588 992 l 572 922 l 285 922 l 189 583 q 233 594 208 589 q 292 599 258 599 q 407 569 358 599 q 481 487 456 540 q 507 358 507 433 q 486 219 507 286 q 424 100 465 153 q 319 17 382 47 q 169 -14 256 -14 z "},"6":{"ha":586,"x_min":50,"x_max":606,"o":"m 242 -14 q 137 17 181 -14 q 72 105 93 47 q 50 243 50 163 q 62 402 50 321 q 95 563 74 483 q 148 711 117 642 q 217 836 179 781 q 290 921 249 882 q 383 983 331 960 q 497 1006 436 1006 q 559 1001 532 1006 q 606 990 586 997 l 588 922 q 546 935 569 931 q 494 939 522 939 q 353 892 418 939 q 238 749 289 846 q 151 497 188 651 l 156 497 q 208 559 179 532 q 275 601 238 586 q 357 615 313 615 q 483 558 438 615 q 529 401 529 500 q 511 259 529 332 q 458 124 493 186 q 368 24 422 63 q 242 -14 314 -14 m 247 53 q 339 87 300 53 q 403 174 378 121 q 440 285 428 226 q 453 394 453 344 q 422 510 453 469 q 336 550 390 550 q 250 528 289 550 q 185 470 211 506 q 146 394 158 435 q 134 351 139 375 q 127 299 129 328 q 125 239 125 271 q 132 163 125 197 q 153 104 139 129 q 192 66 168 79 q 247 53 215 53 z "},"7":{"ha":586,"x_min":74,"x_max":629,"o":"m 74 0 l 540 922 l 140 922 l 154 992 l 629 992 l 621 933 l 154 0 l 74 0 z "},"8":{"ha":586,"x_min":10,"x_max":592,"o":"m 235 -14 q 115 14 165 -14 q 37 91 64 42 q 10 204 10 140 q 40 344 10 285 q 126 447 71 403 q 257 525 182 490 q 202 592 226 557 q 165 666 178 626 q 151 753 151 706 q 181 885 151 828 q 267 974 211 942 q 396 1006 322 1006 q 501 981 457 1006 q 568 913 544 956 q 592 814 592 871 q 564 691 592 746 q 486 593 536 636 q 369 518 436 550 q 441 443 411 482 q 488 360 471 404 q 504 258 504 315 q 472 123 504 185 q 378 24 439 61 q 235 -14 318 -14 m 238 51 q 341 78 299 51 q 406 152 383 106 q 429 256 429 199 q 414 345 429 306 q 370 418 399 385 q 304 483 342 451 q 193 419 243 456 q 114 333 143 383 q 85 210 85 283 q 127 96 85 140 q 238 51 169 51 m 322 557 q 429 623 386 586 q 494 706 472 660 q 517 806 517 751 q 481 905 517 869 q 390 940 446 940 q 304 919 342 940 q 246 856 267 897 q 225 756 225 814 q 251 644 225 692 q 322 557 278 597 z "},"9":{"ha":586,"x_min":17,"x_max":569,"o":"m 136 -14 q 70 -8 100 -14 q 17 4 40 -3 l 17 75 q 70 59 39 65 q 136 53 101 53 q 242 79 193 53 q 333 160 292 106 q 409 297 375 214 q 468 492 443 379 l 464 492 q 413 433 443 460 q 347 391 383 406 q 267 376 310 376 q 171 403 210 376 q 112 478 132 429 q 92 592 92 528 q 110 735 92 663 q 164 869 128 807 q 254 968 200 931 q 381 1006 308 1006 q 483 976 440 1006 q 547 890 525 947 q 569 751 569 833 q 559 599 569 678 q 528 442 549 519 q 481 297 508 365 q 419 176 453 229 q 367 101 396 136 q 302 41 338 67 q 226 1 267 15 q 136 -14 185 -14 m 285 443 q 363 461 328 443 q 424 511 399 479 q 464 581 450 543 q 488 655 481 613 q 496 754 496 697 q 483 853 496 813 q 443 917 469 894 q 375 939 417 939 q 284 906 324 939 q 219 822 244 874 q 180 712 193 771 q 167 600 167 653 q 198 484 167 525 q 285 443 229 443 z "},"\u0000":{"ha":0,"x_min":0,"x_max":0,"o":""},"\r":{"ha":272,"x_min":0,"x_max":0,"o":""}," ":{"ha":272,"x_min":0,"x_max":0,"o":""},"!":{"ha":311,"x_min":24,"x_max":325,"o":"m 90 256 l 239 992 l 325 992 l 151 256 l 90 256 m 68 -8 q 35 4 47 -8 q 24 39 24 17 q 40 98 24 71 q 92 125 57 125 q 122 112 111 125 q 133 76 133 99 q 116 18 133 44 q 68 -8 99 -8 z "},"\"":{"ha":436,"x_min":140,"x_max":478,"o":"m 333 633 l 396 992 l 478 992 l 388 633 l 333 633 m 140 633 l 201 992 l 283 992 l 193 633 l 140 633 z "},"#":{"ha":646,"x_min":15,"x_max":669,"o":"m 46 0 l 139 311 l 15 311 l 22 372 l 157 372 l 240 640 l 108 640 l 115 701 l 258 701 l 346 992 l 408 992 l 321 701 l 485 701 l 572 992 l 633 992 l 546 701 l 669 701 l 663 640 l 528 640 l 446 372 l 576 372 l 569 311 l 428 311 l 333 0 l 269 0 l 365 311 l 201 311 l 107 0 l 46 0 m 219 372 l 385 372 l 465 640 l 301 640 l 219 372 z "},"$":{"ha":585,"x_min":13,"x_max":592,"o":"m 192 63 q 88 76 133 64 q 13 104 43 89 l 18 178 q 99 144 51 158 q 206 128 147 129 l 281 482 q 208 541 242 511 q 155 609 175 571 q 135 700 135 647 q 166 828 135 778 q 252 907 197 879 q 378 939 307 935 l 403 1054 l 453 1054 l 428 939 q 521 923 481 936 q 592 892 561 910 l 560 829 q 494 860 531 847 q 414 875 458 872 l 340 526 q 418 466 385 497 q 471 397 451 435 q 490 308 490 360 q 458 181 490 233 q 371 99 426 129 q 242 63 315 69 l 211 -81 l 161 -81 l 192 63 m 256 131 q 344 156 308 135 q 401 215 381 178 q 421 301 421 251 q 410 358 421 333 q 377 404 399 382 q 324 451 356 426 l 256 131 m 364 874 q 279 849 315 869 q 224 793 243 829 q 204 708 204 757 q 215 650 204 675 q 247 603 226 625 q 297 557 268 581 l 364 874 z "},"%":{"ha":874,"x_min":81,"x_max":818,"o":"m 129 0 l 701 992 l 768 992 l 197 0 l 129 0 m 196 383 q 111 423 142 383 q 81 547 81 463 q 89 655 81 594 q 115 776 97 715 q 160 890 133 838 q 226 974 188 942 q 314 1006 264 1006 q 398 967 368 1006 q 428 849 428 928 q 419 744 428 804 q 394 622 411 685 q 350 504 378 558 q 284 417 322 450 q 196 383 246 383 m 203 443 q 261 474 235 443 q 307 554 288 506 q 339 658 326 603 q 358 763 351 713 q 365 846 365 814 q 351 923 365 900 q 307 946 336 946 q 249 917 275 946 q 203 842 224 889 q 170 742 183 796 q 150 638 157 689 q 143 550 143 586 q 159 467 143 492 q 203 443 175 443 m 585 -15 q 500 24 531 -15 q 469 149 469 64 q 478 259 469 199 q 506 381 488 319 q 551 493 524 442 q 615 576 578 544 q 703 607 653 607 q 788 568 758 607 q 818 450 818 529 q 809 346 818 406 q 783 223 800 286 q 739 106 767 160 q 673 18 711 51 q 585 -15 635 -15 m 592 44 q 649 76 624 44 q 695 156 675 107 q 728 259 715 204 q 747 365 740 314 q 754 447 754 415 q 740 524 754 501 q 696 547 725 547 q 638 519 664 547 q 592 443 613 490 q 559 342 572 396 q 539 238 546 289 q 532 151 532 188 q 548 69 532 93 q 592 44 564 44 z "},"&":{"ha":647,"x_min":8,"x_max":617,"o":"m 189 -14 q 58 37 107 -14 q 8 179 8 88 q 36 324 8 260 q 116 441 64 388 q 239 543 168 494 q 207 641 219 590 q 194 743 194 692 q 218 877 194 818 q 286 971 242 936 q 394 1006 331 1006 q 466 988 435 1006 q 515 938 497 971 q 533 858 533 906 q 507 729 533 788 q 434 622 481 671 q 328 528 388 572 l 447 239 q 501 335 475 281 q 543 449 526 390 l 617 449 q 581 351 603 400 q 534 256 560 303 q 478 168 508 210 l 551 0 l 469 0 l 422 113 q 324 24 378 61 q 189 -14 269 -14 m 201 53 q 279 70 246 53 q 340 115 313 88 q 394 174 368 142 l 264 488 q 169 403 210 447 q 106 306 128 358 q 83 190 83 254 q 98 115 83 146 q 140 69 113 85 q 201 53 167 53 m 303 583 q 362 635 333 607 q 413 697 390 664 q 448 769 435 731 q 461 851 461 808 q 441 918 461 893 q 386 943 421 943 q 322 917 349 943 q 281 846 294 890 q 267 750 267 801 q 276 663 267 703 q 303 583 285 622 z "},"'":{"ha":242,"x_min":142,"x_max":286,"o":"m 142 633 l 204 992 l 286 992 l 194 633 l 142 633 z "},"(":{"ha":353,"x_min":36,"x_max":442,"o":"m 121 -219 q 76 -105 94 -168 q 47 28 57 -42 q 36 168 36 99 q 59 399 36 288 q 126 615 82 511 q 231 813 169 718 q 374 992 293 907 l 442 992 q 301 805 363 901 q 197 605 240 708 q 131 392 154 501 q 108 167 108 283 q 117 28 108 97 q 142 -103 126 -40 q 183 -219 158 -165 l 121 -219 z "},")":{"ha":353,"x_min":-99,"x_max":306,"o":"m -99 -219 q 42 -32 -19 -129 q 146 168 103 65 q 211 381 189 271 q 233 606 233 490 q 225 744 233 675 q 200 876 217 813 q 160 992 183 940 l 222 992 q 268 877 250 940 q 296 745 286 814 q 306 606 306 676 q 283 372 306 485 q 217 156 260 260 q 111 -42 174 53 q -31 -219 49 -136 l -99 -219 z "},"*":{"ha":556,"x_min":154,"x_max":600,"o":"m 443 581 l 367 775 l 224 618 l 175 665 l 335 808 l 154 885 l 179 947 l 354 849 l 378 1056 l 449 1044 l 400 842 l 597 875 l 600 807 l 406 797 l 507 610 l 443 581 z "},"+":{"ha":640,"x_min":64,"x_max":601,"o":"m 367 521 l 601 521 l 601 457 l 367 457 l 367 167 l 301 167 l 301 457 l 64 457 l 64 521 l 301 521 l 301 815 l 367 815 l 367 521 z "},",":{"ha":265,"x_min":-60,"x_max":153,"o":"m -60 -179 q -10 -74 -35 -131 q 36 41 14 -17 q 72 147 58 99 l 149 147 l 153 132 q 110 28 135 83 q 56 -80 85 -26 q -1 -179 28 -133 l -60 -179 z "},"-":{"ha":383,"x_min":32,"x_max":346,"o":"m 32 340 l 44 411 l 346 411 l 333 340 l 32 340 z "},".":{"ha":269,"x_min":24,"x_max":135,"o":"m 68 -8 q 36 4 49 -8 q 24 39 24 17 q 41 98 24 71 q 92 125 58 125 q 124 113 113 125 q 135 76 135 100 q 117 18 135 44 q 68 -8 100 -8 z "},"/":{"ha":442,"x_min":-64,"x_max":546,"o":"m -64 0 l 474 992 l 546 992 l 8 0 l -64 0 z "},":":{"ha":271,"x_min":13,"x_max":253,"o":"m 188 611 q 154 624 167 611 q 142 658 142 636 q 149 700 142 681 q 173 732 157 719 q 210 744 189 744 q 242 731 231 744 q 253 696 253 718 q 235 638 253 664 q 188 611 218 611 m 57 -8 q 25 4 38 -8 q 13 39 13 17 q 30 98 13 71 q 81 125 47 125 q 113 113 101 125 q 124 76 124 100 q 106 18 124 44 q 57 -8 89 -8 z "},";":{"ha":272,"x_min":-65,"x_max":258,"o":"m -65 -179 q -15 -71 -39 -128 q 31 42 10 -14 q 65 147 51 97 l 142 147 l 147 132 q 103 28 129 83 q 49 -80 78 -26 q -8 -179 21 -133 l -65 -179 m 192 611 q 160 624 172 611 q 147 658 147 636 q 155 700 147 681 q 178 732 163 719 q 215 744 193 744 q 247 731 236 744 q 258 696 258 718 q 241 638 258 664 q 192 611 224 611 z "},"<":{"ha":640,"x_min":64,"x_max":603,"o":"m 603 189 l 64 475 l 64 524 l 603 801 l 603 728 l 149 499 l 603 263 l 603 189 z "},"=":{"ha":640,"x_min":65,"x_max":600,"o":"m 65 603 l 65 668 l 600 668 l 600 603 l 65 603 m 65 310 l 65 376 l 600 376 l 600 310 l 65 310 z "},">":{"ha":640,"x_min":64,"x_max":603,"o":"m 64 263 l 518 499 l 64 728 l 64 801 l 603 524 l 603 475 l 64 189 l 64 263 z "},"?":{"ha":431,"x_min":46,"x_max":481,"o":"m 103 256 q 133 374 115 325 q 180 463 151 422 q 251 550 208 504 q 331 638 296 599 q 385 721 365 678 q 404 821 404 764 q 374 908 404 878 q 293 938 344 938 q 218 924 253 938 q 151 893 183 911 l 128 951 q 214 992 169 978 q 304 1006 258 1006 q 433 960 386 1006 q 481 832 481 914 q 459 718 481 769 q 399 620 438 667 q 311 524 361 574 q 238 440 267 476 q 193 360 210 403 q 165 256 176 318 l 103 256 m 92 -8 q 58 4 71 -8 q 46 39 46 17 q 63 98 46 71 q 114 125 81 125 q 146 113 135 125 q 157 76 157 100 q 140 18 157 44 q 92 -8 122 -8 z "},"@":{"ha":883,"x_min":46,"x_max":858,"o":"m 350 -122 q 222 -98 278 -122 q 127 -27 167 -74 q 67 87 88 19 q 46 239 46 154 q 69 453 46 344 q 135 658 92 561 q 244 831 179 756 q 391 951 308 907 q 574 994 474 994 q 730 953 667 994 q 826 837 793 913 q 858 657 858 761 q 847 524 858 593 q 813 389 835 454 q 761 271 792 324 q 692 187 731 218 q 608 156 654 156 q 535 189 556 156 q 514 278 515 222 l 511 276 q 451 188 488 222 q 367 154 414 154 q 285 192 315 154 q 254 304 254 229 q 267 413 254 356 q 303 524 279 469 q 361 622 326 578 q 439 692 396 665 q 533 718 482 718 q 601 711 569 718 q 660 693 633 704 l 589 414 q 571 336 576 368 q 565 285 565 304 q 577 231 565 249 q 615 213 589 213 q 673 241 646 213 q 722 317 700 269 q 761 423 744 365 q 787 540 778 481 q 796 651 796 600 q 771 809 796 746 q 695 905 746 872 q 567 938 644 938 q 408 897 481 938 q 281 788 336 857 q 187 628 225 718 q 129 440 149 539 q 110 243 110 342 q 138 79 110 149 q 219 -28 165 10 q 354 -65 274 -65 q 453 -53 404 -65 q 542 -24 503 -42 l 542 -81 q 451 -110 500 -99 q 350 -122 403 -122 m 381 211 q 463 272 425 211 q 532 449 501 332 l 585 653 q 558 660 574 657 q 524 663 543 663 q 441 628 478 663 q 376 539 404 593 q 333 424 349 485 q 318 311 318 364 q 335 235 318 260 q 381 211 351 211 z "},"A":{"ha":586,"x_min":-87,"x_max":500,"o":"m -87 0 l 369 994 l 460 994 l 500 0 l 424 0 l 411 351 l 154 351 l -4 0 l -87 0 m 185 421 l 408 421 l 400 781 q 398 848 399 814 q 397 910 397 882 l 394 910 q 371 849 385 882 q 340 779 357 817 l 185 421 z "},"B":{"ha":640,"x_min":21,"x_max":640,"o":"m 21 0 l 231 992 l 415 992 q 538 969 488 992 q 614 903 588 946 q 640 797 640 860 q 617 674 640 732 q 549 576 594 617 q 436 519 504 535 l 436 517 q 530 452 496 501 q 564 328 564 403 q 525 158 564 232 q 413 42 486 83 q 236 0 340 0 l 21 0 m 239 68 q 376 103 322 68 q 458 196 431 138 q 485 326 485 254 q 440 449 485 410 q 317 488 396 488 l 200 488 l 111 68 l 239 68 m 332 553 q 458 585 407 553 q 534 670 508 617 q 560 788 560 724 q 522 890 560 856 q 401 924 483 924 l 292 924 l 214 553 l 332 553 z "},"C":{"ha":597,"x_min":68,"x_max":689,"o":"m 319 -14 q 183 24 239 -14 q 97 138 126 63 q 68 326 68 214 q 86 505 68 411 q 141 688 104 599 q 233 849 178 776 q 360 964 288 921 q 524 1007 432 1007 q 616 995 575 1007 q 689 961 657 983 l 651 899 q 592 928 625 918 q 522 938 560 938 q 388 898 447 938 q 284 793 329 858 q 208 648 239 728 q 163 485 178 568 q 147 331 147 403 q 194 124 147 192 q 333 56 242 56 q 408 64 371 56 q 483 86 446 72 l 483 17 q 406 -6 446 1 q 319 -14 365 -14 z "},"D":{"ha":706,"x_min":21,"x_max":675,"o":"m 21 0 l 231 992 l 389 992 q 600 913 525 992 q 675 669 675 835 q 657 488 675 582 q 602 307 639 394 q 508 151 565 219 q 369 41 450 82 q 185 0 289 0 l 21 0 m 192 69 q 342 106 276 69 q 455 203 407 142 q 533 343 503 265 q 579 505 564 421 q 594 668 594 589 q 538 863 594 804 q 378 922 482 922 l 292 922 l 110 69 l 192 69 z "},"E":{"ha":561,"x_min":19,"x_max":615,"o":"m 19 0 l 231 992 l 615 992 l 601 922 l 292 922 l 214 554 l 503 554 l 489 486 l 199 486 l 110 69 l 419 69 l 406 0 l 19 0 z "},"F":{"ha":521,"x_min":19,"x_max":617,"o":"m 19 0 l 231 992 l 617 992 l 601 922 l 292 922 l 204 510 l 496 510 l 481 442 l 189 442 l 96 0 l 19 0 z "},"G":{"ha":744,"x_min":68,"x_max":757,"o":"m 354 -14 q 141 72 214 -14 q 68 319 68 157 q 90 533 68 431 q 152 722 111 636 q 251 872 193 808 q 382 972 310 936 q 539 1007 454 1007 q 660 990 607 1007 q 757 947 714 974 l 721 882 q 634 923 679 908 q 535 938 589 938 q 376 886 447 938 q 253 748 304 835 q 174 551 201 661 q 146 324 146 442 q 171 174 146 233 q 244 85 196 114 q 363 56 293 56 q 442 63 404 56 q 514 81 481 69 l 589 438 l 428 438 l 443 506 l 681 506 l 578 29 q 471 -3 526 8 q 354 -14 415 -14 z "},"H":{"ha":732,"x_min":19,"x_max":750,"o":"m 19 0 l 231 992 l 306 992 l 214 554 l 581 554 l 674 992 l 750 992 l 539 0 l 464 0 l 565 485 l 199 485 l 96 0 l 19 0 z "},"I":{"ha":332,"x_min":-56,"x_max":421,"o":"m -56 0 l -46 46 l 53 60 l 238 932 l 146 946 l 154 992 l 421 992 l 411 946 l 313 932 l 128 60 l 219 46 l 211 0 l -56 0 z "},"J":{"ha":278,"x_min":-208,"x_max":307,"o":"m -118 -253 q -169 -248 -146 -253 q -208 -236 -193 -243 l -194 -168 q -158 -179 -178 -175 q -119 -183 -139 -183 q -55 -165 -81 -183 q -12 -109 -29 -147 q 18 -14 6 -71 l 232 992 l 307 992 l 92 -28 q 47 -156 75 -106 q -22 -229 19 -206 q -118 -253 -62 -253 z "},"K":{"ha":596,"x_min":19,"x_max":706,"o":"m 19 0 l 231 992 l 306 992 l 196 474 l 281 586 l 618 992 l 706 992 l 347 553 l 508 0 l 426 0 l 285 496 l 178 389 l 96 0 l 19 0 z "},"L":{"ha":513,"x_min":19,"x_max":411,"o":"m 19 0 l 231 992 l 306 992 l 110 69 l 411 69 l 399 0 l 19 0 z "},"M":{"ha":943,"x_min":19,"x_max":960,"o":"m 19 0 l 231 992 l 338 992 l 404 115 l 408 115 l 844 992 l 960 992 l 750 0 l 675 0 l 829 728 q 840 777 835 753 q 852 826 846 801 q 864 875 858 851 l 861 875 l 422 0 l 344 0 l 276 875 l 274 875 q 265 823 269 849 q 256 772 260 797 q 246 721 251 747 l 93 0 l 19 0 z "},"N":{"ha":761,"x_min":19,"x_max":779,"o":"m 19 0 l 231 992 l 315 992 l 525 136 l 528 136 q 542 216 535 175 q 558 294 550 257 q 571 360 565 332 l 706 992 l 779 992 l 568 0 l 485 0 l 275 864 l 271 864 q 262 808 267 838 q 251 747 257 778 q 238 686 244 717 q 226 629 232 656 l 93 0 l 19 0 z "},"O":{"ha":757,"x_min":67,"x_max":725,"o":"m 310 -14 q 174 22 228 -14 q 93 129 119 58 q 67 301 67 200 q 78 453 67 374 q 112 613 89 533 q 169 763 135 692 q 251 888 204 833 q 356 974 297 943 q 485 1006 415 1006 q 663 931 600 1006 q 725 703 725 857 q 715 559 725 638 q 683 400 704 481 q 630 246 663 319 q 551 114 597 172 q 444 21 504 56 q 310 -14 385 -14 m 315 56 q 419 87 372 56 q 502 171 465 118 q 566 290 539 224 q 611 430 593 357 q 638 573 629 503 q 646 703 646 643 q 604 879 646 821 q 479 938 563 938 q 373 906 421 938 q 288 822 325 875 q 224 701 251 768 q 180 563 197 635 q 153 424 163 492 q 144 301 144 357 q 164 165 144 219 q 222 83 183 111 q 315 56 260 56 z "},"P":{"ha":601,"x_min":21,"x_max":618,"o":"m 21 0 l 231 992 l 381 992 q 513 965 460 992 q 592 889 565 939 q 618 769 618 839 q 595 623 618 689 q 528 508 572 557 q 419 433 483 460 q 269 406 354 406 l 182 406 l 96 0 l 21 0 m 272 474 q 422 510 363 474 q 510 613 481 547 q 539 764 539 679 q 497 883 539 842 q 368 924 456 924 l 292 924 l 196 474 l 272 474 z "},"Q":{"ha":757,"x_min":67,"x_max":725,"o":"m 325 -11 q 313 -13 319 -12 q 301 -14 307 -14 q 170 25 222 -11 q 92 131 118 61 q 67 301 67 201 q 78 453 67 374 q 112 613 89 533 q 169 763 135 692 q 251 888 204 833 q 356 974 297 943 q 485 1006 415 1006 q 663 931 600 1006 q 725 703 725 857 q 713 549 725 633 q 677 378 701 464 q 615 215 653 292 q 524 83 576 139 q 400 3 471 26 l 504 -236 l 415 -236 l 325 -11 m 315 56 q 419 87 372 56 q 502 171 465 118 q 566 290 539 224 q 611 430 593 357 q 638 573 629 503 q 646 703 646 643 q 604 879 646 821 q 479 938 563 938 q 373 906 421 938 q 288 822 325 875 q 224 701 251 768 q 180 563 197 635 q 153 424 163 492 q 144 301 144 357 q 164 165 144 219 q 222 83 183 111 q 315 56 260 56 z "},"R":{"ha":613,"x_min":21,"x_max":617,"o":"m 21 0 l 231 992 l 382 992 q 556 936 494 992 q 617 774 617 881 q 591 624 617 693 q 515 508 565 556 q 392 444 465 461 l 499 0 l 417 0 l 318 429 l 188 429 l 96 0 l 21 0 m 306 496 q 408 518 365 496 q 481 578 451 540 q 524 665 510 617 q 539 767 539 714 q 497 886 539 849 q 369 924 454 924 l 292 924 l 201 496 l 306 496 z "},"S":{"ha":557,"x_min":-18,"x_max":593,"o":"m 179 -14 q 67 -2 115 -14 q -18 29 18 10 l -12 108 q 74 72 25 86 q 181 57 122 57 q 264 70 225 57 q 333 109 303 83 q 378 174 363 135 q 394 264 394 213 q 381 341 394 307 q 337 408 367 375 q 260 482 307 440 q 188 553 219 518 q 139 633 157 589 q 121 733 121 676 q 142 851 121 800 q 202 936 164 901 q 291 988 240 971 q 400 1006 342 1006 q 509 991 460 1006 q 593 956 558 976 l 558 888 q 485 922 525 908 q 396 935 444 935 q 322 923 357 935 q 258 887 286 911 q 215 826 231 863 q 200 740 200 789 q 215 660 200 694 q 260 593 231 625 q 331 524 289 561 q 406 451 374 488 q 456 370 438 414 q 474 269 474 326 q 452 149 474 201 q 392 60 431 97 q 299 5 353 24 q 179 -14 244 -14 z "},"T":{"ha":515,"x_min":118,"x_max":628,"o":"m 131 0 l 326 922 l 118 922 l 132 992 l 628 992 l 613 922 l 403 922 l 207 0 l 131 0 z "},"U":{"ha":721,"x_min":65,"x_max":744,"o":"m 285 -14 q 169 11 218 -14 q 92 85 119 36 q 65 203 65 133 q 69 258 65 228 q 81 322 74 289 l 222 992 l 299 992 l 156 319 q 146 261 149 290 q 143 208 143 232 q 183 94 143 133 q 292 56 222 56 q 403 86 358 56 q 477 177 447 117 q 526 328 507 238 l 669 992 l 744 992 l 600 321 q 540 142 578 217 q 440 26 501 67 q 285 -14 378 -14 z "},"V":{"ha":590,"x_min":124,"x_max":703,"o":"m 161 0 l 124 992 l 200 992 l 221 274 q 223 216 222 244 q 224 158 224 188 q 221 97 224 129 l 224 97 q 256 178 238 135 q 296 272 274 222 l 621 992 l 703 992 l 247 0 l 161 0 z "},"W":{"ha":958,"x_min":132,"x_max":1064,"o":"m 132 0 l 132 992 l 206 992 l 203 292 q 201 192 203 238 q 197 111 200 147 l 201 111 q 237 206 218 158 q 274 299 256 254 l 563 992 l 635 992 l 631 315 q 629 242 631 278 q 627 174 628 207 q 625 108 626 140 l 628 108 q 652 174 640 142 q 678 241 664 207 q 706 314 692 275 l 983 992 l 1064 992 l 650 0 l 563 0 l 568 710 q 569 757 568 733 q 570 805 569 781 q 571 853 571 829 l 568 853 q 545 788 557 821 q 518 721 533 756 l 219 0 l 132 0 z "},"X":{"ha":539,"x_min":-81,"x_max":642,"o":"m -81 0 l 254 524 l 157 992 l 235 992 l 311 589 l 560 992 l 642 992 l 340 513 l 440 0 l 361 0 l 282 444 l 1 0 l -81 0 z "},"Y":{"ha":521,"x_min":121,"x_max":642,"o":"m 133 0 l 214 381 l 121 992 l 197 992 l 269 478 l 558 992 l 642 992 l 290 382 l 210 0 l 133 0 z "},"Z":{"ha":533,"x_min":-44,"x_max":608,"o":"m -44 0 l -32 60 l 506 922 l 165 922 l 181 992 l 608 992 l 596 931 l 58 69 l 424 69 l 410 0 l -44 0 z "},"[":{"ha":394,"x_min":-25,"x_max":488,"o":"m -25 -221 l 235 994 l 488 994 l 474 931 l 290 931 l 58 -157 l 242 -157 l 228 -221 l -25 -221 z "},"\\":{"ha":458,"x_min":142,"x_max":354,"o":"m 285 -1 l 142 993 l 210 993 l 354 -1 l 285 -1 z "},"]":{"ha":394,"x_min":-92,"x_max":419,"o":"m -92 -221 l -79 -157 l 104 -157 l 336 931 l 153 931 l 167 994 l 419 994 l 160 -221 l -92 -221 z "},"^":{"ha":617,"x_min":36,"x_max":596,"o":"m 36 456 l 342 993 l 394 993 l 596 456 l 524 456 l 358 900 l 111 456 l 36 456 z "},"_":{"ha":433,"x_min":-115,"x_max":326,"o":"m -115 -187 l -106 -126 l 326 -126 l 317 -187 l -115 -187 z "},"`":{"ha":325,"x_min":203,"x_max":371,"o":"m 326 842 q 283 905 307 868 q 237 981 258 942 q 203 1050 215 1019 l 203 1063 l 283 1063 q 310 992 296 1028 q 340 922 324 956 q 371 856 356 888 l 371 842 l 326 842 z "},"a":{"ha":622,"x_min":47,"x_max":606,"o":"m 206 -14 q 120 12 156 -14 q 66 88 85 38 q 47 208 47 138 q 60 350 47 275 q 98 497 72 425 q 162 626 124 568 q 251 717 200 683 q 364 751 301 751 q 435 735 407 751 q 482 689 464 718 q 507 622 500 660 l 513 622 l 544 738 l 606 738 l 449 0 l 389 0 l 408 131 l 406 131 q 351 58 381 90 q 285 6 321 25 q 206 -14 249 -14 m 226 51 q 322 92 279 51 q 396 197 364 132 q 446 336 428 263 q 469 449 460 396 q 478 546 478 501 q 449 649 478 611 q 369 686 419 686 q 285 656 324 686 q 216 574 246 625 q 165 461 186 524 q 134 334 144 399 q 124 211 124 269 q 151 91 124 131 q 226 51 178 51 z "},"b":{"ha":622,"x_min":15,"x_max":578,"o":"m 261 -14 q 185 3 217 -14 q 136 51 154 21 q 111 117 118 81 l 107 117 l 74 0 l 15 0 l 238 1056 l 313 1056 l 242 724 q 231 681 236 701 q 222 642 226 660 q 213 610 217 624 l 217 610 q 269 682 239 650 q 336 733 299 714 q 418 751 374 751 q 503 726 468 751 q 558 652 539 701 q 578 531 578 603 q 565 394 578 468 q 528 247 553 319 q 465 116 503 175 q 376 22 428 57 q 261 -14 325 -14 m 257 51 q 344 83 306 51 q 412 167 382 114 q 461 283 442 219 q 491 409 481 346 q 501 526 501 472 q 474 648 501 610 q 396 686 446 686 q 322 661 356 686 q 259 594 288 636 q 209 501 231 553 q 173 396 188 450 q 151 290 158 342 q 143 201 143 239 q 172 90 143 129 q 257 51 201 51 z "},"c":{"ha":474,"x_min":49,"x_max":506,"o":"m 244 -14 q 138 13 182 -14 q 71 92 93 39 q 49 225 49 146 q 62 368 49 294 q 101 510 75 442 q 167 633 126 579 q 260 719 207 688 q 379 751 313 751 q 447 744 414 751 q 506 725 479 738 l 479 661 q 431 680 457 674 q 379 686 406 686 q 271 644 318 686 q 190 535 224 603 q 140 387 157 467 q 124 231 124 307 q 139 131 124 171 q 183 72 154 92 q 257 51 213 51 q 319 61 289 51 q 381 86 350 71 l 381 19 q 320 -4 354 6 q 244 -14 286 -14 z "},"d":{"ha":628,"x_min":46,"x_max":675,"o":"m 206 -14 q 119 12 154 -14 q 65 87 83 38 q 46 208 46 136 q 59 349 46 275 q 98 495 72 424 q 162 624 124 567 q 250 717 200 682 q 364 751 300 751 q 435 735 406 751 q 485 691 465 719 q 511 628 504 663 l 515 628 q 524 681 519 654 q 534 733 529 707 q 544 783 539 758 l 601 1056 l 675 1056 l 453 0 l 392 0 l 411 131 l 408 131 q 352 57 382 90 q 286 5 322 24 q 206 -14 250 -14 m 226 51 q 301 77 267 51 q 364 146 336 103 q 414 242 392 189 q 451 351 436 296 q 474 458 465 407 q 482 547 482 510 q 453 649 482 613 q 369 686 424 686 q 283 655 322 686 q 215 572 244 624 q 164 458 185 521 q 133 331 143 396 q 122 210 122 267 q 149 90 122 129 q 226 51 176 51 z "},"e":{"ha":550,"x_min":47,"x_max":521,"o":"m 250 -14 q 142 13 188 -14 q 72 92 97 39 q 47 224 47 146 q 72 426 47 331 q 141 594 97 521 q 244 710 185 668 q 372 751 303 751 q 481 715 440 751 q 521 604 521 678 q 497 499 521 547 q 426 416 472 451 q 310 360 379 381 q 149 340 240 340 l 132 340 q 125 289 128 317 q 122 232 122 261 q 158 95 122 140 q 265 50 194 50 q 342 62 307 50 q 414 93 378 74 l 414 26 q 341 -3 382 8 q 250 -14 300 -14 m 158 403 q 319 428 254 403 q 416 499 383 454 q 449 601 449 543 q 428 664 449 640 q 364 688 407 688 q 274 651 318 688 q 196 551 231 615 q 143 403 161 486 l 158 403 z "},"f":{"ha":322,"x_min":-175,"x_max":493,"o":"m -106 -333 q -143 -331 -125 -333 q -175 -322 -161 -328 l -175 -257 q -144 -264 -160 -261 q -111 -267 -128 -267 q -36 -226 -60 -267 q 3 -112 -12 -185 l 169 675 l 75 675 l 82 718 l 183 739 l 207 846 q 235 941 219 900 q 272 1009 250 982 q 326 1049 294 1036 q 400 1063 357 1063 q 451 1057 425 1063 q 493 1043 476 1051 l 468 982 q 436 993 453 989 q 400 997 419 997 q 322 958 349 997 q 279 840 296 919 l 257 738 l 375 738 l 363 675 l 244 675 l 75 -119 q 40 -231 61 -182 q -15 -306 19 -279 q -106 -333 -49 -333 z "},"g":{"ha":628,"x_min":-8,"x_max":608,"o":"m 156 -333 q 63 -321 106 -333 q -8 -293 19 -308 l -8 -219 q 36 -242 10 -231 q 94 -260 63 -253 q 156 -268 125 -268 q 296 -213 247 -268 q 368 -50 344 -158 l 383 15 q 395 67 388 36 q 411 128 403 99 l 407 128 q 351 54 382 86 q 285 4 321 22 q 206 -14 249 -14 q 119 12 154 -14 q 65 87 83 38 q 46 207 46 136 q 59 348 46 274 q 98 494 72 422 q 162 624 124 567 q 251 717 200 682 q 367 751 303 751 q 440 735 410 751 q 487 689 469 718 q 513 622 504 660 l 517 622 l 549 738 l 608 738 l 442 -53 q 386 -208 422 -146 q 293 -302 350 -271 q 156 -333 236 -333 m 228 51 q 300 77 267 51 q 362 146 333 103 q 413 242 390 189 q 450 351 435 296 q 473 459 465 407 q 481 549 481 511 q 452 650 481 614 q 371 686 424 686 q 284 655 324 686 q 215 572 244 624 q 164 458 185 521 q 133 331 143 396 q 122 211 122 267 q 149 91 122 131 q 228 51 175 51 z "},"h":{"ha":610,"x_min":15,"x_max":557,"o":"m 15 0 l 239 1056 l 314 1056 l 249 760 q 239 713 244 736 q 227 665 233 689 q 214 617 221 640 l 218 617 q 267 685 239 656 q 333 733 296 715 q 415 751 371 751 q 491 735 460 751 q 540 688 522 719 q 557 607 557 656 q 551 540 557 579 q 536 464 544 500 l 438 0 l 364 0 l 463 465 q 476 535 469 501 q 482 596 482 568 q 459 663 482 640 q 393 685 436 685 q 301 651 344 685 q 226 553 258 618 q 172 389 193 488 l 90 0 l 15 0 z "},"i":{"ha":265,"x_min":15,"x_max":304,"o":"m 15 0 l 172 738 l 246 738 l 89 0 l 15 0 m 244 885 q 214 897 225 885 q 203 929 203 908 q 210 967 203 949 q 230 997 217 985 q 264 1008 243 1008 q 294 997 283 1008 q 304 964 304 986 q 288 909 304 933 q 244 885 272 885 z "},"j":{"ha":269,"x_min":-183,"x_max":307,"o":"m -117 -333 q -153 -331 -136 -333 q -183 -324 -171 -328 l -183 -256 q -155 -264 -171 -261 q -122 -267 -139 -267 q -66 -249 -89 -267 q -28 -192 -43 -232 q 0 -85 -12 -153 l 175 738 l 249 738 l 72 -90 q 35 -224 57 -169 q -23 -306 13 -278 q -117 -333 -58 -333 m 249 885 q 218 897 229 885 q 207 929 207 908 q 213 967 207 949 q 233 997 219 985 q 267 1008 247 1008 q 297 997 286 1008 q 307 964 307 986 q 291 909 307 933 q 249 885 275 885 z "},"k":{"ha":514,"x_min":15,"x_max":567,"o":"m 15 0 l 239 1056 l 314 1056 l 203 542 q 182 443 193 489 q 158 353 171 397 l 161 353 l 483 738 l 567 738 l 315 438 l 429 0 l 351 0 l 254 379 l 143 260 l 89 0 l 15 0 z "},"l":{"ha":261,"x_min":15,"x_max":314,"o":"m 15 0 l 239 1056 l 314 1056 l 89 0 l 15 0 z "},"m":{"ha":921,"x_min":15,"x_max":868,"o":"m 15 0 l 171 738 l 232 738 l 213 619 l 217 619 q 265 687 238 657 q 327 734 292 717 q 404 751 363 751 q 499 719 465 751 q 536 628 532 688 l 539 628 q 588 690 560 663 q 651 735 615 718 q 729 751 686 751 q 831 715 793 751 q 868 607 868 679 q 865 559 868 586 q 856 508 861 532 l 749 0 l 675 0 l 782 504 q 790 554 788 532 q 793 593 793 576 q 770 662 793 639 q 706 685 747 685 q 640 667 669 685 q 587 619 611 650 q 546 547 563 588 q 518 461 529 507 l 419 0 l 346 0 l 456 514 q 463 558 461 538 q 465 594 465 579 q 444 661 465 638 q 382 685 424 685 q 308 663 342 685 q 249 600 275 640 q 204 506 224 560 q 172 389 185 451 l 89 0 l 15 0 z "},"n":{"ha":610,"x_min":14,"x_max":557,"o":"m 14 0 l 171 739 l 232 739 l 213 617 l 215 617 q 265 685 236 654 q 332 734 294 715 q 414 753 369 753 q 490 737 458 753 q 540 689 522 721 q 557 608 557 657 q 551 540 557 579 q 538 467 544 501 l 438 0 l 363 0 l 461 468 q 475 536 469 503 q 481 597 481 569 q 458 662 481 640 q 393 683 436 683 q 300 649 343 683 q 224 549 257 615 q 171 385 192 482 l 90 0 l 14 0 z "},"o":{"ha":607,"x_min":47,"x_max":560,"o":"m 239 -14 q 135 13 179 -14 q 69 93 92 40 q 47 222 47 146 q 59 353 47 282 q 96 495 71 425 q 159 624 121 565 q 251 717 197 682 q 371 751 304 751 q 474 724 432 751 q 538 644 515 696 q 560 515 560 592 q 547 373 560 446 q 509 231 535 300 q 445 106 483 161 q 356 19 407 51 q 239 -14 304 -14 m 244 53 q 328 81 290 53 q 396 159 367 110 q 444 269 425 208 q 474 394 464 329 q 485 518 485 458 q 472 608 485 569 q 433 666 458 646 q 365 686 407 686 q 279 656 318 686 q 211 574 240 625 q 163 460 182 522 q 133 336 143 399 q 122 221 122 274 q 153 96 122 139 q 244 53 185 53 z "},"p":{"ha":624,"x_min":-51,"x_max":578,"o":"m -51 -322 l 172 738 l 233 738 l 213 606 l 215 606 q 272 682 242 649 q 338 733 301 715 q 418 751 375 751 q 504 726 468 751 q 559 652 540 701 q 578 531 578 603 q 565 388 578 463 q 527 242 553 313 q 463 113 501 171 q 374 20 425 54 q 260 -14 324 -14 q 188 3 218 -14 q 140 48 158 19 q 114 110 122 76 l 110 110 q 97 37 104 76 q 83 -36 90 -3 l 22 -322 l -51 -322 m 256 51 q 342 82 303 51 q 410 163 381 113 q 461 276 440 214 q 492 404 482 339 q 503 528 503 469 q 475 648 503 608 q 397 688 447 688 q 323 662 357 688 q 260 594 289 636 q 210 499 232 551 q 174 390 189 446 q 152 283 160 335 q 144 192 144 232 q 173 88 144 125 q 256 51 201 51 z "},"q":{"ha":629,"x_min":46,"x_max":608,"o":"m 382 11 q 390 49 385 29 q 400 89 394 68 q 411 129 406 110 l 407 129 q 354 58 385 90 q 286 6 324 25 q 206 -14 249 -14 q 119 11 154 -14 q 65 85 83 36 q 46 207 46 135 q 58 343 46 269 q 96 489 71 417 q 159 621 121 561 q 249 716 197 681 q 364 751 300 751 q 439 734 408 751 q 488 688 469 717 q 513 621 506 658 l 515 621 l 549 738 l 608 738 l 383 -328 l 310 -328 l 382 11 m 228 51 q 301 76 267 51 q 363 143 335 101 q 413 237 390 185 q 450 344 435 289 q 473 449 465 399 q 481 540 481 500 q 451 647 481 608 q 368 686 422 686 q 281 654 319 686 q 213 570 242 622 q 163 456 183 518 q 133 329 143 393 q 122 211 122 265 q 149 90 122 128 q 228 51 176 51 z "},"r":{"ha":407,"x_min":15,"x_max":463,"o":"m 15 0 l 171 738 l 231 738 l 208 603 l 213 603 q 261 679 233 646 q 324 732 289 713 q 403 751 360 751 q 435 749 419 751 q 463 743 450 747 l 443 669 q 419 676 432 674 q 390 678 406 678 q 310 651 346 678 q 247 581 275 625 q 200 485 219 538 q 169 379 181 432 l 89 0 l 15 0 z "},"s":{"ha":465,"x_min":-10,"x_max":467,"o":"m 151 -14 q 57 -2 99 -14 q -10 24 15 10 l -10 100 q 60 67 18 82 q 147 51 101 51 q 232 69 199 51 q 282 119 265 86 q 299 196 299 151 q 288 253 299 228 q 254 302 276 278 q 197 357 232 326 q 139 415 164 386 q 99 477 114 443 q 85 554 85 511 q 111 657 85 613 q 185 726 138 701 q 296 751 232 751 q 394 738 351 751 q 467 707 436 725 l 435 646 q 374 675 408 663 q 296 688 339 688 q 198 654 235 688 q 161 563 161 621 q 170 508 161 532 q 200 460 179 483 q 253 410 221 438 q 318 346 290 375 q 360 283 346 317 q 375 201 375 250 q 349 86 375 135 q 273 12 322 38 q 151 -14 224 -14 z "},"t":{"ha":338,"x_min":42,"x_max":372,"o":"m 154 -14 q 71 16 100 -14 q 42 104 42 46 q 45 151 42 125 q 56 207 49 178 l 154 675 l 75 675 l 85 719 l 169 740 l 226 913 l 279 913 l 242 738 l 372 738 l 358 675 l 229 675 l 129 204 q 119 155 124 178 q 115 114 115 132 q 129 68 115 85 q 174 51 143 51 q 210 56 192 51 q 243 65 228 60 l 243 3 q 202 -9 225 -4 q 154 -14 179 -14 z "},"u":{"ha":611,"x_min":47,"x_max":589,"o":"m 190 -14 q 114 3 146 -14 q 65 51 82 19 q 47 131 47 83 q 53 195 47 158 q 67 267 60 232 l 167 738 l 242 738 l 140 264 q 128 200 133 231 q 124 142 124 169 q 146 76 124 99 q 210 53 168 53 q 306 88 263 53 q 381 190 349 122 q 433 353 414 257 l 515 738 l 589 738 l 433 0 l 374 0 l 392 121 l 388 121 q 338 53 367 83 q 271 4 308 22 q 190 -14 233 -14 z "},"v":{"ha":478,"x_min":76,"x_max":547,"o":"m 113 0 l 76 738 l 150 738 l 168 275 q 170 217 169 249 q 172 154 171 185 q 171 100 172 124 l 175 100 q 197 153 186 126 q 220 206 208 179 q 244 258 232 233 l 469 738 l 547 738 l 196 0 l 113 0 z "},"w":{"ha":774,"x_min":85,"x_max":833,"o":"m 89 0 l 85 738 l 156 738 l 156 272 q 156 183 157 225 q 151 106 154 142 l 156 106 q 173 156 163 129 q 195 212 183 183 q 218 267 207 240 l 421 738 l 500 738 l 504 274 q 503 190 504 236 q 500 104 503 143 l 504 104 q 524 159 514 131 q 546 218 533 188 q 571 282 558 249 l 757 738 l 833 738 l 524 0 l 440 0 l 439 493 q 439 539 439 515 q 440 588 439 563 q 442 638 440 613 l 439 638 q 423 594 431 615 q 406 551 415 572 q 386 504 397 529 l 172 0 l 89 0 z "},"x":{"ha":500,"x_min":-58,"x_max":543,"o":"m -58 0 l 207 383 l 110 738 l 186 738 l 263 442 l 460 738 l 543 738 l 292 375 l 397 0 l 321 0 l 238 315 l 25 0 l -58 0 z "},"y":{"ha":490,"x_min":-144,"x_max":561,"o":"m -72 -336 q -115 -332 -97 -336 q -144 -322 -132 -328 l -137 -256 q -108 -266 -124 -262 q -74 -269 -93 -269 q 4 -236 -28 -269 q 68 -135 36 -203 l 135 7 l 90 738 l 165 738 l 186 276 q 190 219 189 249 q 191 160 190 189 q 190 107 192 132 l 194 107 q 215 158 204 131 q 239 215 226 186 q 263 265 251 243 l 483 738 l 561 738 l 138 -154 q 79 -254 108 -214 q 14 -315 50 -294 q -72 -336 -22 -336 z "},"z":{"ha":433,"x_min":-40,"x_max":461,"o":"m -40 0 l -29 53 l 365 675 l 122 675 l 135 738 l 461 738 l 450 682 l 58 64 l 328 64 l 315 0 l -40 0 z "},"{":{"ha":451,"x_min":35,"x_max":533,"o":"m 274 -219 q 138 -183 181 -219 q 94 -74 94 -146 q 97 -37 94 -56 q 104 3 100 -18 l 146 203 q 153 238 150 221 q 156 269 156 254 q 128 335 156 315 q 35 356 100 356 l 49 419 q 166 451 126 419 q 222 560 206 482 l 275 804 q 320 915 289 875 q 401 974 351 956 q 524 992 451 992 l 533 992 l 518 928 q 400 896 439 926 q 344 790 361 865 l 292 547 q 243 438 278 479 q 142 386 208 397 l 142 383 q 206 346 185 374 q 228 272 228 318 q 226 240 228 257 q 219 203 224 222 l 176 -1 q 170 -35 172 -19 q 168 -64 168 -51 q 197 -135 168 -115 q 289 -156 225 -154 l 285 -219 l 274 -219 z "},"|":{"ha":571,"x_min":260,"x_max":326,"o":"m 260 -335 l 260 1058 l 326 1058 l 326 -335 l 260 -335 z "},"}":{"ha":450,"x_min":-79,"x_max":414,"o":"m -75 -156 q 15 -142 -21 -156 q 73 -99 51 -129 q 106 -18 94 -68 l 157 225 q 207 334 172 293 q 307 385 242 375 l 307 388 q 243 426 265 399 q 221 500 221 453 q 224 533 221 515 q 231 569 226 550 l 274 774 q 280 808 278 792 q 282 836 282 824 q 252 906 282 886 q 158 928 222 926 l 171 992 l 181 992 q 280 976 242 992 q 337 928 318 960 q 356 847 356 896 q 353 810 356 831 q 346 769 350 790 l 303 569 q 296 533 299 550 q 293 501 293 517 q 322 436 293 457 q 414 415 350 415 l 400 351 q 283 320 322 351 q 228 213 244 289 l 175 -33 q 129 -144 160 -103 q 49 -202 99 -185 q -72 -219 0 -219 l -79 -219 l -75 -156 z "},"~":{"ha":640,"x_min":64,"x_max":604,"o":"m 326 458 q 264 488 293 476 q 203 499 235 499 q 133 478 168 499 q 64 421 97 458 l 64 496 q 127 546 92 528 q 206 564 163 564 q 278 553 247 564 q 349 521 310 542 q 410 493 383 503 q 467 483 436 483 q 538 503 501 483 q 604 558 574 522 l 604 483 q 542 436 578 454 q 464 418 507 418 q 394 429 425 418 q 326 458 364 440 z "}," ":{"ha":272,"x_min":0,"x_max":0,"o":""},"¡":{"ha":311,"x_min":-18,"x_max":285,"o":"m -18 -253 l 157 485 l 214 485 l 68 -253 l -18 -253 m 217 615 q 185 628 197 615 q 174 664 174 640 q 192 722 174 696 q 240 749 210 749 q 273 736 261 749 q 285 700 285 724 q 268 642 285 669 q 217 615 251 615 z "},"¢":{"ha":586,"x_min":108,"x_max":564,"o":"m 249 131 q 144 204 179 146 q 108 364 108 263 q 120 499 108 429 q 156 635 132 569 q 215 756 179 701 q 299 845 251 810 q 407 889 347 881 l 431 1006 l 489 1006 l 464 890 q 519 881 493 888 q 564 864 544 875 l 538 800 q 490 818 517 811 q 439 825 464 825 q 332 783 379 825 q 251 674 285 742 q 201 525 218 606 q 183 368 183 444 q 217 235 183 278 q 314 192 250 192 q 376 200 346 192 q 433 222 407 208 l 443 160 q 377 135 413 143 q 304 126 342 128 l 275 -14 l 218 -14 l 249 131 z "},"£":{"ha":588,"x_min":-31,"x_max":636,"o":"m -18 63 q 50 100 21 75 q 101 167 79 125 q 136 274 122 210 l 175 460 l 67 460 l 79 522 l 188 522 l 240 772 q 286 899 257 847 q 361 978 315 951 q 472 1006 407 1006 q 565 990 525 1006 q 636 951 606 974 l 600 892 q 544 924 576 910 q 471 938 513 938 q 368 894 404 938 q 313 763 332 850 l 263 522 l 444 522 l 432 460 l 249 460 l 210 274 q 159 136 190 182 q 90 69 128 90 l 467 69 l 453 0 l -31 0 l -18 63 z "},"¤":{"ha":756,"x_min":92,"x_max":694,"o":"m 557 285 q 478 242 521 257 q 393 226 436 226 q 305 242 347 226 q 226 286 263 257 l 131 190 l 92 229 l 188 325 q 144 405 158 363 q 129 492 129 447 q 144 577 129 535 q 188 656 158 619 l 92 753 l 129 792 l 228 694 q 307 740 264 725 q 393 754 350 754 q 478 740 436 754 q 557 696 521 725 l 654 792 l 694 753 l 597 657 q 642 578 626 621 q 657 492 657 536 q 642 404 657 447 q 597 325 628 361 l 694 228 l 656 189 l 557 285 m 392 283 q 497 313 450 283 q 573 389 544 342 q 601 492 601 436 q 574 594 603 547 q 497 671 544 642 q 393 699 449 700 q 290 672 338 700 q 213 596 242 643 q 186 492 185 549 q 214 386 186 433 q 288 311 242 339 q 392 283 335 283 z "},"¥":{"ha":575,"x_min":44,"x_max":646,"o":"m 158 0 l 201 199 l 44 199 l 57 258 l 214 258 l 242 392 l 86 392 l 99 451 l 238 451 l 167 992 l 240 992 l 300 496 l 567 992 l 646 992 l 347 451 l 488 451 l 476 392 l 315 392 l 288 258 l 447 258 l 435 199 l 275 199 l 232 0 l 158 0 z "},"¦":{"ha":571,"x_min":260,"x_max":326,"o":"m 260 531 l 260 1056 l 326 1056 l 326 531 l 260 531 m 260 -333 l 260 193 l 326 193 l 326 -333 l 260 -333 z "},"§":{"ha":513,"x_min":0,"x_max":544,"o":"m 163 43 q 67 54 108 43 q 0 79 26 65 l 0 150 q 73 116 31 129 q 161 103 115 103 q 281 140 236 103 q 326 240 326 178 q 313 292 326 269 q 276 334 300 314 q 217 375 251 354 q 153 420 183 396 q 105 476 124 444 q 86 551 86 508 q 104 631 86 597 q 156 691 122 665 q 232 736 189 717 q 181 795 199 763 q 163 869 163 828 q 189 965 163 924 q 263 1031 215 1007 q 374 1056 311 1056 q 469 1044 425 1057 q 544 1011 513 1031 l 514 956 q 448 986 483 975 q 375 997 413 997 q 306 983 338 997 q 253 942 274 969 q 233 874 233 915 q 262 800 233 828 q 336 744 290 772 q 406 696 376 721 q 451 642 435 671 q 468 574 468 613 q 451 493 468 529 q 405 428 435 457 q 336 374 375 399 q 380 319 363 351 q 397 246 397 288 q 368 140 397 186 q 287 69 339 94 q 163 43 235 43 m 294 407 q 369 474 340 435 q 399 561 399 513 q 385 615 399 593 q 345 658 372 638 q 278 703 318 679 q 214 670 242 689 q 171 624 186 651 q 156 561 156 597 q 172 503 156 528 q 218 457 188 479 q 294 407 249 435 z "},"¨":{"ha":692,"x_min":278,"x_max":579,"o":"m 525 888 q 497 899 507 888 q 486 929 486 910 q 500 980 486 957 q 542 1003 514 1003 q 569 992 560 1003 q 579 961 579 981 q 564 910 579 933 q 525 888 549 888 m 317 888 q 288 899 299 888 q 278 929 278 910 q 292 980 278 957 q 333 1003 307 1003 q 354 998 346 1003 q 367 984 363 993 q 371 961 371 975 q 356 910 371 933 q 317 888 342 888 z "},"©":{"ha":1154,"x_min":68,"x_max":1086,"o":"m 575 -12 q 367 26 460 -12 q 207 135 274 65 q 104 297 140 204 q 68 496 68 389 q 107 701 68 608 q 215 863 146 794 q 376 967 283 931 q 578 1004 469 1004 q 783 965 689 1004 q 944 856 876 926 q 1049 694 1011 786 q 1086 494 1086 601 q 1048 293 1086 386 q 942 131 1010 200 q 780 25 874 63 q 575 -12 686 -12 m 601 192 q 395 270 469 192 q 321 494 321 349 q 354 656 321 588 q 451 763 388 725 q 603 800 514 800 q 694 790 651 800 q 775 761 738 779 l 749 706 q 678 731 715 722 q 604 739 642 739 q 447 675 503 739 q 390 496 390 611 q 447 313 390 374 q 607 253 504 253 q 681 260 644 253 q 757 282 717 267 l 757 224 q 683 200 722 208 q 601 192 644 192 m 575 42 q 758 76 675 42 q 902 174 842 111 q 995 318 963 236 q 1028 496 1028 400 q 995 674 1028 592 q 902 819 963 757 q 759 915 842 881 q 576 950 676 950 q 394 916 478 950 q 251 820 311 882 q 158 676 190 758 q 125 496 125 593 q 158 316 125 399 q 250 172 190 233 q 393 76 310 110 q 575 42 476 42 z "},"ª":{"ha":382,"x_min":99,"x_max":465,"o":"m 214 544 q 156 560 182 544 q 115 610 131 576 q 99 699 99 644 q 112 807 99 753 q 151 906 125 861 q 214 976 176 950 q 300 1003 251 1003 q 365 981 343 1003 q 394 931 386 960 l 399 931 l 421 994 l 465 994 l 372 553 l 326 553 l 338 625 l 333 625 q 283 567 313 589 q 214 544 254 544 m 226 597 q 278 615 256 597 q 319 663 301 633 q 347 727 336 693 q 364 793 358 761 q 369 847 369 825 q 352 922 369 894 q 296 950 335 950 q 240 928 265 950 q 196 871 214 907 q 168 791 178 835 q 158 704 158 747 q 176 623 158 649 q 226 597 194 597 z "},"«":{"ha":547,"x_min":42,"x_max":549,"o":"m 169 99 l 42 363 l 43 382 l 279 631 l 322 596 l 122 367 l 224 121 l 169 99 m 397 99 l 269 358 l 271 378 l 504 629 l 549 596 l 350 363 l 450 121 l 397 99 z "},"¬":{"ha":640,"x_min":67,"x_max":589,"o":"m 589 521 l 589 171 l 524 171 l 524 457 l 67 457 l 67 521 l 589 521 z "},"­":{"ha":382,"x_min":32,"x_max":346,"o":"m 32 340 l 44 411 l 346 411 l 333 340 l 32 340 z "},"®":{"ha":1154,"x_min":68,"x_max":1086,"o":"m 401 199 l 401 794 l 568 794 q 719 753 664 794 q 774 622 774 711 q 741 517 774 556 q 658 460 708 478 l 800 199 l 722 199 l 594 443 l 469 443 l 469 199 l 401 199 m 563 499 q 664 528 624 499 q 704 621 704 558 q 667 709 704 682 q 563 736 629 736 l 468 736 l 468 499 l 563 499 m 575 -12 q 367 26 460 -12 q 207 135 274 65 q 104 297 140 204 q 68 496 68 389 q 107 701 68 608 q 215 863 146 794 q 376 967 283 931 q 578 1004 469 1004 q 783 965 689 1004 q 944 856 876 926 q 1049 694 1011 786 q 1086 494 1086 601 q 1048 293 1086 386 q 942 131 1010 200 q 780 25 874 63 q 575 -12 686 -12 m 575 42 q 758 76 675 42 q 902 174 842 111 q 995 318 963 236 q 1028 496 1028 400 q 995 674 1028 592 q 902 819 963 757 q 759 915 842 881 q 576 950 676 950 q 394 916 478 950 q 251 820 311 882 q 158 676 190 758 q 125 496 125 593 q 158 316 125 399 q 250 172 190 233 q 393 76 310 110 q 575 42 476 42 z "},"¯":{"ha":546,"x_min":138,"x_max":686,"o":"m 138 1056 l 151 1117 l 686 1117 l 671 1056 l 138 1056 z "},"°":{"ha":529,"x_min":76,"x_max":453,"o":"m 265 633 q 167 656 210 633 q 101 721 125 679 q 76 819 76 763 q 101 918 76 876 q 168 982 125 960 q 264 1004 211 1004 q 360 981 318 1004 q 428 917 403 958 q 453 818 453 876 q 428 720 453 763 q 361 656 404 678 q 265 633 318 633 m 265 686 q 359 724 324 686 q 394 819 394 761 q 359 915 394 879 q 264 951 324 951 q 169 915 203 951 q 135 819 135 878 q 171 722 135 758 q 265 686 207 686 z "},"±":{"ha":640,"x_min":64,"x_max":601,"o":"m 67 0 l 67 67 l 600 67 l 600 0 l 67 0 m 367 531 l 601 531 l 601 467 l 367 467 l 367 176 l 301 176 l 301 467 l 64 467 l 64 531 l 301 531 l 301 824 l 367 824 l 367 531 z "},"²":{"ha":401,"x_min":68,"x_max":467,"o":"m 68 578 l 78 629 l 249 807 q 328 892 293 853 q 383 971 363 932 q 403 1051 403 1010 q 382 1110 403 1089 q 324 1132 361 1132 q 263 1119 292 1132 q 207 1083 235 1106 l 181 1129 q 251 1172 213 1157 q 335 1188 289 1188 q 407 1172 378 1188 q 451 1126 436 1156 q 467 1060 467 1097 q 444 963 467 1008 q 384 872 422 917 q 299 781 346 828 l 156 635 l 394 635 l 382 578 l 68 578 z "},"³":{"ha":401,"x_min":79,"x_max":467,"o":"m 207 568 q 134 576 165 568 q 79 597 103 585 l 79 661 q 138 634 106 644 q 208 624 171 624 q 314 662 276 624 q 351 760 351 700 q 322 837 351 813 q 243 861 292 861 l 197 861 l 208 914 l 253 914 q 335 933 301 914 q 385 982 368 951 q 403 1049 403 1013 q 382 1108 403 1086 q 321 1131 361 1131 q 259 1119 288 1131 q 203 1088 231 1107 l 176 1133 q 244 1172 206 1157 q 331 1188 283 1188 q 406 1170 376 1188 q 451 1124 436 1153 q 467 1058 467 1094 q 430 949 467 993 q 335 890 393 906 l 333 886 q 392 843 368 874 q 415 761 415 813 q 391 663 415 707 q 321 594 367 619 q 207 568 275 568 z "},"´":{"ha":321,"x_min":160,"x_max":411,"o":"m 160 854 q 222 925 190 888 q 279 999 253 963 q 324 1064 306 1035 l 411 1064 l 410 1053 q 371 1003 396 1032 q 316 944 346 974 q 258 887 286 914 q 204 842 229 860 l 160 842 l 160 854 z "},"μ":{"ha":651,"x_min":-53,"x_max":594,"o":"m -53 -322 l 174 738 l 247 738 l 140 236 q 130 138 128 179 q 151 75 132 97 q 214 53 171 53 q 310 88 267 53 q 387 190 354 122 q 439 350 419 257 l 521 738 l 594 738 l 475 174 q 470 79 461 107 q 508 51 479 51 q 532 54 519 51 q 556 60 544 57 l 542 -1 q 526 -8 536 -4 q 504 -12 515 -11 q 481 -14 493 -14 q 426 2 444 -14 q 401 48 407 18 q 397 121 394 78 l 393 121 q 364 76 381 100 q 325 32 347 53 q 274 -1 303 11 q 207 -14 244 -14 q 138 6 163 -14 q 101 63 114 25 l 97 63 q 91 18 94 40 q 83 -25 88 -4 q 75 -67 79 -46 l 21 -322 l -53 -322 z "},"¶":{"ha":690,"x_min":132,"x_max":606,"o":"m 368 501 q 341 494 356 496 q 307 492 326 492 q 232 510 265 492 q 176 564 199 528 q 143 652 154 600 q 132 771 132 704 q 146 897 132 843 q 186 985 160 950 q 251 1038 213 1021 q 338 1056 289 1056 l 606 1056 l 606 -176 l 550 -176 l 550 997 l 424 997 l 424 -176 l 368 -176 l 368 501 z "},"·":{"ha":279,"x_min":107,"x_max":218,"o":"m 151 414 q 119 426 132 414 q 107 461 107 439 q 124 520 107 493 q 175 547 142 547 q 207 535 196 547 q 218 499 218 522 q 201 440 218 467 q 151 414 183 414 z "},"¸":{"ha":279,"x_min":-103,"x_max":149,"o":"m -24 -333 q -68 -331 -49 -333 q -103 -324 -87 -328 l -103 -271 q -73 -278 -92 -275 q -29 -281 -54 -281 q 30 -269 4 -281 q 70 -237 56 -258 q 85 -189 85 -217 q 58 -135 85 -153 q -21 -114 31 -118 l 51 0 l 104 0 l 51 -82 q 122 -116 94 -90 q 149 -186 149 -142 q 126 -263 149 -229 q 65 -315 104 -297 q -24 -333 26 -333 z "},"¹":{"ha":401,"x_min":172,"x_max":413,"o":"m 315 1011 q 326 1059 319 1036 q 338 1103 332 1082 q 308 1080 322 1090 q 281 1060 294 1069 l 199 1006 l 172 1050 l 353 1172 l 413 1172 l 285 578 l 221 578 l 315 1011 z "},"º":{"ha":390,"x_min":108,"x_max":440,"o":"m 238 542 q 142 583 175 542 q 108 697 108 624 q 121 802 108 749 q 159 901 133 856 q 223 975 185 947 q 313 1003 261 1003 q 407 964 374 1003 q 440 849 440 925 q 428 743 440 797 q 390 643 415 689 q 326 569 364 597 q 238 542 288 542 m 243 596 q 303 619 278 596 q 347 681 329 643 q 372 763 364 719 q 381 846 381 806 q 363 923 381 896 q 307 950 344 950 q 248 926 274 950 q 204 865 222 903 q 177 784 186 828 q 168 700 168 740 q 187 622 168 649 q 243 596 206 596 z "},"»":{"ha":549,"x_min":-7,"x_max":501,"o":"m 264 99 l 219 133 l 419 361 l 318 607 l 372 631 l 501 365 l 499 346 l 264 99 m 38 99 l -7 133 l 192 365 l 92 607 l 144 631 l 272 369 l 271 350 l 38 99 z "},"¼":{"ha":878,"x_min":43,"x_max":865,"o":"m 43 0 l 793 992 l 865 992 l 115 0 l 43 0 m 281 831 q 291 878 285 856 q 303 922 297 901 q 274 899 288 910 q 246 879 260 889 l 164 825 l 138 869 l 318 992 l 378 992 l 250 397 l 186 397 l 281 831 m 633 0 l 664 146 l 446 146 l 454 194 l 760 599 l 822 599 l 738 200 l 808 200 l 796 146 l 726 146 l 694 0 l 633 0 m 519 200 l 675 200 l 717 388 q 730 450 724 419 q 743 503 736 481 q 724 474 735 490 q 702 442 714 458 q 676 410 690 426 l 519 200 z "},"½":{"ha":947,"x_min":39,"x_max":899,"o":"m 39 0 l 789 992 l 861 992 l 111 0 l 39 0 m 281 831 q 291 878 285 856 q 303 922 297 901 q 274 899 288 910 q 246 879 260 889 l 164 825 l 138 869 l 318 992 l 378 992 l 250 397 l 186 397 l 281 831 m 500 0 l 510 51 l 681 229 q 760 315 725 275 q 815 393 794 354 q 835 474 835 432 q 814 533 835 511 q 756 554 793 554 q 695 541 724 554 q 639 506 667 528 l 613 551 q 683 594 644 579 q 767 610 721 610 q 839 594 810 610 q 883 549 868 578 q 899 482 899 519 q 876 385 899 431 q 816 294 854 339 q 731 203 778 250 l 588 57 l 826 57 l 814 0 l 500 0 z "},"¾":{"ha":904,"x_min":43,"x_max":903,"o":"m 171 388 q 98 396 129 388 q 43 417 67 404 l 43 481 q 102 453 69 464 q 172 443 135 443 q 278 481 240 443 q 315 579 315 519 q 285 656 315 632 q 207 681 256 681 l 161 681 l 172 733 l 217 733 q 299 752 265 733 q 349 801 332 771 q 367 868 367 832 q 346 928 367 906 q 285 950 325 950 q 223 938 251 950 q 167 907 194 926 l 140 953 q 208 992 169 976 q 294 1007 247 1007 q 370 990 340 1007 q 415 943 400 972 q 431 878 431 914 q 394 769 431 813 q 299 710 357 725 l 297 706 q 356 663 332 693 q 379 581 379 632 q 355 483 379 526 q 285 413 331 439 q 171 388 239 388 m 81 0 l 831 992 l 903 992 l 153 0 l 81 0 m 658 0 l 689 146 l 471 146 l 479 194 l 785 599 l 847 599 l 763 200 l 833 200 l 821 146 l 751 146 l 719 0 l 658 0 m 544 200 l 700 200 l 742 388 q 755 450 749 419 q 768 503 761 481 q 749 474 760 490 q 727 442 739 458 q 701 410 715 426 l 544 200 z "},"¿":{"ha":425,"x_min":-56,"x_max":379,"o":"m 324 476 q 292 358 311 407 q 246 269 274 310 q 175 182 218 229 q 95 94 131 133 q 40 11 60 54 q 21 -90 21 -32 q 51 -176 21 -146 q 133 -207 81 -207 q 207 -193 172 -207 q 274 -161 242 -179 l 297 -219 q 211 -260 256 -246 q 121 -274 167 -274 q -8 -228 39 -274 q -56 -100 -56 -182 q -33 13 -56 -37 q 27 111 -11 64 q 114 208 65 158 q 188 292 160 256 q 232 372 215 329 q 261 476 249 414 l 324 476 m 333 740 q 367 728 356 740 q 379 692 379 715 q 362 633 379 661 q 311 606 344 606 q 280 619 292 606 q 268 656 268 632 q 285 714 268 688 q 333 740 303 740 z "},"À":{"ha":586,"x_min":-87,"x_max":500,"o":"m -87 0 l 369 994 l 460 994 l 500 0 l 424 0 l 411 351 l 154 351 l -4 0 l -87 0 m 185 421 l 408 421 l 400 781 q 398 848 399 814 q 397 910 397 882 l 394 910 q 371 849 385 882 q 340 779 357 817 l 185 421 m 450 1100 q 406 1163 431 1126 q 360 1239 382 1200 q 326 1308 339 1278 l 326 1321 l 407 1321 q 433 1250 419 1286 q 463 1180 447 1214 q 494 1114 479 1146 l 494 1100 l 450 1100 z "},"Á":{"ha":586,"x_min":-87,"x_max":633,"o":"m -87 0 l 369 994 l 460 994 l 500 0 l 424 0 l 411 351 l 154 351 l -4 0 l -87 0 m 185 421 l 408 421 l 400 781 q 398 848 399 814 q 397 910 397 882 l 394 910 q 371 849 385 882 q 340 779 357 817 l 185 421 m 382 1110 q 444 1181 413 1143 q 501 1254 475 1218 q 546 1319 528 1290 l 633 1319 l 632 1308 q 593 1258 618 1288 q 538 1199 568 1229 q 480 1142 508 1169 q 426 1097 451 1115 l 382 1097 l 382 1110 z "},"Â":{"ha":586,"x_min":-87,"x_max":582,"o":"m -87 0 l 369 994 l 460 994 l 500 0 l 424 0 l 411 351 l 154 351 l -4 0 l -87 0 m 185 421 l 408 421 l 400 781 q 398 848 399 814 q 397 910 397 882 l 394 910 q 371 849 385 882 q 340 779 357 817 l 185 421 m 257 1108 q 317 1174 285 1138 q 378 1247 349 1210 q 429 1318 408 1285 l 494 1318 q 518 1249 503 1289 q 551 1172 533 1210 q 582 1108 569 1133 l 581 1096 l 539 1096 q 509 1140 525 1117 q 478 1191 493 1164 q 450 1244 464 1218 q 376 1167 415 1206 q 299 1096 338 1128 l 254 1096 l 257 1108 z "},"Ã":{"ha":586,"x_min":-87,"x_max":651,"o":"m -87 0 l 369 994 l 460 994 l 500 0 l 424 0 l 411 351 l 154 351 l -4 0 l -87 0 m 185 421 l 408 421 l 400 781 q 398 848 399 814 q 397 910 397 882 l 394 910 q 371 849 385 882 q 340 779 357 817 l 185 421 m 233 1101 q 260 1186 243 1153 q 303 1237 278 1219 q 364 1254 329 1254 q 414 1241 392 1254 q 455 1210 436 1228 q 490 1180 474 1193 q 526 1167 507 1167 q 570 1186 553 1167 q 599 1256 588 1206 l 651 1256 q 624 1169 642 1203 q 581 1119 606 1135 q 524 1103 556 1103 q 474 1116 496 1103 q 435 1147 453 1129 q 399 1177 417 1164 q 360 1190 381 1190 q 313 1169 331 1190 q 285 1101 296 1147 l 233 1101 z "},"Ä":{"ha":586,"x_min":-87,"x_max":585,"o":"m -87 0 l 369 994 l 460 994 l 500 0 l 424 0 l 411 351 l 154 351 l -4 0 l -87 0 m 185 421 l 408 421 l 400 781 q 398 848 399 814 q 397 910 397 882 l 394 910 q 371 849 385 882 q 340 779 357 817 l 185 421 m 531 1142 q 502 1153 513 1142 q 492 1183 492 1164 q 506 1234 492 1211 q 547 1257 519 1257 q 575 1246 565 1257 q 585 1215 585 1235 q 569 1165 585 1188 q 531 1142 554 1142 m 322 1142 q 294 1153 304 1142 q 283 1183 283 1164 q 298 1234 283 1211 q 339 1257 313 1257 q 360 1252 351 1257 q 372 1238 368 1247 q 376 1215 376 1229 q 362 1165 376 1188 q 322 1142 347 1142 z "},"Å":{"ha":586,"x_min":-87,"x_max":574,"o":"m -87 0 l 369 994 l 460 994 l 500 0 l 424 0 l 411 351 l 154 351 l -4 0 l -87 0 m 185 421 l 408 421 l 400 781 q 398 848 399 814 q 397 910 397 882 l 394 910 q 371 849 385 882 q 340 779 357 817 l 185 421 m 439 1079 q 341 1115 378 1079 q 304 1213 304 1150 q 342 1308 304 1271 q 439 1344 379 1344 q 538 1308 501 1344 q 574 1214 574 1271 q 537 1117 574 1154 q 439 1079 500 1079 m 439 1128 q 500 1151 478 1128 q 522 1213 522 1175 q 500 1272 522 1249 q 439 1296 478 1296 q 378 1272 401 1296 q 356 1213 356 1249 q 377 1151 356 1175 q 439 1128 399 1128 z "},"Æ":{"ha":833,"x_min":-90,"x_max":893,"o":"m -90 0 l 424 992 l 893 992 l 879 922 l 568 922 l 489 554 l 782 554 l 767 486 l 475 486 l 386 69 l 697 69 l 683 0 l 296 0 l 371 353 l 172 353 l -7 0 l -90 0 m 208 422 l 386 422 l 492 922 l 463 922 l 208 422 z "},"Ç":{"ha":597,"x_min":68,"x_max":689,"o":"m 319 -14 q 183 24 239 -14 q 97 138 126 63 q 68 326 68 214 q 86 505 68 411 q 141 688 104 599 q 233 849 178 776 q 360 964 288 921 q 524 1007 432 1007 q 616 995 575 1007 q 689 961 657 983 l 651 899 q 592 928 625 918 q 522 938 560 938 q 388 898 447 938 q 284 793 329 858 q 208 648 239 728 q 163 485 178 568 q 147 331 147 403 q 194 124 147 192 q 333 56 242 56 q 408 64 371 56 q 483 86 446 72 l 483 17 q 406 -6 446 1 q 319 -14 365 -14 m 183 -333 q 139 -331 158 -333 q 104 -324 119 -328 l 104 -271 q 134 -278 115 -275 q 178 -281 153 -281 q 237 -269 211 -281 q 277 -237 263 -258 q 292 -189 292 -217 q 265 -135 292 -153 q 186 -114 238 -118 l 258 0 l 311 0 l 258 -82 q 328 -116 301 -90 q 356 -186 356 -142 q 333 -263 356 -229 q 272 -315 311 -297 q 183 -333 233 -333 z "},"È":{"ha":561,"x_min":19,"x_max":615,"o":"m 19 0 l 231 992 l 615 992 l 601 922 l 292 922 l 214 554 l 503 554 l 489 486 l 199 486 l 110 69 l 419 69 l 406 0 l 19 0 m 444 1099 q 401 1162 425 1125 q 355 1238 376 1199 q 321 1307 333 1276 l 321 1319 l 401 1319 q 428 1249 414 1285 q 458 1178 442 1213 q 489 1113 474 1144 l 489 1099 l 444 1099 z "},"É":{"ha":561,"x_min":19,"x_max":625,"o":"m 19 0 l 231 992 l 615 992 l 601 922 l 292 922 l 214 554 l 503 554 l 489 486 l 199 486 l 110 69 l 419 69 l 406 0 l 19 0 m 375 1108 q 437 1179 406 1142 q 494 1253 468 1217 q 539 1318 521 1289 l 626 1318 l 625 1307 q 586 1257 611 1286 q 531 1198 561 1228 q 473 1141 501 1168 q 419 1096 444 1114 l 375 1096 l 375 1108 z "},"Ê":{"ha":561,"x_min":19,"x_max":615,"o":"m 19 0 l 231 992 l 615 992 l 601 922 l 292 922 l 214 554 l 503 554 l 489 486 l 199 486 l 110 69 l 419 69 l 406 0 l 19 0 m 269 1090 q 329 1156 297 1119 q 391 1229 361 1192 q 442 1300 421 1267 l 507 1300 q 531 1231 515 1271 q 564 1153 546 1192 q 594 1090 582 1115 l 593 1078 l 551 1078 q 522 1122 538 1099 q 491 1173 506 1146 q 463 1226 476 1200 q 389 1149 428 1188 q 311 1078 350 1110 l 267 1078 l 269 1090 z "},"Ë":{"ha":561,"x_min":19,"x_max":615,"o":"m 19 0 l 231 992 l 615 992 l 601 922 l 292 922 l 214 554 l 503 554 l 489 486 l 199 486 l 110 69 l 419 69 l 406 0 l 19 0 m 542 1124 q 513 1135 524 1124 q 503 1165 503 1146 q 517 1216 503 1193 q 558 1239 531 1239 q 586 1228 576 1239 q 596 1197 596 1217 q 581 1147 596 1169 q 542 1124 565 1124 m 333 1124 q 305 1135 315 1124 q 294 1165 294 1146 q 309 1216 294 1193 q 350 1239 324 1239 q 371 1234 363 1239 q 383 1220 379 1229 q 388 1197 388 1211 q 373 1147 388 1169 q 333 1124 358 1124 z "},"Ì":{"ha":332,"x_min":-56,"x_max":421,"o":"m -56 0 l -46 46 l 53 60 l 238 932 l 146 946 l 154 992 l 421 992 l 411 946 l 313 932 l 128 60 l 219 46 l 211 0 l -56 0 m 324 1099 q 280 1162 304 1125 q 234 1238 256 1199 q 200 1307 213 1276 l 200 1319 l 281 1319 q 307 1249 293 1285 q 337 1178 321 1213 q 368 1113 353 1144 l 368 1099 l 324 1099 z "},"Í":{"ha":332,"x_min":-56,"x_max":504,"o":"m -56 0 l -46 46 l 53 60 l 238 932 l 146 946 l 154 992 l 421 992 l 411 946 l 313 932 l 128 60 l 219 46 l 211 0 l -56 0 m 254 1108 q 316 1179 285 1142 q 374 1253 347 1217 q 418 1318 400 1289 l 506 1318 l 504 1307 q 465 1257 490 1286 q 410 1198 440 1228 q 352 1141 381 1168 q 299 1096 324 1114 l 254 1096 l 254 1108 z "},"Î":{"ha":332,"x_min":-56,"x_max":471,"o":"m -56 0 l -46 46 l 53 60 l 238 932 l 146 946 l 154 992 l 421 992 l 411 946 l 313 932 l 128 60 l 219 46 l 211 0 l -56 0 m 146 1113 q 206 1178 174 1142 q 267 1251 238 1214 q 318 1322 297 1289 l 383 1322 q 407 1253 392 1293 q 440 1176 422 1214 q 471 1113 458 1138 l 469 1100 l 428 1100 q 398 1144 414 1121 q 367 1195 382 1168 q 339 1249 353 1222 q 265 1171 304 1210 q 188 1100 226 1132 l 143 1100 l 146 1113 z "},"Ï":{"ha":332,"x_min":-56,"x_max":474,"o":"m -56 0 l -46 46 l 53 60 l 238 932 l 146 946 l 154 992 l 421 992 l 411 946 l 313 932 l 128 60 l 219 46 l 211 0 l -56 0 m 421 1146 q 392 1157 403 1146 q 382 1188 382 1168 q 396 1238 382 1215 q 438 1261 410 1261 q 465 1250 456 1261 q 475 1219 475 1239 q 460 1169 475 1192 q 421 1146 444 1146 m 213 1146 q 184 1157 194 1146 q 174 1188 174 1168 q 188 1238 174 1215 q 229 1261 203 1261 q 250 1256 242 1261 q 263 1242 258 1251 q 267 1219 267 1233 q 252 1169 267 1192 q 213 1146 238 1146 z "},"Ð":{"ha":708,"x_min":21,"x_max":675,"o":"m 39 475 l 53 540 l 374 540 l 360 475 l 39 475 m 21 0 l 231 992 l 389 992 q 600 913 525 992 q 675 669 675 835 q 657 488 675 582 q 602 307 639 394 q 508 151 565 219 q 369 41 450 82 q 185 0 289 0 l 21 0 m 192 69 q 342 106 276 69 q 455 203 407 142 q 533 343 503 265 q 579 505 564 421 q 594 668 594 589 q 538 863 594 804 q 378 922 482 922 l 292 922 l 110 69 l 192 69 z "},"Ñ":{"ha":761,"x_min":19,"x_max":779,"o":"m 19 0 l 231 992 l 315 992 l 525 136 l 528 136 q 542 216 535 175 q 558 294 550 257 q 571 360 565 332 l 706 992 l 779 992 l 568 0 l 485 0 l 275 864 l 271 864 q 262 808 267 838 q 251 747 257 778 q 238 686 244 717 q 226 629 232 656 l 93 0 l 19 0 m 322 1083 q 349 1168 332 1135 q 392 1219 367 1201 q 453 1236 418 1236 q 503 1223 481 1236 q 544 1192 525 1210 q 579 1162 563 1175 q 615 1149 596 1149 q 659 1168 642 1149 q 688 1238 676 1188 l 740 1238 q 713 1151 731 1185 q 669 1101 694 1117 q 613 1085 644 1085 q 563 1098 585 1085 q 524 1128 542 1111 q 488 1159 506 1146 q 449 1172 469 1172 q 402 1151 419 1172 q 374 1083 385 1129 l 322 1083 z "},"Ò":{"ha":757,"x_min":67,"x_max":725,"o":"m 310 -14 q 174 22 228 -14 q 93 129 119 58 q 67 301 67 200 q 78 453 67 374 q 112 613 89 533 q 169 763 135 692 q 251 888 204 833 q 356 974 297 943 q 485 1006 415 1006 q 663 931 600 1006 q 725 703 725 857 q 715 559 725 638 q 683 400 704 481 q 630 246 663 319 q 551 114 597 172 q 444 21 504 56 q 310 -14 385 -14 m 315 56 q 419 87 372 56 q 502 171 465 118 q 566 290 539 224 q 611 430 593 357 q 638 573 629 503 q 646 703 646 643 q 604 879 646 821 q 479 938 563 938 q 373 906 421 938 q 288 822 325 875 q 224 701 251 768 q 180 563 197 635 q 153 424 163 492 q 144 301 144 357 q 164 165 144 219 q 222 83 183 111 q 315 56 260 56 m 532 1099 q 488 1162 513 1125 q 442 1238 464 1199 q 408 1307 421 1276 l 408 1319 l 489 1319 q 515 1249 501 1285 q 545 1178 529 1213 q 576 1113 561 1144 l 576 1099 l 532 1099 z "},"Ó":{"ha":757,"x_min":67,"x_max":725,"o":"m 310 -14 q 174 22 228 -14 q 93 129 119 58 q 67 301 67 200 q 78 453 67 374 q 112 613 89 533 q 169 763 135 692 q 251 888 204 833 q 356 974 297 943 q 485 1006 415 1006 q 663 931 600 1006 q 725 703 725 857 q 715 559 725 638 q 683 400 704 481 q 630 246 663 319 q 551 114 597 172 q 444 21 504 56 q 310 -14 385 -14 m 315 56 q 419 87 372 56 q 502 171 465 118 q 566 290 539 224 q 611 430 593 357 q 638 573 629 503 q 646 703 646 643 q 604 879 646 821 q 479 938 563 938 q 373 906 421 938 q 288 822 325 875 q 224 701 251 768 q 180 563 197 635 q 153 424 163 492 q 144 301 144 357 q 164 165 144 219 q 222 83 183 111 q 315 56 260 56 m 463 1108 q 524 1179 493 1142 q 582 1253 556 1217 q 626 1318 608 1289 l 714 1318 l 713 1307 q 674 1257 699 1286 q 619 1198 649 1228 q 560 1141 589 1168 q 507 1096 532 1114 l 463 1096 l 463 1108 z "},"Ô":{"ha":757,"x_min":67,"x_max":725,"o":"m 310 -14 q 174 22 228 -14 q 93 129 119 58 q 67 301 67 200 q 78 453 67 374 q 112 613 89 533 q 169 763 135 692 q 251 888 204 833 q 356 974 297 943 q 485 1006 415 1006 q 663 931 600 1006 q 725 703 725 857 q 715 559 725 638 q 683 400 704 481 q 630 246 663 319 q 551 114 597 172 q 444 21 504 56 q 310 -14 385 -14 m 315 56 q 419 87 372 56 q 502 171 465 118 q 566 290 539 224 q 611 430 593 357 q 638 573 629 503 q 646 703 646 643 q 604 879 646 821 q 479 938 563 938 q 373 906 421 938 q 288 822 325 875 q 224 701 251 768 q 180 563 197 635 q 153 424 163 492 q 144 301 144 357 q 164 165 144 219 q 222 83 183 111 q 315 56 260 56 m 336 1090 q 396 1156 364 1119 q 458 1229 428 1192 q 508 1300 488 1267 l 574 1300 q 597 1231 582 1271 q 631 1153 613 1192 q 661 1090 649 1115 l 660 1078 l 618 1078 q 588 1122 604 1099 q 558 1173 572 1146 q 529 1226 543 1200 q 456 1149 494 1188 q 378 1078 417 1110 l 333 1078 l 336 1090 z "},"Õ":{"ha":757,"x_min":67,"x_max":731,"o":"m 310 -14 q 174 22 228 -14 q 93 129 119 58 q 67 301 67 200 q 78 453 67 374 q 112 613 89 533 q 169 763 135 692 q 251 888 204 833 q 356 974 297 943 q 485 1006 415 1006 q 663 931 600 1006 q 725 703 725 857 q 715 559 725 638 q 683 400 704 481 q 630 246 663 319 q 551 114 597 172 q 444 21 504 56 q 310 -14 385 -14 m 315 56 q 419 87 372 56 q 502 171 465 118 q 566 290 539 224 q 611 430 593 357 q 638 573 629 503 q 646 703 646 643 q 604 879 646 821 q 479 938 563 938 q 373 906 421 938 q 288 822 325 875 q 224 701 251 768 q 180 563 197 635 q 153 424 163 492 q 144 301 144 357 q 164 165 144 219 q 222 83 183 111 q 315 56 260 56 m 311 1083 q 338 1168 321 1135 q 381 1219 356 1201 q 442 1236 407 1236 q 492 1223 469 1236 q 533 1192 514 1210 q 568 1162 551 1175 q 604 1149 585 1149 q 648 1168 631 1149 q 676 1238 665 1188 l 729 1238 q 701 1151 719 1185 q 658 1101 683 1117 q 601 1085 633 1085 q 552 1098 574 1085 q 513 1128 531 1111 q 476 1159 494 1146 q 438 1172 458 1172 q 391 1151 408 1172 q 363 1083 374 1129 l 311 1083 z "},"Ö":{"ha":757,"x_min":67,"x_max":725,"o":"m 310 -14 q 174 22 228 -14 q 93 129 119 58 q 67 301 67 200 q 78 453 67 374 q 112 613 89 533 q 169 763 135 692 q 251 888 204 833 q 356 974 297 943 q 485 1006 415 1006 q 663 931 600 1006 q 725 703 725 857 q 715 559 725 638 q 683 400 704 481 q 630 246 663 319 q 551 114 597 172 q 444 21 504 56 q 310 -14 385 -14 m 315 56 q 419 87 372 56 q 502 171 465 118 q 566 290 539 224 q 611 430 593 357 q 638 573 629 503 q 646 703 646 643 q 604 879 646 821 q 479 938 563 938 q 373 906 421 938 q 288 822 325 875 q 224 701 251 768 q 180 563 197 635 q 153 424 163 492 q 144 301 144 357 q 164 165 144 219 q 222 83 183 111 q 315 56 260 56 m 651 1144 q 623 1156 633 1144 q 613 1186 613 1167 q 626 1237 613 1214 q 668 1260 640 1260 q 696 1249 686 1260 q 706 1218 706 1238 q 690 1167 706 1190 q 651 1144 675 1144 m 443 1144 q 415 1156 425 1144 q 404 1186 404 1167 q 419 1237 404 1214 q 460 1260 433 1260 q 481 1255 472 1260 q 493 1241 489 1250 q 497 1218 497 1232 q 483 1167 497 1190 q 443 1144 468 1144 z "},"×":{"ha":640,"x_min":76,"x_max":592,"o":"m 546 749 l 592 704 l 378 490 l 589 278 l 544 233 l 332 446 l 121 233 l 76 278 l 289 490 l 78 703 l 122 747 l 333 535 l 546 749 z "},"Ø":{"ha":758,"x_min":1,"x_max":792,"o":"m 49 -57 l 1 -25 l 100 119 q 75 201 83 154 q 67 301 67 247 q 78 453 67 374 q 112 613 89 533 q 169 763 135 692 q 251 888 204 833 q 356 974 297 943 q 485 1006 415 1006 q 587 986 543 1006 q 660 925 631 967 l 743 1046 l 792 1014 l 693 872 q 717 796 708 839 q 725 703 725 753 q 715 559 725 638 q 683 400 704 481 q 630 246 663 319 q 551 114 597 172 q 444 21 504 56 q 310 -14 385 -14 q 208 6 251 -14 q 135 67 164 26 l 49 -57 m 315 56 q 418 85 372 56 q 500 167 464 115 q 563 283 536 218 q 608 420 590 349 q 635 561 626 492 q 644 689 644 631 q 643 741 646 717 q 633 785 640 765 l 181 135 q 235 75 201 94 q 315 56 269 56 m 614 857 q 560 918 593 899 q 479 938 528 938 q 374 907 421 938 q 290 825 326 876 q 227 708 254 774 q 182 573 200 643 q 155 436 164 503 q 146 315 146 369 q 149 256 146 283 q 158 204 151 228 l 614 857 z "},"Ù":{"ha":721,"x_min":65,"x_max":744,"o":"m 285 -14 q 169 11 218 -14 q 92 85 119 36 q 65 203 65 133 q 69 258 65 228 q 81 322 74 289 l 222 992 l 299 992 l 156 319 q 146 261 149 290 q 143 208 143 232 q 183 94 143 133 q 292 56 222 56 q 403 86 358 56 q 477 177 447 117 q 526 328 507 238 l 669 992 l 744 992 l 600 321 q 540 142 578 217 q 440 26 501 67 q 285 -14 378 -14 m 517 1099 q 473 1162 497 1125 q 427 1238 449 1199 q 393 1307 406 1276 l 393 1319 l 474 1319 q 500 1249 486 1285 q 530 1178 514 1213 q 561 1113 546 1144 l 561 1099 l 517 1099 z "},"Ú":{"ha":721,"x_min":65,"x_max":744,"o":"m 285 -14 q 169 11 218 -14 q 92 85 119 36 q 65 203 65 133 q 69 258 65 228 q 81 322 74 289 l 222 992 l 299 992 l 156 319 q 146 261 149 290 q 143 208 143 232 q 183 94 143 133 q 292 56 222 56 q 403 86 358 56 q 477 177 447 117 q 526 328 507 238 l 669 992 l 744 992 l 600 321 q 540 142 578 217 q 440 26 501 67 q 285 -14 378 -14 m 446 1108 q 508 1179 476 1142 q 565 1253 539 1217 q 610 1318 592 1289 l 697 1318 l 696 1307 q 657 1257 682 1286 q 602 1198 632 1228 q 544 1141 572 1168 q 490 1096 515 1114 l 446 1096 l 446 1108 z "},"Û":{"ha":721,"x_min":65,"x_max":744,"o":"m 285 -14 q 169 11 218 -14 q 92 85 119 36 q 65 203 65 133 q 69 258 65 228 q 81 322 74 289 l 222 992 l 299 992 l 156 319 q 146 261 149 290 q 143 208 143 232 q 183 94 143 133 q 292 56 222 56 q 403 86 358 56 q 477 177 447 117 q 526 328 507 238 l 669 992 l 744 992 l 600 321 q 540 142 578 217 q 440 26 501 67 q 285 -14 378 -14 m 329 1090 q 389 1156 357 1119 q 451 1229 421 1192 q 501 1300 481 1267 l 567 1300 q 590 1231 575 1271 q 624 1153 606 1192 q 654 1090 642 1115 l 653 1078 l 611 1078 q 581 1122 597 1099 q 551 1173 565 1146 q 522 1226 536 1200 q 449 1149 488 1188 q 371 1078 410 1110 l 326 1078 l 329 1090 z "},"Ü":{"ha":721,"x_min":65,"x_max":744,"o":"m 285 -14 q 169 11 218 -14 q 92 85 119 36 q 65 203 65 133 q 69 258 65 228 q 81 322 74 289 l 222 992 l 299 992 l 156 319 q 146 261 149 290 q 143 208 143 232 q 183 94 143 133 q 292 56 222 56 q 403 86 358 56 q 477 177 447 117 q 526 328 507 238 l 669 992 l 744 992 l 600 321 q 540 142 578 217 q 440 26 501 67 q 285 -14 378 -14 m 633 1144 q 605 1156 615 1144 q 594 1186 594 1167 q 608 1237 594 1214 q 650 1260 622 1260 q 678 1249 668 1260 q 688 1218 688 1238 q 672 1167 688 1190 q 633 1144 657 1144 m 425 1144 q 397 1156 407 1144 q 386 1186 386 1167 q 401 1237 386 1214 q 442 1260 415 1260 q 463 1255 454 1260 q 475 1241 471 1250 q 479 1218 479 1232 q 465 1167 479 1190 q 425 1144 450 1144 z "},"Ý":{"ha":521,"x_min":121,"x_max":642,"o":"m 133 0 l 214 381 l 121 992 l 197 992 l 269 478 l 558 992 l 642 992 l 290 382 l 210 0 l 133 0 m 347 1108 q 409 1179 378 1142 q 467 1253 440 1217 q 511 1318 493 1289 l 599 1318 l 597 1307 q 558 1257 583 1286 q 503 1198 533 1228 q 445 1141 474 1168 q 392 1096 417 1114 l 347 1096 l 347 1108 z "},"Þ":{"ha":600,"x_min":19,"x_max":581,"o":"m 19 0 l 231 992 l 306 992 l 268 813 l 342 813 q 475 787 422 813 q 554 712 528 761 q 581 594 581 663 q 556 442 581 510 q 485 327 531 375 q 374 253 439 279 q 226 228 308 228 l 143 228 l 96 0 l 19 0 m 231 296 q 377 331 317 296 q 469 432 438 367 q 501 588 501 497 q 460 704 501 664 q 331 744 419 744 l 254 744 l 158 296 l 231 296 z "},"ß":{"ha":592,"x_min":-190,"x_max":586,"o":"m -122 -333 q -160 -330 -143 -333 q -190 -322 -178 -326 l -190 -254 q -161 -263 -176 -260 q -128 -267 -146 -267 q -56 -228 -81 -267 q -17 -112 -32 -189 l 181 817 q 229 953 199 899 q 307 1035 260 1008 q 419 1063 354 1063 q 542 1020 499 1063 q 586 910 586 978 q 572 826 586 863 q 531 759 557 790 q 471 696 504 728 q 405 622 429 657 q 381 543 381 588 q 390 498 381 521 q 413 453 399 475 q 440 406 426 431 q 489 325 468 369 q 510 221 510 281 q 483 98 510 151 q 406 15 457 44 q 285 -14 356 -14 q 207 -4 242 -14 q 150 19 172 6 l 154 93 q 217 63 183 74 q 285 51 250 51 q 394 96 354 51 q 433 215 433 140 q 426 270 433 244 q 405 321 418 296 q 374 371 392 346 q 324 453 344 413 q 304 536 304 494 q 317 606 304 575 q 351 664 329 636 q 403 718 374 692 q 459 775 435 749 q 497 833 483 801 q 511 904 511 864 q 484 972 511 947 q 413 997 457 997 q 339 976 369 997 q 288 915 308 956 q 254 814 268 875 l 57 -117 q 23 -228 43 -179 q -32 -306 3 -278 q -122 -333 -67 -333 z "},"à":{"ha":622,"x_min":47,"x_max":606,"o":"m 206 -14 q 120 12 156 -14 q 66 88 85 38 q 47 208 47 138 q 60 350 47 275 q 98 497 72 425 q 162 626 124 568 q 251 717 200 683 q 364 751 301 751 q 435 735 407 751 q 482 689 464 718 q 507 622 500 660 l 513 622 l 544 738 l 606 738 l 449 0 l 389 0 l 408 131 l 406 131 q 351 58 381 90 q 285 6 321 25 q 206 -14 249 -14 m 226 51 q 322 92 279 51 q 396 197 364 132 q 446 336 428 263 q 469 449 460 396 q 478 546 478 501 q 449 649 478 611 q 369 686 419 686 q 285 656 324 686 q 216 574 246 625 q 165 461 186 524 q 134 334 144 399 q 124 211 124 269 q 151 91 124 131 q 226 51 178 51 m 417 844 q 373 908 397 871 q 327 983 349 944 q 293 1053 306 1022 l 293 1065 l 374 1065 q 400 994 386 1031 q 430 924 414 958 q 461 858 446 890 l 461 844 l 417 844 z "},"á":{"ha":622,"x_min":47,"x_max":606,"o":"m 206 -14 q 120 12 156 -14 q 66 88 85 38 q 47 208 47 138 q 60 350 47 275 q 98 497 72 425 q 162 626 124 568 q 251 717 200 683 q 364 751 301 751 q 435 735 407 751 q 482 689 464 718 q 507 622 500 660 l 513 622 l 544 738 l 606 738 l 449 0 l 389 0 l 408 131 l 406 131 q 351 58 381 90 q 285 6 321 25 q 206 -14 249 -14 m 226 51 q 322 92 279 51 q 396 197 364 132 q 446 336 428 263 q 469 449 460 396 q 478 546 478 501 q 449 649 478 611 q 369 686 419 686 q 285 656 324 686 q 216 574 246 625 q 165 461 186 524 q 134 334 144 399 q 124 211 124 269 q 151 91 124 131 q 226 51 178 51 m 344 856 q 406 926 375 889 q 464 1000 438 964 q 508 1065 490 1036 l 596 1065 l 594 1054 q 556 1004 581 1033 q 501 945 531 975 q 442 888 471 915 q 389 843 414 861 l 344 843 l 344 856 z "},"â":{"ha":622,"x_min":47,"x_max":606,"o":"m 206 -14 q 120 12 156 -14 q 66 88 85 38 q 47 208 47 138 q 60 350 47 275 q 98 497 72 425 q 162 626 124 568 q 251 717 200 683 q 364 751 301 751 q 435 735 407 751 q 482 689 464 718 q 507 622 500 660 l 513 622 l 544 738 l 606 738 l 449 0 l 389 0 l 408 131 l 406 131 q 351 58 381 90 q 285 6 321 25 q 206 -14 249 -14 m 226 51 q 322 92 279 51 q 396 197 364 132 q 446 336 428 263 q 469 449 460 396 q 478 546 478 501 q 449 649 478 611 q 369 686 419 686 q 285 656 324 686 q 216 574 246 625 q 165 461 186 524 q 134 334 144 399 q 124 211 124 269 q 151 91 124 131 q 226 51 178 51 m 240 854 q 300 919 268 883 q 362 993 332 956 q 413 1064 392 1031 l 478 1064 q 501 995 486 1035 q 535 917 517 956 q 565 854 553 879 l 564 842 l 522 842 q 492 886 508 863 q 462 937 476 910 q 433 990 447 964 q 360 913 399 951 q 282 842 321 874 l 238 842 l 240 854 z "},"ã":{"ha":622,"x_min":47,"x_max":632,"o":"m 206 -14 q 120 12 156 -14 q 66 88 85 38 q 47 208 47 138 q 60 350 47 275 q 98 497 72 425 q 162 626 124 568 q 251 717 200 683 q 364 751 301 751 q 435 735 407 751 q 482 689 464 718 q 507 622 500 660 l 513 622 l 544 738 l 606 738 l 449 0 l 389 0 l 408 131 l 406 131 q 351 58 381 90 q 285 6 321 25 q 206 -14 249 -14 m 226 51 q 322 92 279 51 q 396 197 364 132 q 446 336 428 263 q 469 449 460 396 q 478 546 478 501 q 449 649 478 611 q 369 686 419 686 q 285 656 324 686 q 216 574 246 625 q 165 461 186 524 q 134 334 144 399 q 124 211 124 269 q 151 91 124 131 q 226 51 178 51 m 214 847 q 241 932 224 899 q 284 983 258 965 q 344 1000 310 1000 q 394 987 372 1000 q 435 956 417 974 q 471 926 454 939 q 507 913 488 913 q 551 932 533 913 q 579 1001 568 951 l 632 1001 q 604 915 622 949 q 561 865 586 881 q 504 849 536 849 q 455 862 476 849 q 415 892 433 875 q 379 923 397 910 q 340 936 361 936 q 294 915 311 936 q 265 847 276 893 l 214 847 z "},"ä":{"ha":622,"x_min":47,"x_max":606,"o":"m 206 -14 q 120 12 156 -14 q 66 88 85 38 q 47 208 47 138 q 60 350 47 275 q 98 497 72 425 q 162 626 124 568 q 251 717 200 683 q 364 751 301 751 q 435 735 407 751 q 482 689 464 718 q 507 622 500 660 l 513 622 l 544 738 l 606 738 l 449 0 l 389 0 l 408 131 l 406 131 q 351 58 381 90 q 285 6 321 25 q 206 -14 249 -14 m 226 51 q 322 92 279 51 q 396 197 364 132 q 446 336 428 263 q 469 449 460 396 q 478 546 478 501 q 449 649 478 611 q 369 686 419 686 q 285 656 324 686 q 216 574 246 625 q 165 461 186 524 q 134 334 144 399 q 124 211 124 269 q 151 91 124 131 q 226 51 178 51 m 515 888 q 487 899 497 888 q 476 929 476 910 q 490 980 476 957 q 532 1003 504 1003 q 560 992 550 1003 q 569 961 569 981 q 554 910 569 933 q 515 888 539 888 m 307 888 q 278 899 289 888 q 268 929 268 910 q 283 980 268 957 q 324 1003 297 1003 q 344 998 336 1003 q 357 984 353 993 q 361 961 361 975 q 347 910 361 933 q 307 888 332 888 z "},"å":{"ha":622,"x_min":47,"x_max":606,"o":"m 206 -14 q 120 12 156 -14 q 66 88 85 38 q 47 208 47 138 q 60 350 47 275 q 98 497 72 425 q 162 626 124 568 q 251 717 200 683 q 364 751 301 751 q 435 735 407 751 q 482 689 464 718 q 507 622 500 660 l 513 622 l 544 738 l 606 738 l 449 0 l 389 0 l 408 131 l 406 131 q 351 58 381 90 q 285 6 321 25 q 206 -14 249 -14 m 226 51 q 322 92 279 51 q 396 197 364 132 q 446 336 428 263 q 469 449 460 396 q 478 546 478 501 q 449 649 478 611 q 369 686 419 686 q 285 656 324 686 q 216 574 246 625 q 165 461 186 524 q 134 334 144 399 q 124 211 124 269 q 151 91 124 131 q 226 51 178 51 m 424 847 q 326 883 363 847 q 289 981 289 918 q 326 1076 289 1039 q 424 1113 364 1113 q 522 1076 486 1113 q 558 982 558 1039 q 522 885 558 922 q 424 847 485 847 m 424 896 q 485 919 463 896 q 507 981 507 943 q 485 1040 507 1017 q 424 1064 463 1064 q 363 1040 386 1064 q 340 981 340 1017 q 362 919 340 943 q 424 896 383 896 z "},"æ":{"ha":918,"x_min":46,"x_max":897,"o":"m 199 -14 q 117 12 151 -14 q 65 87 83 38 q 46 207 46 136 q 60 358 46 281 q 101 505 74 435 q 166 631 128 575 q 253 719 204 686 q 361 751 303 751 q 428 735 401 751 q 472 690 456 718 q 496 625 489 661 l 500 625 l 529 738 l 585 738 l 560 622 q 644 715 594 679 q 756 751 693 751 q 858 715 818 751 q 897 606 897 678 q 874 499 897 547 q 803 415 850 450 q 686 360 756 381 q 526 340 617 340 l 508 340 q 501 289 504 317 q 499 232 499 261 q 533 97 499 144 q 643 50 568 50 q 721 63 683 50 q 794 94 758 75 l 790 26 q 717 -3 756 8 q 631 -14 678 -14 q 517 21 563 -14 q 457 126 472 56 l 431 0 l 376 0 l 399 128 l 394 128 q 342 54 371 86 q 278 4 313 22 q 199 -14 243 -14 m 221 51 q 293 74 260 51 q 353 135 326 96 q 400 226 379 175 q 433 335 421 278 q 456 448 449 394 q 464 547 464 501 q 439 649 464 613 q 368 686 414 686 q 285 656 324 686 q 217 577 247 626 q 166 466 188 528 q 133 338 144 404 q 122 211 122 272 q 149 90 122 129 q 221 51 175 51 m 535 403 q 696 428 631 403 q 793 499 761 454 q 825 600 825 544 q 805 664 825 640 q 743 688 785 688 q 651 651 694 688 q 573 551 607 615 q 519 403 539 486 l 535 403 z "},"ç":{"ha":474,"x_min":24,"x_max":506,"o":"m 244 -14 q 138 13 182 -14 q 71 92 93 39 q 49 225 49 146 q 62 368 49 294 q 101 510 75 442 q 167 633 126 579 q 260 719 207 688 q 379 751 313 751 q 447 744 414 751 q 506 725 479 738 l 479 661 q 431 680 457 674 q 379 686 406 686 q 271 644 318 686 q 190 535 224 603 q 140 387 157 467 q 124 231 124 307 q 139 131 124 171 q 183 72 154 92 q 257 51 213 51 q 319 61 289 51 q 381 86 350 71 l 381 19 q 320 -4 354 6 q 244 -14 286 -14 m 103 -333 q 58 -331 78 -333 q 24 -324 39 -328 l 24 -271 q 53 -278 35 -275 q 97 -281 72 -281 q 156 -269 131 -281 q 197 -237 182 -258 q 211 -189 211 -217 q 184 -135 211 -153 q 106 -114 157 -118 l 178 0 l 231 0 l 178 -82 q 248 -116 221 -90 q 275 -186 275 -142 q 253 -263 275 -229 q 192 -315 231 -297 q 103 -333 153 -333 z "},"è":{"ha":550,"x_min":47,"x_max":521,"o":"m 250 -14 q 142 13 188 -14 q 72 92 97 39 q 47 224 47 146 q 72 426 47 331 q 141 594 97 521 q 244 710 185 668 q 372 751 303 751 q 481 715 440 751 q 521 604 521 678 q 497 499 521 547 q 426 416 472 451 q 310 360 379 381 q 149 340 240 340 l 132 340 q 125 289 128 317 q 122 232 122 261 q 158 95 122 140 q 265 50 194 50 q 342 62 307 50 q 414 93 378 74 l 414 26 q 341 -3 382 8 q 250 -14 300 -14 m 158 403 q 319 428 254 403 q 416 499 383 454 q 449 601 449 543 q 428 664 449 640 q 364 688 407 688 q 274 651 318 688 q 196 551 231 615 q 143 403 161 486 l 158 403 m 382 842 q 338 905 363 868 q 292 981 314 942 q 258 1050 271 1019 l 258 1063 l 339 1063 q 365 992 351 1028 q 395 922 379 956 q 426 856 411 888 l 426 842 l 382 842 z "},"é":{"ha":550,"x_min":47,"x_max":561,"o":"m 250 -14 q 142 13 188 -14 q 72 92 97 39 q 47 224 47 146 q 72 426 47 331 q 141 594 97 521 q 244 710 185 668 q 372 751 303 751 q 481 715 440 751 q 521 604 521 678 q 497 499 521 547 q 426 416 472 451 q 310 360 379 381 q 149 340 240 340 l 132 340 q 125 289 128 317 q 122 232 122 261 q 158 95 122 140 q 265 50 194 50 q 342 62 307 50 q 414 93 378 74 l 414 26 q 341 -3 382 8 q 250 -14 300 -14 m 158 403 q 319 428 254 403 q 416 499 383 454 q 449 601 449 543 q 428 664 449 640 q 364 688 407 688 q 274 651 318 688 q 196 551 231 615 q 143 403 161 486 l 158 403 m 311 851 q 373 922 342 885 q 431 996 404 960 q 475 1061 457 1032 l 563 1061 l 561 1050 q 522 1000 547 1029 q 467 941 497 971 q 409 884 438 911 q 356 839 381 857 l 311 839 l 311 851 z "},"ê":{"ha":550,"x_min":47,"x_max":543,"o":"m 250 -14 q 142 13 188 -14 q 72 92 97 39 q 47 224 47 146 q 72 426 47 331 q 141 594 97 521 q 244 710 185 668 q 372 751 303 751 q 481 715 440 751 q 521 604 521 678 q 497 499 521 547 q 426 416 472 451 q 310 360 379 381 q 149 340 240 340 l 132 340 q 125 289 128 317 q 122 232 122 261 q 158 95 122 140 q 265 50 194 50 q 342 62 307 50 q 414 93 378 74 l 414 26 q 341 -3 382 8 q 250 -14 300 -14 m 158 403 q 319 428 254 403 q 416 499 383 454 q 449 601 449 543 q 428 664 449 640 q 364 688 407 688 q 274 651 318 688 q 196 551 231 615 q 143 403 161 486 l 158 403 m 218 854 q 278 919 246 883 q 340 993 310 956 q 390 1064 369 1031 l 456 1064 q 479 995 464 1035 q 513 917 494 956 q 543 854 531 879 l 542 842 l 500 842 q 470 886 486 863 q 440 937 454 910 q 411 990 425 964 q 338 913 376 951 q 260 842 299 874 l 215 842 l 218 854 z "},"ë":{"ha":550,"x_min":47,"x_max":549,"o":"m 250 -14 q 142 13 188 -14 q 72 92 97 39 q 47 224 47 146 q 72 426 47 331 q 141 594 97 521 q 244 710 185 668 q 372 751 303 751 q 481 715 440 751 q 521 604 521 678 q 497 499 521 547 q 426 416 472 451 q 310 360 379 381 q 149 340 240 340 l 132 340 q 125 289 128 317 q 122 232 122 261 q 158 95 122 140 q 265 50 194 50 q 342 62 307 50 q 414 93 378 74 l 414 26 q 341 -3 382 8 q 250 -14 300 -14 m 158 403 q 319 428 254 403 q 416 499 383 454 q 449 601 449 543 q 428 664 449 640 q 364 688 407 688 q 274 651 318 688 q 196 551 231 615 q 143 403 161 486 l 158 403 m 494 888 q 466 899 476 888 q 456 929 456 910 q 469 980 456 957 q 511 1003 483 1003 q 539 992 529 1003 q 549 961 549 981 q 533 910 549 933 q 494 888 518 888 m 286 888 q 258 899 268 888 q 247 929 247 910 q 262 980 247 957 q 303 1003 276 1003 q 324 998 315 1003 q 336 984 332 993 q 340 961 340 975 q 326 910 340 933 q 286 888 311 888 z "},"ì":{"ha":265,"x_min":15,"x_max":281,"o":"m 15 0 l 172 738 l 246 738 l 89 0 l 15 0 m 235 844 q 191 908 215 871 q 145 983 167 944 q 111 1053 124 1022 l 111 1065 l 192 1065 q 218 994 204 1031 q 248 924 232 958 q 279 858 264 890 l 279 844 l 235 844 z "},"í":{"ha":265,"x_min":15,"x_max":414,"o":"m 15 0 l 172 738 l 246 738 l 89 0 l 15 0 m 164 856 q 226 926 194 889 q 283 1000 257 964 q 328 1065 310 1036 l 415 1065 l 414 1054 q 375 1004 400 1033 q 320 945 350 975 q 262 888 290 915 q 208 843 233 861 l 164 843 l 164 856 z "},"î":{"ha":265,"x_min":15,"x_max":385,"o":"m 15 0 l 172 738 l 246 738 l 89 0 l 15 0 m 60 854 q 119 919 88 883 q 181 993 151 956 q 232 1064 211 1031 l 297 1064 q 321 995 306 1035 q 354 917 336 956 q 385 854 372 879 l 383 842 l 342 842 q 312 886 328 863 q 281 937 296 910 q 253 990 267 964 q 179 913 218 951 q 101 842 140 874 l 57 842 l 60 854 z "},"ï":{"ha":265,"x_min":15,"x_max":388,"o":"m 15 0 l 172 738 l 246 738 l 89 0 l 15 0 m 333 888 q 305 899 315 888 q 294 929 294 910 q 308 980 294 957 q 350 1003 322 1003 q 378 992 368 1003 q 388 961 388 981 q 372 910 388 933 q 333 888 357 888 m 125 888 q 97 899 107 888 q 86 929 86 910 q 101 980 86 957 q 142 1003 115 1003 q 163 998 154 1003 q 175 984 171 993 q 179 961 179 975 q 165 910 179 933 q 125 888 150 888 z "},"ð":{"ha":603,"x_min":28,"x_max":592,"o":"m 221 -14 q 117 13 160 -14 q 51 92 74 40 q 28 215 28 144 q 47 365 28 289 q 104 506 67 442 q 198 610 142 569 q 328 650 254 650 q 429 612 394 650 q 475 524 464 574 l 478 524 q 455 724 478 631 q 379 886 432 817 l 217 794 l 192 840 l 347 929 q 303 973 332 950 q 240 1017 274 996 l 279 1065 q 344 1020 313 1046 q 406 963 376 994 l 564 1053 l 592 1008 l 439 922 q 497 815 472 874 q 533 690 521 757 q 546 549 546 624 q 535 405 546 482 q 503 254 525 328 q 443 119 481 181 q 351 22 406 58 q 221 -14 296 -14 m 226 51 q 308 75 271 51 q 372 138 344 99 q 417 226 399 178 q 445 324 436 274 q 454 417 454 374 q 447 482 454 451 q 424 535 439 513 q 385 572 408 558 q 329 585 361 585 q 231 551 274 585 q 160 464 189 518 q 117 345 132 410 q 103 218 103 281 q 135 94 103 136 q 226 51 168 51 z "},"ñ":{"ha":610,"x_min":14,"x_max":621,"o":"m 14 0 l 171 739 l 232 739 l 213 617 l 215 617 q 265 685 236 654 q 332 734 294 715 q 414 753 369 753 q 490 737 458 753 q 540 689 522 721 q 557 608 557 657 q 551 540 557 579 q 538 467 544 501 l 438 0 l 363 0 l 461 468 q 475 536 469 503 q 481 597 481 569 q 458 662 481 640 q 393 683 436 683 q 300 649 343 683 q 224 549 257 615 q 171 385 192 482 l 90 0 l 14 0 m 201 847 q 228 932 211 899 q 272 983 246 965 q 332 1000 297 1000 q 382 987 360 1000 q 423 956 404 974 q 458 926 442 939 q 494 913 475 913 q 538 932 521 913 q 567 1001 556 951 l 619 1001 q 592 915 610 949 q 549 865 574 881 q 492 849 524 849 q 442 862 464 849 q 403 892 421 875 q 367 923 385 910 q 328 936 349 936 q 281 915 299 936 q 253 847 264 893 l 201 847 z "},"ò":{"ha":607,"x_min":47,"x_max":560,"o":"m 239 -14 q 135 13 179 -14 q 69 93 92 40 q 47 222 47 146 q 59 353 47 282 q 96 495 71 425 q 159 624 121 565 q 251 717 197 682 q 371 751 304 751 q 474 724 432 751 q 538 644 515 696 q 560 515 560 592 q 547 373 560 446 q 509 231 535 300 q 445 106 483 161 q 356 19 407 51 q 239 -14 304 -14 m 244 53 q 328 81 290 53 q 396 159 367 110 q 444 269 425 208 q 474 394 464 329 q 485 518 485 458 q 472 608 485 569 q 433 666 458 646 q 365 686 407 686 q 279 656 318 686 q 211 574 240 625 q 163 460 182 522 q 133 336 143 399 q 122 221 122 274 q 153 96 122 139 q 244 53 185 53 m 401 842 q 358 905 382 868 q 312 981 333 942 q 278 1050 290 1019 l 278 1063 l 358 1063 q 385 992 371 1028 q 415 922 399 956 q 446 856 431 888 l 446 842 l 401 842 z "},"ó":{"ha":607,"x_min":47,"x_max":582,"o":"m 239 -14 q 135 13 179 -14 q 69 93 92 40 q 47 222 47 146 q 59 353 47 282 q 96 495 71 425 q 159 624 121 565 q 251 717 197 682 q 371 751 304 751 q 474 724 432 751 q 538 644 515 696 q 560 515 560 592 q 547 373 560 446 q 509 231 535 300 q 445 106 483 161 q 356 19 407 51 q 239 -14 304 -14 m 244 53 q 328 81 290 53 q 396 159 367 110 q 444 269 425 208 q 474 394 464 329 q 485 518 485 458 q 472 608 485 569 q 433 666 458 646 q 365 686 407 686 q 279 656 318 686 q 211 574 240 625 q 163 460 182 522 q 133 336 143 399 q 122 221 122 274 q 153 96 122 139 q 244 53 185 53 m 332 851 q 394 922 363 885 q 451 996 425 960 q 496 1061 478 1032 l 583 1061 l 582 1050 q 543 1000 568 1029 q 488 941 518 971 q 430 884 458 911 q 376 839 401 857 l 332 839 l 332 851 z "},"ô":{"ha":607,"x_min":47,"x_max":560,"o":"m 239 -14 q 135 13 179 -14 q 69 93 92 40 q 47 222 47 146 q 59 353 47 282 q 96 495 71 425 q 159 624 121 565 q 251 717 197 682 q 371 751 304 751 q 474 724 432 751 q 538 644 515 696 q 560 515 560 592 q 547 373 560 446 q 509 231 535 300 q 445 106 483 161 q 356 19 407 51 q 239 -14 304 -14 m 244 53 q 328 81 290 53 q 396 159 367 110 q 444 269 425 208 q 474 394 464 329 q 485 518 485 458 q 472 608 485 569 q 433 666 458 646 q 365 686 407 686 q 279 656 318 686 q 211 574 240 625 q 163 460 182 522 q 133 336 143 399 q 122 221 122 274 q 153 96 122 139 q 244 53 185 53 m 224 854 q 283 919 251 883 q 345 993 315 956 q 396 1064 375 1031 l 461 1064 q 485 995 469 1035 q 518 917 500 956 q 549 854 536 879 l 547 842 l 506 842 q 476 886 492 863 q 445 937 460 910 q 417 990 431 964 q 343 913 382 951 q 265 842 304 874 l 221 842 l 224 854 z "},"õ":{"ha":607,"x_min":47,"x_max":608,"o":"m 239 -14 q 135 13 179 -14 q 69 93 92 40 q 47 222 47 146 q 59 353 47 282 q 96 495 71 425 q 159 624 121 565 q 251 717 197 682 q 371 751 304 751 q 474 724 432 751 q 538 644 515 696 q 560 515 560 592 q 547 373 560 446 q 509 231 535 300 q 445 106 483 161 q 356 19 407 51 q 239 -14 304 -14 m 244 53 q 328 81 290 53 q 396 159 367 110 q 444 269 425 208 q 474 394 464 329 q 485 518 485 458 q 472 608 485 569 q 433 666 458 646 q 365 686 407 686 q 279 656 318 686 q 211 574 240 625 q 163 460 182 522 q 133 336 143 399 q 122 221 122 274 q 153 96 122 139 q 244 53 185 53 m 190 847 q 217 932 200 899 q 260 983 235 965 q 321 1000 286 1000 q 371 987 349 1000 q 412 956 393 974 q 447 926 431 939 q 483 913 464 913 q 527 932 510 913 q 556 1001 544 951 l 608 1001 q 581 915 599 949 q 538 865 563 881 q 481 849 513 849 q 431 862 453 849 q 392 892 410 875 q 356 923 374 910 q 317 936 338 936 q 270 915 288 936 q 242 847 253 893 l 190 847 z "},"ö":{"ha":607,"x_min":47,"x_max":560,"o":"m 239 -14 q 135 13 179 -14 q 69 93 92 40 q 47 222 47 146 q 59 353 47 282 q 96 495 71 425 q 159 624 121 565 q 251 717 197 682 q 371 751 304 751 q 474 724 432 751 q 538 644 515 696 q 560 515 560 592 q 547 373 560 446 q 509 231 535 300 q 445 106 483 161 q 356 19 407 51 q 239 -14 304 -14 m 244 53 q 328 81 290 53 q 396 159 367 110 q 444 269 425 208 q 474 394 464 329 q 485 518 485 458 q 472 608 485 569 q 433 666 458 646 q 365 686 407 686 q 279 656 318 686 q 211 574 240 625 q 163 460 182 522 q 133 336 143 399 q 122 221 122 274 q 153 96 122 139 q 244 53 185 53 m 500 888 q 472 899 482 888 q 461 929 461 910 q 475 980 461 957 q 517 1003 489 1003 q 544 992 535 1003 q 554 961 554 981 q 539 910 554 933 q 500 888 524 888 m 292 888 q 263 899 274 888 q 253 929 253 910 q 267 980 253 957 q 308 1003 282 1003 q 329 998 321 1003 q 342 984 338 993 q 346 961 346 975 q 331 910 346 933 q 292 888 317 888 z "},"÷":{"ha":640,"x_min":64,"x_max":601,"o":"m 64 457 l 64 522 l 601 522 l 601 457 l 64 457 m 333 178 q 292 195 306 178 q 279 243 279 213 q 293 294 279 276 q 333 311 307 311 q 374 294 361 311 q 386 244 386 276 q 373 195 386 213 q 333 178 360 178 m 333 668 q 292 686 306 668 q 279 735 279 704 q 292 784 279 767 q 333 801 306 801 q 374 784 361 801 q 386 735 386 767 q 373 685 386 703 q 333 668 360 668 z "},"ø":{"ha":610,"x_min":-1,"x_max":611,"o":"m 44 -74 l -1 -43 l 78 76 q 56 140 64 104 q 47 222 47 176 q 59 352 47 281 q 96 494 71 424 q 159 622 121 564 q 250 716 197 681 q 371 751 303 751 q 442 739 411 751 q 497 701 474 726 l 565 804 l 611 774 l 532 657 q 553 594 546 629 q 560 517 560 558 q 548 379 560 451 q 511 238 536 307 q 448 111 486 168 q 358 20 410 54 q 239 -14 306 -14 q 169 -2 200 -14 q 114 32 138 10 l 44 -74 m 244 50 q 328 78 290 50 q 394 152 365 106 q 443 258 422 199 q 474 379 464 317 q 486 500 485 442 q 484 543 486 524 q 478 578 482 563 l 154 93 q 193 61 169 72 q 244 50 217 50 m 457 642 q 420 676 443 664 q 365 688 397 688 q 281 658 319 688 q 214 580 243 629 q 164 471 185 531 q 133 349 143 411 q 121 232 122 288 q 124 188 121 208 q 132 153 126 168 l 457 642 z "},"ù":{"ha":611,"x_min":47,"x_max":589,"o":"m 190 -14 q 114 3 146 -14 q 65 51 82 19 q 47 131 47 83 q 53 195 47 158 q 67 267 60 232 l 167 738 l 242 738 l 140 264 q 128 200 133 231 q 124 142 124 169 q 146 76 124 99 q 210 53 168 53 q 306 88 263 53 q 381 190 349 122 q 433 353 414 257 l 515 738 l 589 738 l 433 0 l 374 0 l 392 121 l 388 121 q 338 53 367 83 q 271 4 308 22 q 190 -14 233 -14 m 408 842 q 365 905 389 868 q 319 981 340 942 q 285 1050 297 1019 l 285 1063 l 365 1063 q 392 992 378 1028 q 422 922 406 956 q 453 856 438 888 l 453 842 l 408 842 z "},"ú":{"ha":611,"x_min":47,"x_max":589,"o":"m 190 -14 q 114 3 146 -14 q 65 51 82 19 q 47 131 47 83 q 53 195 47 158 q 67 267 60 232 l 167 738 l 242 738 l 140 264 q 128 200 133 231 q 124 142 124 169 q 146 76 124 99 q 210 53 168 53 q 306 88 263 53 q 381 190 349 122 q 433 353 414 257 l 515 738 l 589 738 l 433 0 l 374 0 l 392 121 l 388 121 q 338 53 367 83 q 271 4 308 22 q 190 -14 233 -14 m 336 851 q 398 922 367 885 q 456 996 429 960 q 500 1061 482 1032 l 588 1061 l 586 1050 q 547 1000 572 1029 q 492 941 522 971 q 434 884 463 911 q 381 839 406 857 l 336 839 l 336 851 z "},"û":{"ha":611,"x_min":47,"x_max":589,"o":"m 190 -14 q 114 3 146 -14 q 65 51 82 19 q 47 131 47 83 q 53 195 47 158 q 67 267 60 232 l 167 738 l 242 738 l 140 264 q 128 200 133 231 q 124 142 124 169 q 146 76 124 99 q 210 53 168 53 q 306 88 263 53 q 381 190 349 122 q 433 353 414 257 l 515 738 l 589 738 l 433 0 l 374 0 l 392 121 l 388 121 q 338 53 367 83 q 271 4 308 22 q 190 -14 233 -14 m 232 854 q 292 919 260 883 q 353 993 324 956 q 404 1064 383 1031 l 469 1064 q 493 995 478 1035 q 526 917 508 956 q 557 854 544 879 l 556 842 l 514 842 q 484 886 500 863 q 453 937 468 910 q 425 990 439 964 q 351 913 390 951 q 274 842 313 874 l 229 842 l 232 854 z "},"ü":{"ha":611,"x_min":47,"x_max":589,"o":"m 190 -14 q 114 3 146 -14 q 65 51 82 19 q 47 131 47 83 q 53 195 47 158 q 67 267 60 232 l 167 738 l 242 738 l 140 264 q 128 200 133 231 q 124 142 124 169 q 146 76 124 99 q 210 53 168 53 q 306 88 263 53 q 381 190 349 122 q 433 353 414 257 l 515 738 l 589 738 l 433 0 l 374 0 l 392 121 l 388 121 q 338 53 367 83 q 271 4 308 22 q 190 -14 233 -14 m 500 888 q 472 899 482 888 q 461 929 461 910 q 475 980 461 957 q 517 1003 489 1003 q 544 992 535 1003 q 554 961 554 981 q 539 910 554 933 q 500 888 524 888 m 292 888 q 263 899 274 888 q 253 929 253 910 q 267 980 253 957 q 308 1003 282 1003 q 329 998 321 1003 q 342 984 338 993 q 346 961 346 975 q 331 910 346 933 q 292 888 317 888 z "},"ý":{"ha":490,"x_min":-144,"x_max":561,"o":"m -72 -336 q -115 -332 -97 -336 q -144 -322 -132 -328 l -137 -256 q -108 -266 -124 -262 q -74 -269 -93 -269 q 4 -236 -28 -269 q 68 -135 36 -203 l 135 7 l 90 738 l 165 738 l 186 276 q 190 219 189 249 q 191 160 190 189 q 190 107 192 132 l 194 107 q 215 158 204 131 q 239 215 226 186 q 263 265 251 243 l 483 738 l 561 738 l 138 -154 q 79 -254 108 -214 q 14 -315 50 -294 q -72 -336 -22 -336 m 271 851 q 333 922 301 885 q 390 996 364 960 q 435 1061 417 1032 l 522 1061 l 521 1050 q 482 1000 507 1029 q 427 941 457 971 q 369 884 397 911 q 315 839 340 857 l 271 839 l 271 851 z "},"þ":{"ha":624,"x_min":-51,"x_max":578,"o":"m -51 -322 l 239 1056 l 313 1056 l 240 715 q 227 660 233 686 q 215 611 221 633 l 219 611 q 273 683 243 651 q 339 733 303 715 q 418 751 375 751 q 536 694 494 751 q 578 531 578 638 q 565 388 578 463 q 527 242 553 313 q 463 113 501 171 q 374 21 425 56 q 260 -14 324 -14 q 189 3 219 -14 q 140 48 158 19 q 113 111 121 76 l 110 111 q 99 46 106 82 q 86 -21 92 10 l 22 -322 l -51 -322 m 256 51 q 342 83 303 51 q 412 166 382 114 q 462 281 442 218 q 492 408 482 344 q 503 528 503 472 q 475 648 503 608 q 397 688 447 688 q 303 648 346 688 q 227 544 260 608 q 175 406 194 481 q 157 325 164 365 q 147 251 150 285 q 144 192 144 217 q 173 88 144 125 q 256 51 201 51 z "},"ÿ":{"ha":490,"x_min":-144,"x_max":561,"o":"m -72 -336 q -115 -332 -97 -336 q -144 -322 -132 -328 l -137 -256 q -108 -266 -124 -262 q -74 -269 -93 -269 q 4 -236 -28 -269 q 68 -135 36 -203 l 135 7 l 90 738 l 165 738 l 186 276 q 190 219 189 249 q 191 160 190 189 q 190 107 192 132 l 194 107 q 215 158 204 131 q 239 215 226 186 q 263 265 251 243 l 483 738 l 561 738 l 138 -154 q 79 -254 108 -214 q 14 -315 50 -294 q -72 -336 -22 -336 m 424 888 q 395 899 406 888 q 385 929 385 910 q 399 980 385 957 q 440 1003 413 1003 q 468 992 458 1003 q 478 961 478 981 q 463 910 478 933 q 424 888 447 888 m 215 888 q 187 899 197 888 q 176 929 176 910 q 191 980 176 957 q 232 1003 206 1003 q 253 998 244 1003 q 265 984 261 993 q 269 961 269 975 q 255 910 269 933 q 215 888 240 888 z "},"Ā":{"ha":586,"x_min":-87,"x_max":597,"o":"m -87 0 l 369 994 l 460 994 l 500 0 l 424 0 l 411 351 l 154 351 l -4 0 l -87 0 m 185 421 l 408 421 l 400 781 q 398 848 399 814 q 397 910 397 882 l 394 910 q 371 849 385 882 q 340 779 357 817 l 185 421 m 258 1103 l 269 1164 l 597 1164 l 583 1103 l 258 1103 z "},"ā":{"ha":622,"x_min":47,"x_max":606,"o":"m 206 -14 q 120 12 156 -14 q 66 88 85 38 q 47 208 47 138 q 60 350 47 275 q 98 497 72 425 q 162 626 124 568 q 251 717 200 683 q 364 751 301 751 q 435 735 407 751 q 482 689 464 718 q 507 622 500 660 l 513 622 l 544 738 l 606 738 l 449 0 l 389 0 l 408 131 l 406 131 q 351 58 381 90 q 285 6 321 25 q 206 -14 249 -14 m 226 51 q 322 92 279 51 q 396 197 364 132 q 446 336 428 263 q 469 449 460 396 q 478 546 478 501 q 449 649 478 611 q 369 686 419 686 q 285 656 324 686 q 216 574 246 625 q 165 461 186 524 q 134 334 144 399 q 124 211 124 269 q 151 91 124 131 q 226 51 178 51 m 242 849 l 253 910 l 581 910 l 567 849 l 242 849 z "},"Ă":{"ha":586,"x_min":-87,"x_max":607,"o":"m -87 0 l 369 994 l 460 994 l 500 0 l 424 0 l 411 351 l 154 351 l -4 0 l -87 0 m 185 421 l 408 421 l 400 781 q 398 848 399 814 q 397 910 397 882 l 394 910 q 371 849 385 882 q 340 779 357 817 l 185 421 m 429 1097 q 350 1114 381 1097 q 304 1160 319 1131 q 289 1229 289 1190 q 290 1247 289 1239 q 292 1263 290 1256 l 342 1263 q 349 1207 342 1231 q 377 1171 357 1183 q 432 1158 397 1158 q 514 1183 486 1158 q 554 1263 542 1208 l 606 1263 q 547 1139 590 1181 q 429 1097 504 1097 z "},"ă":{"ha":622,"x_min":47,"x_max":606,"o":"m 206 -14 q 120 12 156 -14 q 66 88 85 38 q 47 208 47 138 q 60 350 47 275 q 98 497 72 425 q 162 626 124 568 q 251 717 200 683 q 364 751 301 751 q 435 735 407 751 q 482 689 464 718 q 507 622 500 660 l 513 622 l 544 738 l 606 738 l 449 0 l 389 0 l 408 131 l 406 131 q 351 58 381 90 q 285 6 321 25 q 206 -14 249 -14 m 226 51 q 322 92 279 51 q 396 197 364 132 q 446 336 428 263 q 469 449 460 396 q 478 546 478 501 q 449 649 478 611 q 369 686 419 686 q 285 656 324 686 q 216 574 246 625 q 165 461 186 524 q 134 334 144 399 q 124 211 124 269 q 151 91 124 131 q 226 51 178 51 m 414 843 q 335 860 365 843 q 289 906 304 876 q 274 975 274 936 q 274 993 274 985 q 276 1008 275 1001 l 326 1008 q 334 953 326 976 q 362 917 342 929 q 417 904 382 904 q 499 929 471 904 q 539 1008 526 954 l 590 1008 q 532 885 575 926 q 414 843 489 843 z "},"Ą":{"ha":586,"x_min":-87,"x_max":500,"o":"m -87 0 l 369 994 l 460 994 l 500 0 l 424 0 l 411 351 l 154 351 l -4 0 l -87 0 m 185 421 l 408 421 l 400 781 q 398 848 399 814 q 397 910 397 882 l 394 910 q 371 849 385 882 q 340 779 357 817 l 185 421 m 388 -304 q 312 -277 339 -304 q 285 -207 285 -250 q 301 -133 285 -167 q 350 -65 317 -99 q 432 3 383 -32 l 486 0 q 415 -66 444 -35 q 369 -128 385 -97 q 353 -193 353 -158 q 367 -233 353 -219 q 407 -247 381 -247 q 434 -244 421 -247 q 460 -239 447 -242 l 453 -293 q 423 -301 439 -297 q 388 -304 407 -304 z "},"ą":{"ha":622,"x_min":47,"x_max":606,"o":"m 206 -14 q 120 12 156 -14 q 66 88 85 38 q 47 208 47 138 q 60 350 47 275 q 98 497 72 425 q 162 626 124 568 q 251 717 200 683 q 364 751 301 751 q 435 735 407 751 q 482 689 464 718 q 507 622 500 660 l 513 622 l 544 738 l 606 738 l 449 0 l 389 0 l 408 131 l 406 131 q 351 58 381 90 q 285 6 321 25 q 206 -14 249 -14 m 226 51 q 322 92 279 51 q 396 197 364 132 q 446 336 428 263 q 469 449 460 396 q 478 546 478 501 q 449 649 478 611 q 369 686 419 686 q 285 656 324 686 q 216 574 246 625 q 165 461 186 524 q 134 334 144 399 q 124 211 124 269 q 151 91 124 131 q 226 51 178 51 m 346 -304 q 270 -277 297 -304 q 243 -207 243 -250 q 259 -133 243 -167 q 308 -65 275 -99 q 390 3 342 -32 l 444 0 q 373 -66 403 -35 q 327 -128 343 -97 q 311 -193 311 -158 q 325 -233 311 -219 q 365 -247 339 -247 q 392 -244 379 -247 q 418 -239 406 -242 l 411 -293 q 381 -301 397 -297 q 346 -304 365 -304 z "},"Ć":{"ha":597,"x_min":68,"x_max":689,"o":"m 319 -14 q 183 24 239 -14 q 97 138 126 63 q 68 326 68 214 q 86 505 68 411 q 141 688 104 599 q 233 849 178 776 q 360 964 288 921 q 524 1007 432 1007 q 616 995 575 1007 q 689 961 657 983 l 651 899 q 592 928 625 918 q 522 938 560 938 q 388 898 447 938 q 284 793 329 858 q 208 648 239 728 q 163 485 178 568 q 147 331 147 403 q 194 124 147 192 q 333 56 242 56 q 408 64 371 56 q 483 86 446 72 l 483 17 q 406 -6 446 1 q 319 -14 365 -14 m 413 1108 q 474 1179 443 1142 q 532 1253 506 1217 q 576 1318 558 1289 l 664 1318 l 663 1307 q 624 1257 649 1286 q 569 1198 599 1228 q 510 1141 539 1168 q 457 1096 482 1114 l 413 1096 l 413 1108 z "},"ć":{"ha":474,"x_min":49,"x_max":529,"o":"m 244 -14 q 138 13 182 -14 q 71 92 93 39 q 49 225 49 146 q 62 368 49 294 q 101 510 75 442 q 167 633 126 579 q 260 719 207 688 q 379 751 313 751 q 447 744 414 751 q 506 725 479 738 l 479 661 q 431 680 457 674 q 379 686 406 686 q 271 644 318 686 q 190 535 224 603 q 140 387 157 467 q 124 231 124 307 q 139 131 124 171 q 183 72 154 92 q 257 51 213 51 q 319 61 289 51 q 381 86 350 71 l 381 19 q 320 -4 354 6 q 244 -14 286 -14 m 279 856 q 341 926 310 889 q 399 1000 372 964 q 443 1065 425 1036 l 531 1065 l 529 1054 q 490 1004 515 1033 q 435 945 465 975 q 377 888 406 915 q 324 843 349 861 l 279 843 l 279 856 z "},"Ĉ":{"ha":597,"x_min":68,"x_max":689,"o":"m 319 -14 q 183 24 239 -14 q 97 138 126 63 q 68 326 68 214 q 86 505 68 411 q 141 688 104 599 q 233 849 178 776 q 360 964 288 921 q 524 1007 432 1007 q 616 995 575 1007 q 689 961 657 983 l 651 899 q 592 928 625 918 q 522 938 560 938 q 388 898 447 938 q 284 793 329 858 q 208 648 239 728 q 163 485 178 568 q 147 331 147 403 q 194 124 147 192 q 333 56 242 56 q 408 64 371 56 q 483 86 446 72 l 483 17 q 406 -6 446 1 q 319 -14 365 -14 m 347 1090 q 407 1156 375 1119 q 469 1229 439 1192 q 519 1300 499 1267 l 585 1300 q 608 1231 593 1271 q 642 1153 624 1192 q 672 1090 660 1115 l 671 1078 l 629 1078 q 599 1122 615 1099 q 569 1173 583 1146 q 540 1226 554 1200 q 467 1149 506 1188 q 389 1078 428 1110 l 344 1078 l 347 1090 z "},"ĉ":{"ha":474,"x_min":49,"x_max":525,"o":"m 244 -14 q 138 13 182 -14 q 71 92 93 39 q 49 225 49 146 q 62 368 49 294 q 101 510 75 442 q 167 633 126 579 q 260 719 207 688 q 379 751 313 751 q 447 744 414 751 q 506 725 479 738 l 479 661 q 431 680 457 674 q 379 686 406 686 q 271 644 318 686 q 190 535 224 603 q 140 387 157 467 q 124 231 124 307 q 139 131 124 171 q 183 72 154 92 q 257 51 213 51 q 319 61 289 51 q 381 86 350 71 l 381 19 q 320 -4 354 6 q 244 -14 286 -14 m 200 854 q 260 919 228 883 q 322 993 292 956 q 372 1064 351 1031 l 438 1064 q 461 995 446 1035 q 494 917 476 956 q 525 854 513 879 l 524 842 l 482 842 q 452 886 468 863 q 422 937 436 910 q 393 990 407 964 q 319 913 358 951 q 242 842 281 874 l 197 842 l 200 854 z "},"Ċ":{"ha":597,"x_min":68,"x_max":689,"o":"m 319 -14 q 183 24 239 -14 q 97 138 126 63 q 68 326 68 214 q 86 505 68 411 q 141 688 104 599 q 233 849 178 776 q 360 964 288 921 q 524 1007 432 1007 q 616 995 575 1007 q 689 961 657 983 l 651 899 q 592 928 625 918 q 522 938 560 938 q 388 898 447 938 q 284 793 329 858 q 208 648 239 728 q 163 485 178 568 q 147 331 147 403 q 194 124 147 192 q 333 56 242 56 q 408 64 371 56 q 483 86 446 72 l 483 17 q 406 -6 446 1 q 319 -14 365 -14 m 553 1126 q 522 1139 533 1126 q 511 1172 511 1151 q 526 1225 511 1200 q 571 1250 542 1250 q 594 1244 585 1250 q 608 1229 603 1239 q 613 1204 613 1219 q 597 1151 613 1175 q 553 1126 581 1126 z "},"ċ":{"ha":474,"x_min":49,"x_max":506,"o":"m 244 -14 q 138 13 182 -14 q 71 92 93 39 q 49 225 49 146 q 62 368 49 294 q 101 510 75 442 q 167 633 126 579 q 260 719 207 688 q 379 751 313 751 q 447 744 414 751 q 506 725 479 738 l 479 661 q 431 680 457 674 q 379 686 406 686 q 271 644 318 686 q 190 535 224 603 q 140 387 157 467 q 124 231 124 307 q 139 131 124 171 q 183 72 154 92 q 257 51 213 51 q 319 61 289 51 q 381 86 350 71 l 381 19 q 320 -4 354 6 q 244 -14 286 -14 m 404 885 q 374 897 385 885 q 363 931 363 910 q 378 983 363 958 q 422 1008 393 1008 q 445 1003 436 1008 q 459 988 454 997 q 464 963 464 978 q 448 909 464 933 q 404 885 432 885 z "},"Č":{"ha":597,"x_min":68,"x_max":736,"o":"m 319 -14 q 183 24 239 -14 q 97 138 126 63 q 68 326 68 214 q 86 505 68 411 q 141 688 104 599 q 233 849 178 776 q 360 964 288 921 q 524 1007 432 1007 q 616 995 575 1007 q 689 961 657 983 l 651 899 q 592 928 625 918 q 522 938 560 938 q 388 898 447 938 q 284 793 329 858 q 208 648 239 728 q 163 485 178 568 q 147 331 147 403 q 194 124 147 192 q 333 56 242 56 q 408 64 371 56 q 483 86 446 72 l 483 17 q 406 -6 446 1 q 319 -14 365 -14 m 494 1078 q 472 1146 488 1106 q 438 1224 456 1186 q 407 1286 421 1263 l 410 1300 l 450 1300 q 479 1258 464 1282 q 510 1206 494 1233 q 539 1150 525 1179 q 613 1229 574 1190 q 692 1300 653 1268 l 735 1300 l 733 1286 q 676 1225 710 1263 q 610 1148 642 1188 q 561 1078 579 1108 l 494 1078 z "},"č":{"ha":474,"x_min":49,"x_max":588,"o":"m 244 -14 q 138 13 182 -14 q 71 92 93 39 q 49 225 49 146 q 62 368 49 294 q 101 510 75 442 q 167 633 126 579 q 260 719 207 688 q 379 751 313 751 q 447 744 414 751 q 506 725 479 738 l 479 661 q 431 680 457 674 q 379 686 406 686 q 271 644 318 686 q 190 535 224 603 q 140 387 157 467 q 124 231 124 307 q 139 131 124 171 q 183 72 154 92 q 257 51 213 51 q 319 61 289 51 q 381 86 350 71 l 381 19 q 320 -4 354 6 q 244 -14 286 -14 m 347 842 q 324 910 340 869 q 291 988 308 950 q 260 1050 274 1026 l 263 1064 l 303 1064 q 332 1022 317 1046 q 363 970 347 997 q 392 914 378 943 q 466 993 426 954 q 544 1064 506 1032 l 588 1064 l 586 1050 q 528 989 563 1026 q 463 912 494 951 q 414 842 432 872 l 347 842 z "},"Ď":{"ha":706,"x_min":21,"x_max":675,"o":"m 21 0 l 231 992 l 389 992 q 600 913 525 992 q 675 669 675 835 q 657 488 675 582 q 602 307 639 394 q 508 151 565 219 q 369 41 450 82 q 185 0 289 0 l 21 0 m 192 69 q 342 106 276 69 q 455 203 407 142 q 533 343 503 265 q 579 505 564 421 q 594 668 594 589 q 538 863 594 804 q 378 922 482 922 l 292 922 l 110 69 l 192 69 m 426 1078 q 403 1146 419 1106 q 370 1224 388 1186 q 339 1286 353 1263 l 342 1300 l 382 1300 q 411 1258 396 1282 q 442 1206 426 1233 q 471 1150 457 1179 q 545 1229 506 1190 q 624 1300 585 1268 l 667 1300 l 665 1286 q 608 1225 642 1263 q 542 1148 574 1188 q 493 1078 511 1108 l 426 1078 z "},"ď":{"ha":668,"x_min":46,"x_max":849,"o":"m 683 844 q 719 915 701 878 q 751 989 736 951 q 775 1056 767 1026 l 849 1056 l 847 1043 q 817 977 838 1015 q 773 900 797 939 q 726 833 749 861 l 683 833 l 683 844 m 204 -14 q 117 12 153 -14 q 64 87 82 38 q 46 208 46 136 q 58 349 46 275 q 97 495 71 424 q 160 624 122 567 q 249 717 199 682 q 363 751 300 751 q 435 735 404 751 q 484 691 465 719 q 510 628 503 663 l 514 628 q 523 681 518 654 q 533 733 528 707 q 543 783 538 758 l 601 1056 l 675 1056 l 451 0 l 392 0 l 410 131 l 407 131 q 351 57 382 90 q 285 5 321 24 q 204 -14 249 -14 m 225 51 q 300 77 265 51 q 363 146 335 103 q 413 242 392 189 q 450 351 435 296 q 473 458 465 407 q 481 547 481 510 q 452 649 481 613 q 369 686 424 686 q 282 655 321 686 q 213 572 243 624 q 163 458 183 521 q 132 331 142 396 q 122 210 122 267 q 149 90 122 129 q 225 51 175 51 z "},"Đ":{"ha":708,"x_min":21,"x_max":675,"o":"m 39 475 l 53 540 l 374 540 l 360 475 l 39 475 m 21 0 l 231 992 l 389 992 q 600 913 525 992 q 675 669 675 835 q 657 488 675 582 q 602 307 639 394 q 508 151 565 219 q 369 41 450 82 q 185 0 289 0 l 21 0 m 192 69 q 342 106 276 69 q 455 203 407 142 q 533 343 503 265 q 579 505 564 421 q 594 668 594 589 q 538 863 594 804 q 378 922 482 922 l 292 922 l 110 69 l 192 69 z "},"đ":{"ha":628,"x_min":46,"x_max":736,"o":"m 206 -14 q 120 12 156 -14 q 65 87 85 38 q 46 208 46 136 q 59 349 46 274 q 97 495 72 424 q 160 624 122 567 q 249 717 199 682 q 363 751 300 751 q 435 735 406 751 q 485 692 465 719 q 511 629 504 664 l 515 629 q 524 676 519 651 q 533 724 528 700 q 542 772 538 749 l 561 864 l 379 864 l 392 924 l 575 924 l 601 1056 l 675 1056 l 647 924 l 736 924 l 724 864 l 635 864 l 453 0 l 392 0 l 411 131 l 408 131 q 353 56 383 89 q 287 5 322 24 q 206 -14 251 -14 m 228 51 q 303 77 268 51 q 366 147 338 103 q 416 244 394 190 q 452 353 438 297 q 474 459 467 408 q 481 549 481 510 q 452 650 481 614 q 369 686 424 686 q 283 655 322 686 q 215 572 244 624 q 164 458 185 521 q 133 331 143 396 q 122 210 122 267 q 150 91 122 131 q 228 51 178 51 z "},"Ē":{"ha":561,"x_min":19,"x_max":615,"o":"m 19 0 l 231 992 l 615 992 l 601 922 l 292 922 l 214 554 l 503 554 l 489 486 l 199 486 l 110 69 l 419 69 l 406 0 l 19 0 m 272 1085 l 283 1146 l 611 1146 l 597 1085 l 272 1085 z "},"ē":{"ha":550,"x_min":47,"x_max":563,"o":"m 250 -14 q 142 13 188 -14 q 72 92 97 39 q 47 224 47 146 q 72 426 47 331 q 141 594 97 521 q 244 710 185 668 q 372 751 303 751 q 481 715 440 751 q 521 604 521 678 q 497 499 521 547 q 426 416 472 451 q 310 360 379 381 q 149 340 240 340 l 132 340 q 125 289 128 317 q 122 232 122 261 q 158 95 122 140 q 265 50 194 50 q 342 62 307 50 q 414 93 378 74 l 414 26 q 341 -3 382 8 q 250 -14 300 -14 m 158 403 q 319 428 254 403 q 416 499 383 454 q 449 601 449 543 q 428 664 449 640 q 364 688 407 688 q 274 651 318 688 q 196 551 231 615 q 143 403 161 486 l 158 403 m 224 849 l 235 910 l 563 910 l 549 849 l 224 849 z "},"Ĕ":{"ha":561,"x_min":19,"x_max":615,"o":"m 19 0 l 231 992 l 615 992 l 601 922 l 292 922 l 214 554 l 503 554 l 489 486 l 199 486 l 110 69 l 419 69 l 406 0 l 19 0 m 439 1079 q 360 1096 390 1079 q 314 1142 329 1113 q 299 1211 299 1172 q 299 1229 299 1221 q 301 1244 300 1238 l 351 1244 q 359 1189 351 1213 q 387 1153 367 1165 q 442 1140 407 1140 q 524 1165 496 1140 q 564 1244 551 1190 l 615 1244 q 557 1121 600 1163 q 439 1079 514 1079 z "},"ĕ":{"ha":550,"x_min":47,"x_max":579,"o":"m 250 -14 q 142 13 188 -14 q 72 92 97 39 q 47 224 47 146 q 72 426 47 331 q 141 594 97 521 q 244 710 185 668 q 372 751 303 751 q 481 715 440 751 q 521 604 521 678 q 497 499 521 547 q 426 416 472 451 q 310 360 379 381 q 149 340 240 340 l 132 340 q 125 289 128 317 q 122 232 122 261 q 158 95 122 140 q 265 50 194 50 q 342 62 307 50 q 414 93 378 74 l 414 26 q 341 -3 382 8 q 250 -14 300 -14 m 158 403 q 319 428 254 403 q 416 499 383 454 q 449 601 449 543 q 428 664 449 640 q 364 688 407 688 q 274 651 318 688 q 196 551 231 615 q 143 403 161 486 l 158 403 m 403 843 q 324 860 354 843 q 278 906 293 876 q 263 975 263 936 q 263 993 263 985 q 265 1008 264 1001 l 315 1008 q 323 953 315 976 q 351 917 331 929 q 406 904 371 904 q 488 929 460 904 q 528 1008 515 954 l 579 1008 q 521 885 564 926 q 403 843 478 843 z "},"Ė":{"ha":561,"x_min":19,"x_max":615,"o":"m 19 0 l 231 992 l 615 992 l 601 922 l 292 922 l 214 554 l 503 554 l 489 486 l 199 486 l 110 69 l 419 69 l 406 0 l 19 0 m 464 1107 q 433 1119 444 1107 q 422 1153 422 1132 q 438 1206 422 1181 q 482 1231 453 1231 q 505 1225 496 1231 q 519 1210 514 1219 q 524 1185 524 1200 q 508 1131 524 1156 q 464 1107 492 1107 z "},"ė":{"ha":550,"x_min":47,"x_max":521,"o":"m 250 -14 q 142 13 188 -14 q 72 92 97 39 q 47 224 47 146 q 72 426 47 331 q 141 594 97 521 q 244 710 185 668 q 372 751 303 751 q 481 715 440 751 q 521 604 521 678 q 497 499 521 547 q 426 416 472 451 q 310 360 379 381 q 149 340 240 340 l 132 340 q 125 289 128 317 q 122 232 122 261 q 158 95 122 140 q 265 50 194 50 q 342 62 307 50 q 414 93 378 74 l 414 26 q 341 -3 382 8 q 250 -14 300 -14 m 158 403 q 319 428 254 403 q 416 499 383 454 q 449 601 449 543 q 428 664 449 640 q 364 688 407 688 q 274 651 318 688 q 196 551 231 615 q 143 403 161 486 l 158 403 m 422 885 q 392 897 403 885 q 381 931 381 910 q 396 983 381 958 q 440 1008 411 1008 q 463 1003 454 1008 q 477 988 472 997 q 482 963 482 978 q 466 909 482 933 q 422 885 450 885 z "},"Ę":{"ha":561,"x_min":19,"x_max":615,"o":"m 19 0 l 231 992 l 615 992 l 601 922 l 292 922 l 214 554 l 503 554 l 489 486 l 199 486 l 110 69 l 419 69 l 406 0 l 19 0 m 258 -304 q 183 -277 210 -304 q 156 -207 156 -250 q 172 -133 156 -167 q 221 -65 188 -99 q 303 3 254 -32 l 357 0 q 285 -66 315 -35 q 240 -128 256 -97 q 224 -193 224 -158 q 238 -233 224 -219 q 278 -247 251 -247 q 305 -244 292 -247 q 331 -239 318 -242 l 324 -293 q 294 -301 310 -297 q 258 -304 278 -304 z "},"ę":{"ha":550,"x_min":46,"x_max":519,"o":"m 292 -285 q 222 -258 247 -285 q 196 -186 196 -231 q 212 -113 196 -147 q 259 -47 228 -79 q 339 21 290 -14 l 400 25 q 331 -40 361 -7 q 283 -107 300 -74 q 267 -175 267 -140 q 280 -215 267 -201 q 317 -228 293 -228 q 342 -226 329 -228 q 367 -221 354 -224 l 358 -274 q 328 -282 344 -279 q 292 -285 311 -285 m 249 -14 q 141 13 186 -14 q 71 92 96 39 q 46 224 46 146 q 71 426 46 331 q 140 594 96 521 q 242 710 183 668 q 371 751 301 751 q 479 715 439 751 q 519 604 519 678 q 495 499 519 547 q 424 416 471 451 q 308 360 378 381 q 147 340 239 340 l 131 340 q 124 289 126 317 q 121 232 121 261 q 157 95 121 140 q 264 50 193 50 q 341 62 306 50 q 413 93 376 74 l 413 26 q 340 -3 381 8 q 249 -14 299 -14 m 157 403 q 317 428 253 403 q 415 499 382 454 q 447 601 447 543 q 426 664 447 640 q 363 688 406 688 q 273 651 317 688 q 194 551 229 615 q 142 403 160 486 l 157 403 z "},"Ě":{"ha":561,"x_min":19,"x_max":638,"o":"m 19 0 l 231 992 l 615 992 l 601 922 l 292 922 l 214 554 l 503 554 l 489 486 l 199 486 l 110 69 l 419 69 l 406 0 l 19 0 m 397 1078 q 374 1146 390 1106 q 341 1224 358 1186 q 310 1286 324 1263 l 313 1300 l 353 1300 q 382 1258 367 1282 q 413 1206 397 1233 q 442 1150 428 1179 q 516 1229 476 1190 q 594 1300 556 1268 l 638 1300 l 636 1286 q 578 1225 613 1263 q 513 1148 544 1188 q 464 1078 482 1108 l 397 1078 z "},"ě":{"ha":550,"x_min":47,"x_max":593,"o":"m 250 -14 q 142 13 188 -14 q 72 92 97 39 q 47 224 47 146 q 72 426 47 331 q 141 594 97 521 q 244 710 185 668 q 372 751 303 751 q 481 715 440 751 q 521 604 521 678 q 497 499 521 547 q 426 416 472 451 q 310 360 379 381 q 149 340 240 340 l 132 340 q 125 289 128 317 q 122 232 122 261 q 158 95 122 140 q 265 50 194 50 q 342 62 307 50 q 414 93 378 74 l 414 26 q 341 -3 382 8 q 250 -14 300 -14 m 158 403 q 319 428 254 403 q 416 499 383 454 q 449 601 449 543 q 428 664 449 640 q 364 688 407 688 q 274 651 318 688 q 196 551 231 615 q 143 403 161 486 l 158 403 m 353 842 q 330 910 346 869 q 297 988 314 950 q 265 1050 279 1026 l 268 1064 l 308 1064 q 338 1022 322 1046 q 368 970 353 997 q 397 914 383 943 q 472 993 432 954 q 550 1064 511 1032 l 593 1064 l 592 1050 q 534 989 568 1026 q 469 912 500 951 q 419 842 438 872 l 353 842 z "},"Ĝ":{"ha":744,"x_min":68,"x_max":757,"o":"m 354 -14 q 141 72 214 -14 q 68 319 68 157 q 90 533 68 431 q 152 722 111 636 q 251 872 193 808 q 382 972 310 936 q 539 1007 454 1007 q 660 990 607 1007 q 757 947 714 974 l 721 882 q 634 923 679 908 q 535 938 589 938 q 376 886 447 938 q 253 748 304 835 q 174 551 201 661 q 146 324 146 442 q 171 174 146 233 q 244 85 196 114 q 363 56 293 56 q 442 63 404 56 q 514 81 481 69 l 589 438 l 428 438 l 443 506 l 681 506 l 578 29 q 471 -3 526 8 q 354 -14 415 -14 m 378 1090 q 438 1156 406 1119 q 499 1229 469 1192 q 550 1300 529 1267 l 615 1300 q 639 1231 624 1271 q 672 1153 654 1192 q 703 1090 690 1115 l 701 1078 l 660 1078 q 630 1122 646 1099 q 599 1173 614 1146 q 571 1226 585 1200 q 497 1149 536 1188 q 419 1078 458 1110 l 375 1078 l 378 1090 z "},"ĝ":{"ha":628,"x_min":-8,"x_max":608,"o":"m 156 -333 q 63 -321 106 -333 q -8 -293 19 -308 l -8 -219 q 36 -242 10 -231 q 94 -260 63 -253 q 156 -268 125 -268 q 296 -213 247 -268 q 368 -50 344 -158 l 383 15 q 395 67 388 36 q 411 128 403 99 l 407 128 q 351 54 382 86 q 285 4 321 22 q 206 -14 249 -14 q 119 12 154 -14 q 65 87 83 38 q 46 207 46 136 q 59 348 46 274 q 98 494 72 422 q 162 624 124 567 q 251 717 200 682 q 367 751 303 751 q 440 735 410 751 q 487 689 469 718 q 513 622 504 660 l 517 622 l 549 738 l 608 738 l 442 -53 q 386 -208 422 -146 q 293 -302 350 -271 q 156 -333 236 -333 m 228 51 q 300 77 267 51 q 362 146 333 103 q 413 242 390 189 q 450 351 435 296 q 473 459 465 407 q 481 549 481 511 q 452 650 481 614 q 371 686 424 686 q 284 655 324 686 q 215 572 244 624 q 164 458 185 521 q 133 331 143 396 q 122 211 122 267 q 149 91 122 131 q 228 51 175 51 m 215 854 q 275 919 243 883 q 337 993 307 956 q 388 1064 367 1031 l 453 1064 q 476 995 461 1035 q 510 917 492 956 q 540 854 528 879 l 539 842 l 497 842 q 467 886 483 863 q 437 937 451 910 q 408 990 422 964 q 335 913 374 951 q 257 842 296 874 l 213 842 l 215 854 z "},"Ğ":{"ha":744,"x_min":68,"x_max":757,"o":"m 354 -14 q 141 72 214 -14 q 68 319 68 157 q 90 533 68 431 q 152 722 111 636 q 251 872 193 808 q 382 972 310 936 q 539 1007 454 1007 q 660 990 607 1007 q 757 947 714 974 l 721 882 q 634 923 679 908 q 535 938 589 938 q 376 886 447 938 q 253 748 304 835 q 174 551 201 661 q 146 324 146 442 q 171 174 146 233 q 244 85 196 114 q 363 56 293 56 q 442 63 404 56 q 514 81 481 69 l 589 438 l 428 438 l 443 506 l 681 506 l 578 29 q 471 -3 526 8 q 354 -14 415 -14 m 551 1079 q 472 1096 503 1079 q 426 1142 442 1113 q 411 1211 411 1172 q 412 1229 411 1221 q 414 1244 413 1238 l 464 1244 q 472 1189 464 1213 q 499 1153 479 1165 q 554 1140 519 1140 q 636 1165 608 1140 q 676 1244 664 1190 l 728 1244 q 669 1121 713 1163 q 551 1079 626 1079 z "},"ğ":{"ha":628,"x_min":-8,"x_max":608,"o":"m 156 -333 q 63 -321 106 -333 q -8 -293 19 -308 l -8 -219 q 36 -242 10 -231 q 94 -260 63 -253 q 156 -268 125 -268 q 296 -213 247 -268 q 368 -50 344 -158 l 383 15 q 395 67 388 36 q 411 128 403 99 l 407 128 q 351 54 382 86 q 285 4 321 22 q 206 -14 249 -14 q 119 12 154 -14 q 65 87 83 38 q 46 207 46 136 q 59 348 46 274 q 98 494 72 422 q 162 624 124 567 q 251 717 200 682 q 367 751 303 751 q 440 735 410 751 q 487 689 469 718 q 513 622 504 660 l 517 622 l 549 738 l 608 738 l 442 -53 q 386 -208 422 -146 q 293 -302 350 -271 q 156 -333 236 -333 m 228 51 q 300 77 267 51 q 362 146 333 103 q 413 242 390 189 q 450 351 435 296 q 473 459 465 407 q 481 549 481 511 q 452 650 481 614 q 371 686 424 686 q 284 655 324 686 q 215 572 244 624 q 164 458 185 521 q 133 331 143 396 q 122 211 122 267 q 149 91 122 131 q 228 51 175 51 m 388 843 q 308 860 339 843 q 263 906 278 876 q 247 975 247 936 q 248 993 247 985 q 250 1008 249 1001 l 300 1008 q 308 953 300 976 q 335 917 315 929 q 390 904 356 904 q 472 929 444 904 q 513 1008 500 954 l 564 1008 q 506 885 549 926 q 388 843 463 843 z "},"Ġ":{"ha":744,"x_min":68,"x_max":757,"o":"m 354 -14 q 141 72 214 -14 q 68 319 68 157 q 90 533 68 431 q 152 722 111 636 q 251 872 193 808 q 382 972 310 936 q 539 1007 454 1007 q 660 990 607 1007 q 757 947 714 974 l 721 882 q 634 923 679 908 q 535 938 589 938 q 376 886 447 938 q 253 748 304 835 q 174 551 201 661 q 146 324 146 442 q 171 174 146 233 q 244 85 196 114 q 363 56 293 56 q 442 63 404 56 q 514 81 481 69 l 589 438 l 428 438 l 443 506 l 681 506 l 578 29 q 471 -3 526 8 q 354 -14 415 -14 m 581 1121 q 550 1133 561 1121 q 539 1167 539 1146 q 554 1219 539 1194 q 599 1244 569 1244 q 622 1239 613 1244 q 635 1224 631 1233 q 640 1199 640 1214 q 624 1145 640 1169 q 581 1121 608 1121 z "},"ġ":{"ha":628,"x_min":-8,"x_max":608,"o":"m 156 -333 q 63 -321 106 -333 q -8 -293 19 -308 l -8 -219 q 36 -242 10 -231 q 94 -260 63 -253 q 156 -268 125 -268 q 296 -213 247 -268 q 368 -50 344 -158 l 383 15 q 395 67 388 36 q 411 128 403 99 l 407 128 q 351 54 382 86 q 285 4 321 22 q 206 -14 249 -14 q 119 12 154 -14 q 65 87 83 38 q 46 207 46 136 q 59 348 46 274 q 98 494 72 422 q 162 624 124 567 q 251 717 200 682 q 367 751 303 751 q 440 735 410 751 q 487 689 469 718 q 513 622 504 660 l 517 622 l 549 738 l 608 738 l 442 -53 q 386 -208 422 -146 q 293 -302 350 -271 q 156 -333 236 -333 m 228 51 q 300 77 267 51 q 362 146 333 103 q 413 242 390 189 q 450 351 435 296 q 473 459 465 407 q 481 549 481 511 q 452 650 481 614 q 371 686 424 686 q 284 655 324 686 q 215 572 244 624 q 164 458 185 521 q 133 331 143 396 q 122 211 122 267 q 149 91 122 131 q 228 51 175 51 m 408 885 q 378 897 389 885 q 367 931 367 910 q 382 983 367 958 q 426 1008 397 1008 q 449 1003 440 1008 q 463 988 458 997 q 468 963 468 978 q 452 909 468 933 q 408 885 436 885 z "},"Ģ":{"ha":744,"x_min":68,"x_max":757,"o":"m 354 -14 q 141 72 214 -14 q 68 319 68 157 q 90 533 68 431 q 152 722 111 636 q 251 872 193 808 q 382 972 310 936 q 539 1007 454 1007 q 660 990 607 1007 q 757 947 714 974 l 721 882 q 634 923 679 908 q 535 938 589 938 q 376 886 447 938 q 253 748 304 835 q 174 551 201 661 q 146 324 146 442 q 171 174 146 233 q 244 85 196 114 q 363 56 293 56 q 442 63 404 56 q 514 81 481 69 l 589 438 l 428 438 l 443 506 l 681 506 l 578 29 q 471 -3 526 8 q 354 -14 415 -14 m 181 -289 q 221 -230 199 -265 q 263 -155 243 -194 q 292 -85 282 -115 l 363 -85 l 363 -99 q 328 -167 353 -128 q 276 -243 304 -206 q 221 -307 247 -281 l 181 -307 l 181 -289 z "},"ģ":{"ha":628,"x_min":-8,"x_max":608,"o":"m 347 856 q 383 924 360 886 q 435 1001 407 963 q 489 1064 464 1039 l 528 1064 l 528 1046 q 491 989 513 1026 q 449 912 469 951 q 419 842 429 872 l 347 842 l 347 856 m 156 -333 q 63 -321 106 -333 q -8 -293 19 -308 l -8 -219 q 36 -242 10 -231 q 94 -260 63 -253 q 156 -268 125 -268 q 296 -213 247 -268 q 368 -50 344 -158 l 383 15 q 395 67 388 36 q 411 128 403 99 l 407 128 q 351 54 382 86 q 285 4 321 22 q 206 -14 249 -14 q 119 12 154 -14 q 65 87 83 38 q 46 207 46 136 q 59 348 46 274 q 98 494 72 422 q 162 624 124 567 q 251 717 200 682 q 367 751 303 751 q 440 735 410 751 q 487 689 469 718 q 513 622 504 660 l 517 622 l 549 738 l 608 738 l 442 -53 q 386 -208 422 -146 q 293 -302 350 -271 q 156 -333 236 -333 m 228 51 q 300 77 267 51 q 362 146 333 103 q 413 242 390 189 q 450 351 435 296 q 473 459 465 407 q 481 549 481 511 q 452 650 481 614 q 371 686 424 686 q 284 655 324 686 q 215 572 244 624 q 164 458 185 521 q 133 331 143 396 q 122 211 122 267 q 149 91 122 131 q 228 51 175 51 z "},"Ĥ":{"ha":732,"x_min":19,"x_max":750,"o":"m 19 0 l 231 992 l 306 992 l 214 554 l 581 554 l 674 992 l 750 992 l 539 0 l 464 0 l 565 485 l 199 485 l 96 0 l 19 0 m 333 1090 q 393 1156 361 1119 q 455 1229 425 1192 q 506 1300 485 1267 l 571 1300 q 594 1231 579 1271 q 628 1153 610 1192 q 658 1090 646 1115 l 657 1078 l 615 1078 q 585 1122 601 1099 q 555 1173 569 1146 q 526 1226 540 1200 q 453 1149 492 1188 q 375 1078 414 1110 l 331 1078 l 333 1090 z "},"ĥ":{"ha":610,"x_min":15,"x_max":557,"o":"m 15 0 l 239 1056 l 314 1056 l 249 760 q 239 713 244 736 q 227 665 233 689 q 214 617 221 640 l 218 617 q 267 685 239 656 q 333 733 296 715 q 415 751 371 751 q 491 735 460 751 q 540 688 522 719 q 557 607 557 656 q 551 540 557 579 q 536 464 544 500 l 438 0 l 364 0 l 463 465 q 476 535 469 501 q 482 596 482 568 q 459 663 482 640 q 393 685 436 685 q 301 651 344 685 q 226 553 258 618 q 172 389 193 488 l 90 0 l 15 0 m 131 1167 q 190 1232 158 1196 q 252 1306 222 1268 q 303 1376 282 1343 l 368 1376 q 392 1308 376 1347 q 425 1230 407 1268 q 456 1167 443 1192 l 454 1154 l 413 1154 q 383 1199 399 1175 q 352 1249 367 1222 q 324 1303 338 1276 q 250 1225 289 1264 q 172 1154 211 1186 l 128 1154 l 131 1167 z "},"Ħ":{"ha":726,"x_min":19,"x_max":808,"o":"m 19 0 l 178 744 l 71 744 l 83 807 l 190 807 l 231 992 l 306 992 l 267 807 l 635 807 l 674 992 l 750 992 l 711 807 l 808 807 l 794 744 l 697 744 l 539 0 l 463 0 l 565 485 l 199 485 l 96 0 l 19 0 m 213 553 l 581 553 l 621 744 l 254 744 l 213 553 z "},"ħ":{"ha":613,"x_min":15,"x_max":556,"o":"m 15 0 l 200 864 l 108 864 l 121 924 l 211 924 l 239 1056 l 314 1056 l 285 924 l 464 924 l 451 864 l 272 864 q 246 748 257 796 q 227 668 235 700 q 214 613 219 636 l 217 613 q 266 681 238 650 q 333 729 294 711 q 414 747 371 747 q 490 731 458 747 q 539 682 522 714 q 556 601 556 650 q 549 534 556 574 q 535 458 543 494 l 438 0 l 364 0 l 461 460 q 475 529 469 496 q 481 590 481 563 q 458 657 481 635 q 393 679 435 679 q 299 646 342 679 q 224 547 257 613 q 171 383 192 481 l 90 0 l 15 0 z "},"Ĩ":{"ha":332,"x_min":-56,"x_max":543,"o":"m -56 0 l -46 46 l 53 60 l 238 932 l 146 946 l 154 992 l 421 992 l 411 946 l 313 932 l 128 60 l 219 46 l 211 0 l -56 0 m 124 1106 q 151 1190 133 1157 q 194 1241 168 1224 q 254 1258 219 1258 q 304 1245 282 1258 q 345 1215 326 1232 q 381 1184 364 1197 q 417 1171 397 1171 q 460 1190 443 1171 q 489 1260 478 1210 l 542 1260 q 514 1173 532 1207 q 471 1123 496 1139 q 414 1107 446 1107 q 365 1120 386 1107 q 325 1151 343 1133 q 289 1181 307 1168 q 250 1194 271 1194 q 203 1173 221 1194 q 175 1106 186 1151 l 124 1106 z "},"ĩ":{"ha":265,"x_min":15,"x_max":454,"o":"m 15 0 l 172 738 l 246 738 l 89 0 l 15 0 m 35 847 q 62 932 44 899 q 105 983 79 965 q 165 1000 131 1000 q 215 987 193 1000 q 256 956 238 974 q 292 926 275 939 q 328 913 308 913 q 372 932 354 913 q 400 1001 389 951 l 453 1001 q 425 915 443 949 q 382 865 407 881 q 325 849 357 849 q 276 862 297 849 q 236 892 254 875 q 200 923 218 910 q 161 936 182 936 q 115 915 132 936 q 86 847 97 893 l 35 847 z "},"Ī":{"ha":332,"x_min":-56,"x_max":486,"o":"m -56 0 l -46 46 l 53 60 l 238 932 l 146 946 l 154 992 l 421 992 l 411 946 l 313 932 l 128 60 l 219 46 l 211 0 l -56 0 m 147 1107 l 158 1168 l 486 1168 l 472 1107 l 147 1107 z "},"ī":{"ha":265,"x_min":15,"x_max":401,"o":"m 15 0 l 172 738 l 246 738 l 89 0 l 15 0 m 63 849 l 74 910 l 401 910 l 388 849 l 63 849 z "},"Ĭ":{"ha":332,"x_min":-56,"x_max":496,"o":"m -56 0 l -46 46 l 53 60 l 238 932 l 146 946 l 154 992 l 421 992 l 411 946 l 313 932 l 128 60 l 219 46 l 211 0 l -56 0 m 319 1101 q 240 1118 271 1101 q 194 1165 210 1135 q 179 1233 179 1194 q 180 1251 179 1243 q 182 1267 181 1260 l 232 1267 q 240 1211 232 1235 q 267 1175 247 1188 q 322 1163 288 1163 q 404 1188 376 1163 q 444 1267 432 1213 l 496 1267 q 438 1143 481 1185 q 319 1101 394 1101 z "},"ĭ":{"ha":265,"x_min":15,"x_max":413,"o":"m 15 0 l 172 738 l 246 738 l 89 0 l 15 0 m 235 843 q 156 860 186 843 q 110 906 125 876 q 94 975 94 936 q 95 993 94 985 q 97 1008 96 1001 l 147 1008 q 155 953 147 976 q 183 917 163 929 q 238 904 203 904 q 319 929 292 904 q 360 1008 347 954 l 411 1008 q 353 885 396 926 q 235 843 310 843 z "},"Į":{"ha":332,"x_min":-56,"x_max":421,"o":"m -56 0 l -46 46 l 53 60 l 238 932 l 146 946 l 154 992 l 421 992 l 411 946 l 313 932 l 128 60 l 219 46 l 211 0 l -56 0 m 64 -304 q -12 -277 15 -304 q -39 -207 -39 -250 q -23 -133 -39 -167 q 26 -65 -7 -99 q 108 3 60 -32 l 163 0 q 91 -66 121 -35 q 45 -128 61 -97 q 29 -193 29 -158 q 43 -233 29 -219 q 83 -247 57 -247 q 110 -244 97 -247 q 136 -239 124 -242 l 129 -293 q 99 -301 115 -297 q 64 -304 83 -304 z "},"į":{"ha":265,"x_min":-114,"x_max":304,"o":"m 15 0 l 172 738 l 246 738 l 89 0 l 15 0 m 244 885 q 214 897 225 885 q 203 929 203 908 q 210 967 203 949 q 230 997 217 985 q 264 1008 243 1008 q 294 997 283 1008 q 304 964 304 986 q 288 909 304 933 q 244 885 272 885 m -11 -304 q -87 -277 -60 -304 q -114 -207 -114 -250 q -98 -133 -114 -167 q -49 -65 -82 -99 q 33 3 -15 -32 l 88 0 q 16 -66 46 -35 q -30 -128 -14 -97 q -46 -193 -46 -158 q -32 -233 -46 -219 q 8 -247 -18 -247 q 35 -244 22 -247 q 61 -239 49 -242 l 54 -293 q 24 -301 40 -297 q -11 -304 8 -304 z "},"İ":{"ha":332,"x_min":-56,"x_max":421,"o":"m -56 0 l -46 46 l 53 60 l 238 932 l 146 946 l 154 992 l 421 992 l 411 946 l 313 932 l 128 60 l 219 46 l 211 0 l -56 0 m 335 1143 q 304 1156 315 1143 q 293 1189 293 1168 q 308 1242 293 1217 q 353 1267 324 1267 q 376 1261 367 1267 q 390 1246 385 1256 q 394 1221 394 1236 q 378 1167 394 1192 q 335 1143 363 1143 z "},"Ĳ":{"ha":629,"x_min":-56,"x_max":658,"o":"m -56 0 l -46 46 l 53 60 l 238 932 l 146 946 l 154 992 l 421 992 l 411 946 l 313 932 l 128 60 l 219 46 l 211 0 l -56 0 m 233 -253 q 182 -248 206 -253 q 143 -236 158 -243 l 157 -168 q 193 -179 174 -175 q 232 -183 213 -183 q 297 -165 271 -183 q 340 -109 322 -147 q 369 -14 357 -71 l 583 992 l 658 992 l 443 -28 q 399 -156 426 -106 q 330 -229 371 -206 q 233 -253 289 -253 z "},"ĳ":{"ha":528,"x_min":15,"x_max":571,"o":"m 15 0 l 172 738 l 246 738 l 89 0 l 15 0 m 244 885 q 214 897 225 885 q 203 929 203 908 q 210 967 203 949 q 230 997 217 985 q 264 1008 243 1008 q 294 997 283 1008 q 304 964 304 986 q 288 909 304 933 q 244 885 272 885 m 147 -333 q 110 -331 128 -333 q 81 -324 93 -328 l 81 -256 q 109 -264 93 -261 q 142 -267 125 -267 q 198 -249 175 -267 q 236 -192 221 -232 q 264 -85 251 -153 l 439 738 l 513 738 l 336 -90 q 299 -224 321 -169 q 241 -306 276 -278 q 147 -333 206 -333 m 513 885 q 482 897 493 885 q 471 929 471 908 q 477 967 471 949 q 497 997 483 985 q 531 1008 511 1008 q 560 997 550 1008 q 571 964 571 986 q 555 909 571 933 q 513 885 539 885 z "},"Ĵ":{"ha":278,"x_min":-208,"x_max":440,"o":"m -118 -253 q -169 -248 -146 -253 q -208 -236 -193 -243 l -194 -168 q -158 -179 -178 -175 q -119 -183 -139 -183 q -55 -165 -81 -183 q -12 -109 -29 -147 q 18 -14 6 -71 l 232 992 l 307 992 l 92 -28 q 47 -156 75 -106 q -22 -229 19 -206 q -118 -253 -62 -253 m 115 1090 q 175 1156 143 1119 q 237 1229 207 1192 q 288 1300 267 1267 l 353 1300 q 376 1231 361 1271 q 410 1153 392 1192 q 440 1090 428 1115 l 439 1078 l 397 1078 q 367 1122 383 1099 q 337 1173 351 1146 q 308 1226 322 1200 q 235 1149 274 1188 q 157 1078 196 1110 l 113 1078 l 115 1090 z "},"ĵ":{"ha":265,"x_min":-183,"x_max":385,"o":"m -117 -333 q -153 -331 -136 -333 q -183 -324 -171 -328 l -183 -256 q -155 -264 -171 -261 q -122 -267 -139 -267 q -66 -249 -89 -267 q -28 -192 -43 -232 q 0 -85 -12 -153 l 175 738 l 249 738 l 72 -90 q 35 -224 57 -169 q -23 -306 13 -278 q -117 -333 -58 -333 m 60 854 q 119 919 88 883 q 181 993 151 956 q 232 1064 211 1031 l 297 1064 q 321 995 306 1035 q 354 917 336 956 q 385 854 372 879 l 383 842 l 342 842 q 312 886 328 863 q 281 937 296 910 q 253 990 267 964 q 179 913 218 951 q 101 842 140 874 l 57 842 l 60 854 z "},"Ķ":{"ha":596,"x_min":19,"x_max":706,"o":"m 19 0 l 231 992 l 306 992 l 196 474 l 281 586 l 618 992 l 706 992 l 347 553 l 508 0 l 426 0 l 285 496 l 178 389 l 96 0 l 19 0 m 96 -289 q 136 -230 114 -265 q 178 -155 158 -194 q 207 -85 197 -115 l 278 -85 l 278 -99 q 244 -167 268 -128 q 191 -243 219 -206 q 136 -307 163 -281 l 96 -307 l 96 -289 z "},"ķ":{"ha":514,"x_min":15,"x_max":567,"o":"m 15 0 l 239 1056 l 314 1056 l 203 542 q 182 443 193 489 q 158 353 171 397 l 161 353 l 483 738 l 567 738 l 315 438 l 429 0 l 351 0 l 254 379 l 143 260 l 89 0 l 15 0 m 57 -289 q 97 -230 75 -265 q 139 -155 119 -194 q 168 -85 158 -115 l 239 -85 l 239 -99 q 205 -167 229 -128 q 152 -243 181 -206 q 97 -307 124 -281 l 57 -307 l 57 -289 z "},"ĸ":{"ha":510,"x_min":15,"x_max":567,"o":"m 15 0 l 174 738 l 247 738 l 201 529 q 181 440 192 486 q 158 353 169 394 l 161 353 l 483 739 l 567 739 l 315 438 l 429 0 l 351 0 l 254 379 l 143 260 l 89 0 l 15 0 z "},"Ĺ":{"ha":513,"x_min":19,"x_max":553,"o":"m 19 0 l 231 992 l 306 992 l 110 69 l 411 69 l 399 0 l 19 0 m 303 1108 q 365 1179 333 1142 q 422 1253 396 1217 q 467 1318 449 1289 l 554 1318 l 553 1307 q 514 1257 539 1286 q 459 1198 489 1228 q 401 1141 429 1168 q 347 1096 372 1114 l 303 1096 l 303 1108 z "},"ĺ":{"ha":261,"x_min":15,"x_max":483,"o":"m 15 0 l 239 1056 l 314 1056 l 89 0 l 15 0 m 233 1172 q 295 1243 264 1206 q 353 1317 326 1281 q 397 1382 379 1353 l 485 1382 l 483 1371 q 444 1321 469 1350 q 390 1262 419 1292 q 331 1205 360 1232 q 278 1160 303 1178 l 233 1160 l 233 1172 z "},"Ļ":{"ha":513,"x_min":19,"x_max":411,"o":"m 19 0 l 231 992 l 306 992 l 110 69 l 411 69 l 399 0 l 19 0 m 61 -289 q 101 -230 79 -265 q 143 -155 124 -194 q 172 -85 163 -115 l 243 -85 l 243 -99 q 209 -167 233 -128 q 156 -243 185 -206 q 101 -307 128 -281 l 61 -307 l 61 -289 z "},"ļ":{"ha":261,"x_min":-82,"x_max":314,"o":"m 15 0 l 239 1056 l 314 1056 l 89 0 l 15 0 m -82 -289 q -42 -230 -64 -265 q 0 -155 -19 -194 q 29 -85 19 -115 l 100 -85 l 100 -99 q 66 -167 90 -128 q 13 -243 42 -206 q -42 -307 -15 -281 l -82 -307 l -82 -289 z "},"Ľ":{"ha":513,"x_min":19,"x_max":557,"o":"m 392 779 q 427 848 410 811 q 460 922 444 885 q 483 989 475 960 l 557 989 l 556 976 q 526 911 546 950 q 481 834 506 872 q 435 767 457 796 l 392 767 l 392 779 m 19 0 l 231 992 l 306 992 l 110 69 l 411 69 l 399 0 l 19 0 z "},"ľ":{"ha":307,"x_min":15,"x_max":486,"o":"m 321 844 q 357 913 339 876 q 390 988 375 950 q 413 1056 404 1025 l 486 1056 l 486 1042 q 456 976 476 1015 q 412 899 436 938 q 364 833 388 861 l 321 833 l 321 844 m 15 0 l 239 1056 l 314 1056 l 89 0 l 15 0 z "},"Ŀ":{"ha":513,"x_min":19,"x_max":460,"o":"m 19 0 l 231 992 l 306 992 l 110 69 l 411 69 l 399 0 l 19 0 m 400 449 q 369 461 381 449 q 358 494 358 474 q 374 547 358 522 q 418 572 389 572 q 441 567 432 572 q 455 551 450 561 q 460 526 460 542 q 444 473 460 497 q 400 449 428 449 z "},"ŀ":{"ha":365,"x_min":15,"x_max":389,"o":"m 15 0 l 239 1056 l 314 1056 l 89 0 l 15 0 m 329 414 q 299 426 310 414 q 288 460 288 439 q 303 513 288 488 q 347 538 318 538 q 370 532 361 538 q 384 517 379 526 q 389 492 389 507 q 373 438 389 463 q 329 414 357 414 z "},"Ł":{"ha":510,"x_min":-17,"x_max":417,"o":"m 24 0 l 108 401 l 11 347 l -17 400 l 125 482 l 233 992 l 310 992 l 213 536 l 369 625 l 399 574 l 194 454 l 114 69 l 417 69 l 403 0 l 24 0 z "},"ł":{"ha":274,"x_min":-1,"x_max":343,"o":"m 18 0 l 117 458 l 22 404 l -1 457 l 132 535 l 243 1056 l 317 1056 l 215 579 l 319 639 l 343 586 l 199 503 l 92 0 l 18 0 z "},"Ń":{"ha":761,"x_min":19,"x_max":779,"o":"m 19 0 l 231 992 l 315 992 l 525 136 l 528 136 q 542 216 535 175 q 558 294 550 257 q 571 360 565 332 l 706 992 l 779 992 l 568 0 l 485 0 l 275 864 l 271 864 q 262 808 267 838 q 251 747 257 778 q 238 686 244 717 q 226 629 232 656 l 93 0 l 19 0 m 471 1108 q 533 1179 501 1142 q 590 1253 564 1217 q 635 1318 617 1289 l 722 1318 l 721 1307 q 682 1257 707 1286 q 627 1198 657 1228 q 569 1141 597 1168 q 515 1096 540 1114 l 471 1096 l 471 1108 z "},"ń":{"ha":610,"x_min":14,"x_max":589,"o":"m 14 0 l 171 739 l 232 739 l 213 617 l 215 617 q 265 685 236 654 q 332 734 294 715 q 414 753 369 753 q 490 737 458 753 q 540 689 522 721 q 557 608 557 657 q 551 540 557 579 q 538 467 544 501 l 438 0 l 363 0 l 461 468 q 475 536 469 503 q 481 597 481 569 q 458 662 481 640 q 393 683 436 683 q 300 649 343 683 q 224 549 257 615 q 171 385 192 482 l 90 0 l 14 0 m 338 853 q 399 924 368 886 q 457 997 431 961 q 501 1063 483 1033 l 589 1063 l 588 1051 q 549 1001 574 1031 q 494 942 524 972 q 435 885 464 913 q 382 840 407 858 l 338 840 l 338 853 z "},"Ņ":{"ha":761,"x_min":19,"x_max":779,"o":"m 19 0 l 231 992 l 315 992 l 525 136 l 528 136 q 542 216 535 175 q 558 294 550 257 q 571 360 565 332 l 706 992 l 779 992 l 568 0 l 485 0 l 275 864 l 271 864 q 262 808 267 838 q 251 747 257 778 q 238 686 244 717 q 226 629 232 656 l 93 0 l 19 0 m 167 -289 q 207 -230 185 -265 q 249 -155 229 -194 q 278 -85 268 -115 l 349 -85 l 349 -99 q 315 -167 339 -128 q 262 -243 290 -206 q 207 -307 233 -281 l 167 -307 l 167 -289 z "},"ņ":{"ha":610,"x_min":14,"x_max":557,"o":"m 14 0 l 171 739 l 232 739 l 213 617 l 215 617 q 265 685 236 654 q 332 734 294 715 q 414 753 369 753 q 490 737 458 753 q 540 689 522 721 q 557 608 557 657 q 551 540 557 579 q 538 467 544 501 l 438 0 l 363 0 l 461 468 q 475 536 469 503 q 481 597 481 569 q 458 662 481 640 q 393 683 436 683 q 300 649 343 683 q 224 549 257 615 q 171 385 192 482 l 90 0 l 14 0 m 93 -289 q 133 -230 111 -265 q 175 -155 156 -194 q 204 -85 194 -115 l 275 -85 l 275 -99 q 241 -167 265 -128 q 188 -243 217 -206 q 133 -307 160 -281 l 93 -307 l 93 -289 z "},"Ň":{"ha":761,"x_min":19,"x_max":779,"o":"m 19 0 l 231 992 l 315 992 l 525 136 l 528 136 q 542 216 535 175 q 558 294 550 257 q 571 360 565 332 l 706 992 l 779 992 l 568 0 l 485 0 l 275 864 l 271 864 q 262 808 267 838 q 251 747 257 778 q 238 686 244 717 q 226 629 232 656 l 93 0 l 19 0 m 474 1078 q 451 1146 467 1106 q 417 1224 435 1186 q 386 1286 400 1263 l 389 1300 l 429 1300 q 458 1258 443 1282 q 489 1206 474 1233 q 518 1150 504 1179 q 592 1229 553 1190 q 671 1300 632 1268 l 714 1300 l 713 1286 q 655 1225 689 1263 q 590 1148 621 1188 q 540 1078 558 1108 l 474 1078 z "},"ň":{"ha":610,"x_min":14,"x_max":597,"o":"m 14 0 l 171 739 l 232 739 l 213 617 l 215 617 q 265 685 236 654 q 332 734 294 715 q 414 753 369 753 q 490 737 458 753 q 540 689 522 721 q 557 608 557 657 q 551 540 557 579 q 538 467 544 501 l 438 0 l 363 0 l 461 468 q 475 536 469 503 q 481 597 481 569 q 458 662 481 640 q 393 683 436 683 q 300 649 343 683 q 224 549 257 615 q 171 385 192 482 l 90 0 l 14 0 m 357 842 q 334 910 350 869 q 301 988 318 950 q 269 1050 283 1026 l 272 1064 l 313 1064 q 342 1022 326 1046 q 372 970 357 997 q 401 914 388 943 q 476 993 436 954 q 554 1064 515 1032 l 597 1064 l 596 1050 q 538 989 572 1026 q 473 912 504 951 q 424 842 442 872 l 357 842 z "},"ŉ":{"ha":658,"x_min":47,"x_max":606,"o":"m 63 0 l 219 739 l 281 739 l 261 617 l 264 617 q 314 685 285 654 q 381 734 343 715 q 463 753 418 753 q 539 737 507 753 q 588 689 571 721 q 606 608 606 657 q 599 540 606 579 q 586 467 593 501 l 486 0 l 411 0 l 510 468 q 524 536 518 503 q 529 597 529 569 q 507 662 529 640 q 442 683 485 683 q 349 649 392 683 q 273 549 306 615 q 219 385 240 482 l 139 0 l 63 0 m 47 664 q 100 772 75 715 q 147 885 125 828 q 182 992 168 942 l 256 992 l 263 976 q 218 872 243 926 q 164 765 193 818 q 104 664 135 713 l 47 664 z "},"Ŋ":{"ha":758,"x_min":19,"x_max":779,"o":"m 350 -251 q 303 -247 326 -251 q 265 -235 281 -243 l 278 -167 q 313 -178 294 -174 q 353 -182 332 -182 q 418 -162 392 -182 q 462 -104 444 -143 q 490 -7 479 -65 l 276 868 l 272 868 q 265 825 269 847 q 257 778 261 803 q 247 726 253 753 q 235 672 242 700 l 93 0 l 19 0 l 231 992 l 317 992 l 525 144 l 529 144 q 540 208 535 175 q 553 273 546 240 q 567 338 560 306 l 704 992 l 779 992 l 568 -7 q 524 -142 551 -87 q 456 -224 497 -197 q 350 -251 414 -251 z "},"ŋ":{"ha":608,"x_min":15,"x_max":557,"o":"m 226 -333 q 190 -331 206 -333 q 161 -324 174 -328 l 161 -256 q 190 -264 175 -261 q 222 -267 206 -267 q 277 -250 256 -267 q 315 -193 299 -233 q 346 -85 332 -153 l 463 468 q 476 536 469 503 q 482 597 482 569 q 459 663 482 640 q 393 685 436 685 q 300 650 343 685 q 224 549 257 615 q 171 388 192 483 l 89 0 l 15 0 l 171 738 l 232 738 l 213 615 l 215 615 q 265 685 236 654 q 332 733 294 715 q 414 751 369 751 q 489 736 457 751 q 539 689 521 721 q 557 608 557 657 q 551 541 557 579 q 536 467 544 503 l 418 -92 q 376 -230 400 -176 q 318 -308 353 -283 q 226 -333 283 -333 z "},"Ō":{"ha":757,"x_min":67,"x_max":725,"o":"m 310 -14 q 174 22 228 -14 q 93 129 119 58 q 67 301 67 200 q 78 453 67 374 q 112 613 89 533 q 169 763 135 692 q 251 888 204 833 q 356 974 297 943 q 485 1006 415 1006 q 663 931 600 1006 q 725 703 725 857 q 715 559 725 638 q 683 400 704 481 q 630 246 663 319 q 551 114 597 172 q 444 21 504 56 q 310 -14 385 -14 m 315 56 q 419 87 372 56 q 502 171 465 118 q 566 290 539 224 q 611 430 593 357 q 638 573 629 503 q 646 703 646 643 q 604 879 646 821 q 479 938 563 938 q 373 906 421 938 q 288 822 325 875 q 224 701 251 768 q 180 563 197 635 q 153 424 163 492 q 144 301 144 357 q 164 165 144 219 q 222 83 183 111 q 315 56 260 56 m 343 1085 l 354 1146 l 682 1146 l 668 1085 l 343 1085 z "},"ō":{"ha":607,"x_min":47,"x_max":564,"o":"m 239 -14 q 135 13 179 -14 q 69 93 92 40 q 47 222 47 146 q 59 353 47 282 q 96 495 71 425 q 159 624 121 565 q 251 717 197 682 q 371 751 304 751 q 474 724 432 751 q 538 644 515 696 q 560 515 560 592 q 547 373 560 446 q 509 231 535 300 q 445 106 483 161 q 356 19 407 51 q 239 -14 304 -14 m 244 53 q 328 81 290 53 q 396 159 367 110 q 444 269 425 208 q 474 394 464 329 q 485 518 485 458 q 472 608 485 569 q 433 666 458 646 q 365 686 407 686 q 279 656 318 686 q 211 574 240 625 q 163 460 182 522 q 133 336 143 399 q 122 221 122 274 q 153 96 122 139 q 244 53 185 53 m 225 849 l 236 910 l 564 910 l 550 849 l 225 849 z "},"Ŏ":{"ha":757,"x_min":67,"x_max":725,"o":"m 310 -14 q 174 22 228 -14 q 93 129 119 58 q 67 301 67 200 q 78 453 67 374 q 112 613 89 533 q 169 763 135 692 q 251 888 204 833 q 356 974 297 943 q 485 1006 415 1006 q 663 931 600 1006 q 725 703 725 857 q 715 559 725 638 q 683 400 704 481 q 630 246 663 319 q 551 114 597 172 q 444 21 504 56 q 310 -14 385 -14 m 315 56 q 419 87 372 56 q 502 171 465 118 q 566 290 539 224 q 611 430 593 357 q 638 573 629 503 q 646 703 646 643 q 604 879 646 821 q 479 938 563 938 q 373 906 421 938 q 288 822 325 875 q 224 701 251 768 q 180 563 197 635 q 153 424 163 492 q 144 301 144 357 q 164 165 144 219 q 222 83 183 111 q 315 56 260 56 m 513 1079 q 433 1096 464 1079 q 388 1142 403 1113 q 372 1211 372 1172 q 373 1229 372 1221 q 375 1244 374 1238 l 425 1244 q 433 1189 425 1213 q 460 1153 440 1165 q 515 1140 481 1140 q 597 1165 569 1140 q 638 1244 625 1190 l 689 1244 q 631 1121 674 1163 q 513 1079 588 1079 z "},"ŏ":{"ha":607,"x_min":47,"x_max":578,"o":"m 239 -14 q 135 13 179 -14 q 69 93 92 40 q 47 222 47 146 q 59 353 47 282 q 96 495 71 425 q 159 624 121 565 q 251 717 197 682 q 371 751 304 751 q 474 724 432 751 q 538 644 515 696 q 560 515 560 592 q 547 373 560 446 q 509 231 535 300 q 445 106 483 161 q 356 19 407 51 q 239 -14 304 -14 m 244 53 q 328 81 290 53 q 396 159 367 110 q 444 269 425 208 q 474 394 464 329 q 485 518 485 458 q 472 608 485 569 q 433 666 458 646 q 365 686 407 686 q 279 656 318 686 q 211 574 240 625 q 163 460 182 522 q 133 336 143 399 q 122 221 122 274 q 153 96 122 139 q 244 53 185 53 m 401 843 q 322 860 353 843 q 276 906 292 876 q 261 975 261 936 q 262 993 261 985 q 264 1008 263 1001 l 314 1008 q 322 953 314 976 q 349 917 329 929 q 404 904 369 904 q 486 929 458 904 q 526 1008 514 954 l 578 1008 q 519 885 563 926 q 401 843 476 843 z "},"Ő":{"ha":757,"x_min":67,"x_max":808,"o":"m 310 -14 q 174 22 228 -14 q 93 129 119 58 q 67 301 67 200 q 78 453 67 374 q 112 613 89 533 q 169 763 135 692 q 251 888 204 833 q 356 974 297 943 q 485 1006 415 1006 q 663 931 600 1006 q 725 703 725 857 q 715 559 725 638 q 683 400 704 481 q 630 246 663 319 q 551 114 597 172 q 444 21 504 56 q 310 -14 385 -14 m 315 56 q 419 87 372 56 q 502 171 465 118 q 566 290 539 224 q 611 430 593 357 q 638 573 629 503 q 646 703 646 643 q 604 879 646 821 q 479 938 563 938 q 373 906 421 938 q 288 822 325 875 q 224 701 251 768 q 180 563 197 635 q 153 424 163 492 q 144 301 144 357 q 164 165 144 219 q 222 83 183 111 q 315 56 260 56 m 564 1090 q 628 1163 596 1125 q 685 1237 660 1201 q 726 1300 711 1272 l 808 1300 l 808 1289 q 769 1240 793 1268 q 715 1181 744 1211 q 657 1124 686 1150 q 603 1078 628 1097 l 564 1078 l 564 1090 m 360 1090 q 423 1163 392 1125 q 480 1237 454 1201 q 522 1300 506 1272 l 603 1300 l 603 1289 q 565 1239 589 1267 q 511 1181 540 1211 q 452 1124 482 1151 q 396 1078 422 1097 l 358 1078 l 360 1090 z "},"ő":{"ha":607,"x_min":47,"x_max":706,"o":"m 239 -14 q 135 13 179 -14 q 69 93 92 40 q 47 222 47 146 q 59 353 47 282 q 96 495 71 425 q 159 624 121 565 q 251 717 197 682 q 371 751 304 751 q 474 724 432 751 q 538 644 515 696 q 560 515 560 592 q 547 373 560 446 q 509 231 535 300 q 445 106 483 161 q 356 19 407 51 q 239 -14 304 -14 m 244 53 q 328 81 290 53 q 396 159 367 110 q 444 269 425 208 q 474 394 464 329 q 485 518 485 458 q 472 608 485 569 q 433 666 458 646 q 365 686 407 686 q 279 656 318 686 q 211 574 240 625 q 163 460 182 522 q 133 336 143 399 q 122 221 122 274 q 153 96 122 139 q 244 53 185 53 m 461 854 q 525 927 493 889 q 583 1001 557 965 q 624 1064 608 1036 l 706 1064 l 706 1053 q 666 1003 690 1032 q 613 944 642 975 q 554 888 583 914 q 500 842 525 861 l 461 842 l 461 854 m 257 854 q 320 927 289 889 q 377 1001 351 965 q 419 1064 403 1036 l 500 1064 l 500 1053 q 462 1003 486 1031 q 408 945 438 975 q 349 888 379 915 q 293 842 319 861 l 256 842 l 257 854 z "},"Œ":{"ha":892,"x_min":67,"x_max":957,"o":"m 317 -6 q 175 31 231 -6 q 93 137 119 68 q 67 300 67 206 q 82 482 67 386 q 128 669 97 578 q 209 836 160 761 q 327 955 258 911 q 483 999 396 999 q 544 997 517 999 q 592 992 572 994 l 957 992 l 943 922 l 631 922 l 553 554 l 844 554 l 829 486 l 538 486 l 449 69 l 761 69 l 746 0 l 393 0 q 360 -3 379 -1 q 317 -6 342 -6 m 326 64 q 353 65 340 64 q 374 68 365 65 l 556 924 q 522 928 540 926 q 479 931 504 931 q 357 890 411 931 q 263 783 303 850 q 197 633 224 715 q 158 465 171 550 q 146 304 146 379 q 165 172 146 226 q 224 91 185 118 q 326 64 264 64 z "},"œ":{"ha":953,"x_min":47,"x_max":924,"o":"m 233 -14 q 97 47 146 -14 q 47 228 47 108 q 59 355 47 285 q 95 494 71 425 q 157 622 119 564 q 247 716 194 681 q 368 751 300 751 q 489 702 449 751 q 536 563 529 653 q 642 701 579 650 q 778 751 704 751 q 883 715 843 751 q 924 606 924 679 q 900 500 924 549 q 830 416 876 451 q 714 360 783 381 q 553 340 644 340 l 535 340 q 528 288 531 317 q 525 232 525 260 q 562 95 525 140 q 671 50 599 50 q 748 63 713 50 q 818 94 783 75 l 818 28 q 744 -3 785 8 q 654 -14 703 -14 q 563 6 603 -14 q 499 67 524 26 q 468 171 475 108 q 372 38 431 89 q 233 -14 314 -14 m 243 51 q 327 81 289 51 q 394 160 365 111 q 442 271 422 210 q 471 397 461 332 q 481 519 481 461 q 451 643 481 600 q 363 686 422 686 q 277 656 315 686 q 210 576 239 626 q 161 466 181 526 q 132 342 142 406 q 122 225 122 279 q 153 94 122 138 q 243 51 185 51 m 561 403 q 723 428 658 403 q 819 499 788 454 q 851 603 851 544 q 831 664 851 640 q 771 688 811 688 q 676 649 721 688 q 597 547 631 611 q 546 403 563 482 l 561 403 z "},"Ŕ":{"ha":613,"x_min":21,"x_max":644,"o":"m 21 0 l 231 992 l 382 992 q 556 936 494 992 q 617 774 617 881 q 591 624 617 693 q 515 508 565 556 q 392 444 465 461 l 499 0 l 417 0 l 318 429 l 188 429 l 96 0 l 21 0 m 306 496 q 408 518 365 496 q 481 578 451 540 q 524 665 510 617 q 539 767 539 714 q 497 886 539 849 q 369 924 454 924 l 292 924 l 201 496 l 306 496 m 394 1108 q 456 1179 425 1142 q 514 1253 488 1217 q 558 1318 540 1289 l 646 1318 l 644 1307 q 606 1257 631 1286 q 551 1198 581 1228 q 492 1141 521 1168 q 439 1096 464 1114 l 394 1096 l 394 1108 z "},"ŕ":{"ha":407,"x_min":15,"x_max":494,"o":"m 15 0 l 171 738 l 231 738 l 208 603 l 213 603 q 261 679 233 646 q 324 732 289 713 q 403 751 360 751 q 435 749 419 751 q 463 743 450 747 l 443 669 q 419 676 432 674 q 390 678 406 678 q 310 651 346 678 q 247 581 275 625 q 200 485 219 538 q 169 379 181 432 l 89 0 l 15 0 m 244 851 q 306 922 275 885 q 364 996 338 960 q 408 1061 390 1032 l 496 1061 l 494 1050 q 456 1000 481 1029 q 401 941 431 971 q 342 884 371 911 q 289 839 314 857 l 244 839 l 244 851 z "},"Ŗ":{"ha":613,"x_min":21,"x_max":617,"o":"m 21 0 l 231 992 l 382 992 q 556 936 494 992 q 617 774 617 881 q 591 624 617 693 q 515 508 565 556 q 392 444 465 461 l 499 0 l 417 0 l 318 429 l 188 429 l 96 0 l 21 0 m 306 496 q 408 518 365 496 q 481 578 451 540 q 524 665 510 617 q 539 767 539 714 q 497 886 539 849 q 369 924 454 924 l 292 924 l 201 496 l 306 496 m 101 -289 q 142 -230 119 -265 q 183 -155 164 -194 q 213 -85 203 -115 l 283 -85 l 283 -99 q 249 -167 274 -128 q 197 -243 225 -206 q 142 -307 168 -281 l 101 -307 l 101 -289 z "},"ŗ":{"ha":407,"x_min":-39,"x_max":463,"o":"m 15 0 l 171 738 l 231 738 l 208 603 l 213 603 q 261 679 233 646 q 324 732 289 713 q 403 751 360 751 q 435 749 419 751 q 463 743 450 747 l 443 669 q 419 676 432 674 q 390 678 406 678 q 310 651 346 678 q 247 581 275 625 q 200 485 219 538 q 169 379 181 432 l 89 0 l 15 0 m -39 -289 q 1 -230 -21 -265 q 43 -155 24 -194 q 72 -85 63 -115 l 143 -85 l 143 -99 q 109 -167 133 -128 q 56 -243 85 -206 q 1 -307 28 -281 l -39 -307 l -39 -289 z "},"Ř":{"ha":613,"x_min":21,"x_max":640,"o":"m 21 0 l 231 992 l 382 992 q 556 936 494 992 q 617 774 617 881 q 591 624 617 693 q 515 508 565 556 q 392 444 465 461 l 499 0 l 417 0 l 318 429 l 188 429 l 96 0 l 21 0 m 306 496 q 408 518 365 496 q 481 578 451 540 q 524 665 510 617 q 539 767 539 714 q 497 886 539 849 q 369 924 454 924 l 292 924 l 201 496 l 306 496 m 400 1078 q 377 1146 393 1106 q 344 1224 361 1186 q 313 1286 326 1263 l 315 1300 l 356 1300 q 385 1258 369 1282 q 415 1206 400 1233 q 444 1150 431 1179 q 519 1229 479 1190 q 597 1300 558 1268 l 640 1300 l 639 1286 q 581 1225 615 1263 q 516 1148 547 1188 q 467 1078 485 1108 l 400 1078 z "},"ř":{"ha":407,"x_min":15,"x_max":532,"o":"m 15 0 l 171 738 l 231 738 l 208 603 l 213 603 q 261 679 233 646 q 324 732 289 713 q 403 751 360 751 q 435 749 419 751 q 463 743 450 747 l 443 669 q 419 676 432 674 q 390 678 406 678 q 310 651 346 678 q 247 581 275 625 q 200 485 219 538 q 169 379 181 432 l 89 0 l 15 0 m 292 842 q 269 910 285 869 q 235 988 253 950 q 204 1050 218 1026 l 207 1064 l 247 1064 q 276 1022 261 1046 q 307 970 292 997 q 336 914 322 943 q 410 993 371 954 q 489 1064 450 1032 l 532 1064 l 531 1050 q 473 989 507 1026 q 408 912 439 951 q 358 842 376 872 l 292 842 z "},"Ś":{"ha":557,"x_min":-18,"x_max":611,"o":"m 179 -14 q 67 -2 115 -14 q -18 29 18 10 l -12 108 q 74 72 25 86 q 181 57 122 57 q 264 70 225 57 q 333 109 303 83 q 378 174 363 135 q 394 264 394 213 q 381 341 394 307 q 337 408 367 375 q 260 482 307 440 q 188 553 219 518 q 139 633 157 589 q 121 733 121 676 q 142 851 121 800 q 202 936 164 901 q 291 988 240 971 q 400 1006 342 1006 q 509 991 460 1006 q 593 956 558 976 l 558 888 q 485 922 525 908 q 396 935 444 935 q 322 923 357 935 q 258 887 286 911 q 215 826 231 863 q 200 740 200 789 q 215 660 200 694 q 260 593 231 625 q 331 524 289 561 q 406 451 374 488 q 456 370 438 414 q 474 269 474 326 q 452 149 474 201 q 392 60 431 97 q 299 5 353 24 q 179 -14 244 -14 m 360 1108 q 422 1179 390 1142 q 479 1253 453 1217 q 524 1318 506 1289 l 611 1318 l 610 1307 q 571 1257 596 1286 q 516 1198 546 1228 q 458 1141 486 1168 q 404 1096 429 1114 l 360 1096 l 360 1108 z "},"ś":{"ha":465,"x_min":-10,"x_max":508,"o":"m 151 -14 q 57 -2 99 -14 q -10 24 15 10 l -10 100 q 60 67 18 82 q 147 51 101 51 q 232 69 199 51 q 282 119 265 86 q 299 196 299 151 q 288 253 299 228 q 254 302 276 278 q 197 357 232 326 q 139 415 164 386 q 99 477 114 443 q 85 554 85 511 q 111 657 85 613 q 185 726 138 701 q 296 751 232 751 q 394 738 351 751 q 467 707 436 725 l 435 646 q 374 675 408 663 q 296 688 339 688 q 198 654 235 688 q 161 563 161 621 q 170 508 161 532 q 200 460 179 483 q 253 410 221 438 q 318 346 290 375 q 360 283 346 317 q 375 201 375 250 q 349 86 375 135 q 273 12 322 38 q 151 -14 224 -14 m 258 851 q 320 922 289 885 q 378 996 351 960 q 422 1061 404 1032 l 510 1061 l 508 1050 q 469 1000 494 1029 q 415 941 444 971 q 356 884 385 911 q 303 839 328 857 l 258 839 l 258 851 z "},"Ŝ":{"ha":557,"x_min":-18,"x_max":593,"o":"m 179 -14 q 67 -2 115 -14 q -18 29 18 10 l -12 108 q 74 72 25 86 q 181 57 122 57 q 264 70 225 57 q 333 109 303 83 q 378 174 363 135 q 394 264 394 213 q 381 341 394 307 q 337 408 367 375 q 260 482 307 440 q 188 553 219 518 q 139 633 157 589 q 121 733 121 676 q 142 851 121 800 q 202 936 164 901 q 291 988 240 971 q 400 1006 342 1006 q 509 991 460 1006 q 593 956 558 976 l 558 888 q 485 922 525 908 q 396 935 444 935 q 322 923 357 935 q 258 887 286 911 q 215 826 231 863 q 200 740 200 789 q 215 660 200 694 q 260 593 231 625 q 331 524 289 561 q 406 451 374 488 q 456 370 438 414 q 474 269 474 326 q 452 149 474 201 q 392 60 431 97 q 299 5 353 24 q 179 -14 244 -14 m 243 1090 q 303 1156 271 1119 q 365 1229 335 1192 q 415 1300 394 1267 l 481 1300 q 504 1231 489 1271 q 538 1153 519 1192 q 568 1090 556 1115 l 567 1078 l 525 1078 q 495 1122 511 1099 q 465 1173 479 1146 q 436 1226 450 1200 q 363 1149 401 1188 q 285 1078 324 1110 l 240 1078 l 243 1090 z "},"ŝ":{"ha":465,"x_min":-10,"x_max":478,"o":"m 151 -14 q 57 -2 99 -14 q -10 24 15 10 l -10 100 q 60 67 18 82 q 147 51 101 51 q 232 69 199 51 q 282 119 265 86 q 299 196 299 151 q 288 253 299 228 q 254 302 276 278 q 197 357 232 326 q 139 415 164 386 q 99 477 114 443 q 85 554 85 511 q 111 657 85 613 q 185 726 138 701 q 296 751 232 751 q 394 738 351 751 q 467 707 436 725 l 435 646 q 374 675 408 663 q 296 688 339 688 q 198 654 235 688 q 161 563 161 621 q 170 508 161 532 q 200 460 179 483 q 253 410 221 438 q 318 346 290 375 q 360 283 346 317 q 375 201 375 250 q 349 86 375 135 q 273 12 322 38 q 151 -14 224 -14 m 153 854 q 213 919 181 883 q 274 993 244 956 q 325 1064 304 1031 l 390 1064 q 414 995 399 1035 q 447 917 429 956 q 478 854 465 879 l 476 842 l 435 842 q 405 886 421 863 q 374 937 389 910 q 346 990 360 964 q 272 913 311 951 q 194 842 233 874 l 150 842 l 153 854 z "},"Ş":{"ha":557,"x_min":-18,"x_max":593,"o":"m 179 -14 q 67 -2 115 -14 q -18 29 18 10 l -12 108 q 74 72 25 86 q 181 57 122 57 q 264 70 225 57 q 333 109 303 83 q 378 174 363 135 q 394 264 394 213 q 381 341 394 307 q 337 408 367 375 q 260 482 307 440 q 188 553 219 518 q 139 633 157 589 q 121 733 121 676 q 142 851 121 800 q 202 936 164 901 q 291 988 240 971 q 400 1006 342 1006 q 509 991 460 1006 q 593 956 558 976 l 558 888 q 485 922 525 908 q 396 935 444 935 q 322 923 357 935 q 258 887 286 911 q 215 826 231 863 q 200 740 200 789 q 215 660 200 694 q 260 593 231 625 q 331 524 289 561 q 406 451 374 488 q 456 370 438 414 q 474 269 474 326 q 452 149 474 201 q 392 60 431 97 q 299 5 353 24 q 179 -14 244 -14 m 83 -333 q 39 -331 58 -333 q 4 -324 19 -328 l 4 -271 q 34 -278 15 -275 q 78 -281 53 -281 q 137 -269 111 -281 q 177 -237 163 -258 q 192 -189 192 -217 q 165 -135 192 -153 q 86 -114 138 -118 l 158 0 l 211 0 l 158 -82 q 228 -116 201 -90 q 256 -186 256 -142 q 233 -263 256 -229 q 172 -315 211 -297 q 83 -333 133 -333 z "},"ş":{"ha":465,"x_min":-37,"x_max":467,"o":"m 151 -14 q 57 -2 99 -14 q -10 24 15 10 l -10 100 q 60 67 18 82 q 147 51 101 51 q 232 69 199 51 q 282 119 265 86 q 299 196 299 151 q 288 253 299 228 q 254 302 276 278 q 197 357 232 326 q 139 415 164 386 q 99 477 114 443 q 85 554 85 511 q 111 657 85 613 q 185 726 138 701 q 296 751 232 751 q 394 738 351 751 q 467 707 436 725 l 435 646 q 374 675 408 663 q 296 688 339 688 q 198 654 235 688 q 161 563 161 621 q 170 508 161 532 q 200 460 179 483 q 253 410 221 438 q 318 346 290 375 q 360 283 346 317 q 375 201 375 250 q 349 86 375 135 q 273 12 322 38 q 151 -14 224 -14 m 42 -333 q -3 -331 17 -333 q -37 -324 -22 -328 l -37 -271 q -8 -278 -26 -275 q 36 -281 11 -281 q 95 -269 69 -281 q 135 -237 121 -258 q 150 -189 150 -217 q 123 -135 150 -153 q 44 -114 96 -118 l 117 0 l 169 0 l 117 -82 q 187 -116 160 -90 q 214 -186 214 -142 q 192 -263 214 -229 q 131 -315 169 -297 q 42 -333 92 -333 z "},"Š":{"ha":557,"x_min":-18,"x_max":622,"o":"m 179 -14 q 67 -2 115 -14 q -18 29 18 10 l -12 108 q 74 72 25 86 q 181 57 122 57 q 264 70 225 57 q 333 109 303 83 q 378 174 363 135 q 394 264 394 213 q 381 341 394 307 q 337 408 367 375 q 260 482 307 440 q 188 553 219 518 q 139 633 157 589 q 121 733 121 676 q 142 851 121 800 q 202 936 164 901 q 291 988 240 971 q 400 1006 342 1006 q 509 991 460 1006 q 593 956 558 976 l 558 888 q 485 922 525 908 q 396 935 444 935 q 322 923 357 935 q 258 887 286 911 q 215 826 231 863 q 200 740 200 789 q 215 660 200 694 q 260 593 231 625 q 331 524 289 561 q 406 451 374 488 q 456 370 438 414 q 474 269 474 326 q 452 149 474 201 q 392 60 431 97 q 299 5 353 24 q 179 -14 244 -14 m 382 1078 q 359 1146 375 1106 q 326 1224 343 1186 q 294 1286 308 1263 l 297 1300 l 338 1300 q 367 1258 351 1282 q 397 1206 382 1233 q 426 1150 413 1179 q 501 1229 461 1190 q 579 1300 540 1268 l 622 1300 l 621 1286 q 563 1225 597 1263 q 498 1148 529 1188 q 449 1078 467 1108 l 382 1078 z "},"š":{"ha":465,"x_min":-10,"x_max":528,"o":"m 151 -14 q 57 -2 99 -14 q -10 24 15 10 l -10 100 q 60 67 18 82 q 147 51 101 51 q 232 69 199 51 q 282 119 265 86 q 299 196 299 151 q 288 253 299 228 q 254 302 276 278 q 197 357 232 326 q 139 415 164 386 q 99 477 114 443 q 85 554 85 511 q 111 657 85 613 q 185 726 138 701 q 296 751 232 751 q 394 738 351 751 q 467 707 436 725 l 435 646 q 374 675 408 663 q 296 688 339 688 q 198 654 235 688 q 161 563 161 621 q 170 508 161 532 q 200 460 179 483 q 253 410 221 438 q 318 346 290 375 q 360 283 346 317 q 375 201 375 250 q 349 86 375 135 q 273 12 322 38 q 151 -14 224 -14 m 286 842 q 263 910 279 869 q 230 988 247 950 q 199 1050 213 1026 l 201 1064 l 242 1064 q 271 1022 256 1046 q 301 970 286 997 q 331 914 317 943 q 405 993 365 954 q 483 1064 444 1032 l 526 1064 l 525 1050 q 467 989 501 1026 q 402 912 433 951 q 353 842 371 872 l 286 842 z "},"Ț":{"ha":515,"x_min":46,"x_max":628,"o":"m 131 0 l 326 922 l 118 922 l 132 992 l 628 992 l 613 922 l 403 922 l 207 0 l 131 0 m 44 -289 q 85 -230 63 -265 q 126 -155 107 -194 q 156 -85 146 -115 l 226 -85 l 226 -99 q 192 -167 217 -128 q 140 -243 168 -206 q 85 -307 111 -281 l 44 -307 l 44 -289 z "},"ț":{"ha":338,"x_min":-33,"x_max":372,"o":"m 154 -14 q 71 16 100 -14 q 42 104 42 46 q 45 151 42 125 q 56 207 49 178 l 154 675 l 75 675 l 85 719 l 169 740 l 226 913 l 279 913 l 242 738 l 372 738 l 358 675 l 229 675 l 129 204 q 119 155 124 178 q 115 114 115 132 q 129 68 115 85 q 174 51 143 51 q 210 56 192 51 q 243 65 228 60 l 243 3 q 202 -9 225 -4 q 154 -14 179 -14 m -33 -289 q 7 -230 -15 -265 q 49 -155 29 -194 q 78 -85 68 -115 l 149 -85 l 149 -99 q 115 -167 139 -128 q 62 -243 90 -206 q 7 -307 33 -281 l -33 -307 l -33 -289 z "},"Ť":{"ha":515,"x_min":118,"x_max":628,"o":"m 131 0 l 326 922 l 118 922 l 132 992 l 628 992 l 613 922 l 403 922 l 207 0 l 131 0 m 356 1078 q 333 1146 349 1106 q 299 1224 317 1186 q 268 1286 282 1263 l 271 1300 l 311 1300 q 340 1258 325 1282 q 371 1206 356 1233 q 400 1150 386 1179 q 474 1229 435 1190 q 553 1300 514 1268 l 596 1300 l 594 1286 q 537 1225 571 1263 q 472 1148 503 1188 q 422 1078 440 1108 l 356 1078 z "},"ť":{"ha":333,"x_min":42,"x_max":493,"o":"m 328 835 q 363 905 346 868 q 396 979 381 942 q 419 1046 411 1017 l 493 1046 l 492 1032 q 462 967 482 1006 q 417 890 442 928 q 371 824 393 851 l 328 824 l 328 835 m 154 -14 q 71 16 100 -14 q 42 104 42 46 q 45 151 42 125 q 56 207 49 178 l 154 675 l 75 675 l 85 719 l 169 740 l 226 913 l 279 913 l 242 738 l 372 738 l 358 675 l 229 675 l 129 204 q 119 155 124 178 q 115 114 115 132 q 129 68 115 85 q 174 51 143 51 q 210 56 192 51 q 243 65 228 60 l 243 3 q 202 -9 225 -4 q 154 -14 179 -14 z "},"Ŧ":{"ha":513,"x_min":79,"x_max":628,"o":"m 131 0 l 233 481 l 79 481 l 92 543 l 246 543 l 326 922 l 118 922 l 132 992 l 628 992 l 613 922 l 403 922 l 322 543 l 482 543 l 469 481 l 308 481 l 207 0 l 131 0 z "},"ŧ":{"ha":331,"x_min":14,"x_max":372,"o":"m 154 -14 q 69 16 99 -14 q 40 104 40 46 q 44 149 40 124 q 54 204 49 175 l 94 392 l 14 392 l 28 453 l 107 453 l 154 675 l 75 675 l 85 719 l 169 740 l 226 913 l 279 913 l 242 738 l 372 738 l 358 675 l 228 675 l 181 453 l 311 453 l 299 392 l 168 392 l 128 204 q 119 156 122 178 q 115 115 115 133 q 129 69 115 86 q 175 51 143 51 q 210 56 193 51 q 243 65 226 60 l 243 3 q 201 -9 225 -4 q 154 -14 178 -14 z "},"Ũ":{"ha":721,"x_min":65,"x_max":744,"o":"m 285 -14 q 169 11 218 -14 q 92 85 119 36 q 65 203 65 133 q 69 258 65 228 q 81 322 74 289 l 222 992 l 299 992 l 156 319 q 146 261 149 290 q 143 208 143 232 q 183 94 143 133 q 292 56 222 56 q 403 86 358 56 q 477 177 447 117 q 526 328 507 238 l 669 992 l 744 992 l 600 321 q 540 142 578 217 q 440 26 501 67 q 285 -14 378 -14 m 304 1083 q 331 1168 314 1135 q 374 1219 349 1201 q 435 1236 400 1236 q 485 1223 463 1236 q 526 1192 507 1210 q 561 1162 544 1175 q 597 1149 578 1149 q 641 1168 624 1149 q 669 1238 658 1188 l 722 1238 q 694 1151 713 1185 q 651 1101 676 1117 q 594 1085 626 1085 q 545 1098 567 1085 q 506 1128 524 1111 q 469 1159 488 1146 q 431 1172 451 1172 q 384 1151 401 1172 q 356 1083 367 1129 l 304 1083 z "},"ũ":{"ha":611,"x_min":47,"x_max":626,"o":"m 190 -14 q 114 3 146 -14 q 65 51 82 19 q 47 131 47 83 q 53 195 47 158 q 67 267 60 232 l 167 738 l 242 738 l 140 264 q 128 200 133 231 q 124 142 124 169 q 146 76 124 99 q 210 53 168 53 q 306 88 263 53 q 381 190 349 122 q 433 353 414 257 l 515 738 l 589 738 l 433 0 l 374 0 l 392 121 l 388 121 q 338 53 367 83 q 271 4 308 22 q 190 -14 233 -14 m 208 847 q 235 932 218 899 q 278 983 253 965 q 339 1000 304 1000 q 389 987 367 1000 q 430 956 411 974 q 465 926 449 939 q 501 913 482 913 q 545 932 528 913 q 574 1001 563 951 l 626 1001 q 599 915 617 949 q 556 865 581 881 q 499 849 531 849 q 449 862 471 849 q 410 892 428 875 q 374 923 392 910 q 335 936 356 936 q 288 915 306 936 q 260 847 271 893 l 208 847 z "},"Ū":{"ha":721,"x_min":65,"x_max":744,"o":"m 285 -14 q 169 11 218 -14 q 92 85 119 36 q 65 203 65 133 q 69 258 65 228 q 81 322 74 289 l 222 992 l 299 992 l 156 319 q 146 261 149 290 q 143 208 143 232 q 183 94 143 133 q 292 56 222 56 q 403 86 358 56 q 477 177 447 117 q 526 328 507 238 l 669 992 l 744 992 l 600 321 q 540 142 578 217 q 440 26 501 67 q 285 -14 378 -14 m 333 1085 l 344 1146 l 672 1146 l 658 1085 l 333 1085 z "},"ū":{"ha":611,"x_min":47,"x_max":589,"o":"m 190 -14 q 114 3 146 -14 q 65 51 82 19 q 47 131 47 83 q 53 195 47 158 q 67 267 60 232 l 167 738 l 242 738 l 140 264 q 128 200 133 231 q 124 142 124 169 q 146 76 124 99 q 210 53 168 53 q 306 88 263 53 q 381 190 349 122 q 433 353 414 257 l 515 738 l 589 738 l 433 0 l 374 0 l 392 121 l 388 121 q 338 53 367 83 q 271 4 308 22 q 190 -14 233 -14 m 233 849 l 244 910 l 572 910 l 558 849 l 233 849 z "},"Ŭ":{"ha":721,"x_min":65,"x_max":744,"o":"m 285 -14 q 169 11 218 -14 q 92 85 119 36 q 65 203 65 133 q 69 258 65 228 q 81 322 74 289 l 222 992 l 299 992 l 156 319 q 146 261 149 290 q 143 208 143 232 q 183 94 143 133 q 292 56 222 56 q 403 86 358 56 q 477 177 447 117 q 526 328 507 238 l 669 992 l 744 992 l 600 321 q 540 142 578 217 q 440 26 501 67 q 285 -14 378 -14 m 497 1079 q 418 1096 449 1079 q 372 1142 388 1113 q 357 1211 357 1172 q 358 1229 357 1221 q 360 1244 358 1238 l 410 1244 q 417 1189 410 1213 q 445 1153 425 1165 q 500 1140 465 1140 q 582 1165 554 1140 q 622 1244 610 1190 l 674 1244 q 615 1121 658 1163 q 497 1079 572 1079 z "},"ŭ":{"ha":611,"x_min":47,"x_max":589,"o":"m 190 -14 q 114 3 146 -14 q 65 51 82 19 q 47 131 47 83 q 53 195 47 158 q 67 267 60 232 l 167 738 l 242 738 l 140 264 q 128 200 133 231 q 124 142 124 169 q 146 76 124 99 q 210 53 168 53 q 306 88 263 53 q 381 190 349 122 q 433 353 414 257 l 515 738 l 589 738 l 433 0 l 374 0 l 392 121 l 388 121 q 338 53 367 83 q 271 4 308 22 q 190 -14 233 -14 m 400 843 q 321 860 351 843 q 275 906 290 876 q 260 975 260 936 q 260 993 260 985 q 263 1008 261 1001 l 313 1008 q 320 953 313 976 q 348 917 328 929 q 403 904 368 904 q 485 929 457 904 q 525 1008 513 954 l 576 1008 q 518 885 561 926 q 400 843 475 843 z "},"Ů":{"ha":721,"x_min":65,"x_max":744,"o":"m 285 -14 q 169 11 218 -14 q 92 85 119 36 q 65 203 65 133 q 69 258 65 228 q 81 322 74 289 l 222 992 l 299 992 l 156 319 q 146 261 149 290 q 143 208 143 232 q 183 94 143 133 q 292 56 222 56 q 403 86 358 56 q 477 177 447 117 q 526 328 507 238 l 669 992 l 744 992 l 600 321 q 540 142 578 217 q 440 26 501 67 q 285 -14 378 -14 m 510 1083 q 412 1119 449 1083 q 375 1217 375 1154 q 413 1312 375 1275 q 510 1349 450 1349 q 608 1312 572 1349 q 644 1218 644 1275 q 608 1121 644 1158 q 510 1083 571 1083 m 510 1132 q 571 1156 549 1132 q 593 1217 593 1179 q 571 1276 593 1253 q 510 1300 549 1300 q 449 1276 472 1300 q 426 1217 426 1253 q 448 1156 426 1179 q 510 1132 469 1132 z "},"ů":{"ha":611,"x_min":47,"x_max":589,"o":"m 190 -14 q 114 3 146 -14 q 65 51 82 19 q 47 131 47 83 q 53 195 47 158 q 67 267 60 232 l 167 738 l 242 738 l 140 264 q 128 200 133 231 q 124 142 124 169 q 146 76 124 99 q 210 53 168 53 q 306 88 263 53 q 381 190 349 122 q 433 353 414 257 l 515 738 l 589 738 l 433 0 l 374 0 l 392 121 l 388 121 q 338 53 367 83 q 271 4 308 22 q 190 -14 233 -14 m 411 847 q 313 883 350 847 q 276 981 276 918 q 314 1076 276 1039 q 411 1113 351 1113 q 510 1076 474 1113 q 546 982 546 1039 q 509 885 546 922 q 411 847 472 847 m 411 896 q 472 919 450 896 q 494 981 494 943 q 472 1040 494 1017 q 411 1064 450 1064 q 351 1040 374 1064 q 328 981 328 1017 q 349 919 328 943 q 411 896 371 896 z "},"Ű":{"ha":721,"x_min":65,"x_max":806,"o":"m 285 -14 q 169 11 218 -14 q 92 85 119 36 q 65 203 65 133 q 69 258 65 228 q 81 322 74 289 l 222 992 l 299 992 l 156 319 q 146 261 149 290 q 143 208 143 232 q 183 94 143 133 q 292 56 222 56 q 403 86 358 56 q 477 177 447 117 q 526 328 507 238 l 669 992 l 744 992 l 600 321 q 540 142 578 217 q 440 26 501 67 q 285 -14 378 -14 m 561 1090 q 625 1163 593 1125 q 683 1237 657 1201 q 724 1300 708 1272 l 806 1300 l 806 1289 q 766 1240 790 1268 q 713 1181 742 1211 q 654 1124 683 1150 q 600 1078 625 1097 l 561 1078 l 561 1090 m 357 1090 q 420 1163 389 1125 q 477 1237 451 1201 q 519 1300 503 1272 l 600 1300 l 600 1289 q 562 1239 586 1267 q 508 1181 538 1211 q 449 1124 479 1151 q 393 1078 419 1097 l 356 1078 l 357 1090 z "},"ű":{"ha":611,"x_min":47,"x_max":707,"o":"m 190 -14 q 114 3 146 -14 q 65 51 82 19 q 47 131 47 83 q 53 195 47 158 q 67 267 60 232 l 167 738 l 242 738 l 140 264 q 128 200 133 231 q 124 142 124 169 q 146 76 124 99 q 210 53 168 53 q 306 88 263 53 q 381 190 349 122 q 433 353 414 257 l 515 738 l 589 738 l 433 0 l 374 0 l 392 121 l 388 121 q 338 53 367 83 q 271 4 308 22 q 190 -14 233 -14 m 463 854 q 526 927 494 889 q 584 1001 558 965 q 625 1064 610 1036 l 707 1064 l 707 1053 q 667 1003 692 1032 q 614 944 643 975 q 556 888 585 914 q 501 842 526 861 l 463 842 l 463 854 m 258 854 q 322 927 290 889 q 378 1001 353 965 q 421 1064 404 1036 l 501 1064 l 501 1053 q 463 1003 488 1031 q 410 945 439 975 q 351 888 381 915 q 294 842 321 861 l 257 842 l 258 854 z "},"Ų":{"ha":721,"x_min":65,"x_max":744,"o":"m 285 -14 q 169 11 218 -14 q 92 85 119 36 q 65 203 65 133 q 69 258 65 228 q 81 322 74 289 l 222 992 l 299 992 l 156 319 q 146 261 149 290 q 143 208 143 232 q 183 94 143 133 q 292 56 222 56 q 403 86 358 56 q 477 177 447 117 q 526 328 507 238 l 669 992 l 744 992 l 600 321 q 540 142 578 217 q 440 26 501 67 q 285 -14 378 -14 m 265 -304 q 190 -277 217 -304 q 163 -207 163 -250 q 178 -133 163 -167 q 228 -65 194 -99 q 310 3 261 -32 l 364 0 q 292 -66 322 -35 q 247 -128 263 -97 q 231 -193 231 -158 q 244 -233 231 -219 q 285 -247 258 -247 q 312 -244 299 -247 q 338 -239 325 -242 l 331 -293 q 301 -301 317 -297 q 265 -304 285 -304 z "},"ų":{"ha":611,"x_min":47,"x_max":589,"o":"m 190 -14 q 114 3 146 -14 q 65 51 82 19 q 47 131 47 83 q 53 195 47 158 q 67 267 60 232 l 167 738 l 242 738 l 140 264 q 128 200 133 231 q 124 142 124 169 q 146 76 124 99 q 210 53 168 53 q 306 88 263 53 q 381 190 349 122 q 433 353 414 257 l 515 738 l 589 738 l 433 0 l 374 0 l 392 121 l 388 121 q 338 53 367 83 q 271 4 308 22 q 190 -14 233 -14 m 335 -304 q 259 -277 286 -304 q 232 -207 232 -250 q 248 -133 232 -167 q 297 -65 264 -99 q 379 3 331 -32 l 433 0 q 362 -66 392 -35 q 316 -128 332 -97 q 300 -193 300 -158 q 314 -233 300 -219 q 354 -247 328 -247 q 381 -244 368 -247 q 407 -239 394 -242 l 400 -293 q 370 -301 386 -297 q 335 -304 354 -304 z "},"Ŵ":{"ha":958,"x_min":132,"x_max":1064,"o":"m 132 0 l 132 992 l 206 992 l 203 292 q 201 192 203 238 q 197 111 200 147 l 201 111 q 237 206 218 158 q 274 299 256 254 l 563 992 l 635 992 l 631 315 q 629 242 631 278 q 627 174 628 207 q 625 108 626 140 l 628 108 q 652 174 640 142 q 678 241 664 207 q 706 314 692 275 l 983 992 l 1064 992 l 650 0 l 563 0 l 568 710 q 569 757 568 733 q 570 805 569 781 q 571 853 571 829 l 568 853 q 545 788 557 821 q 518 721 533 756 l 219 0 l 132 0 m 438 1090 q 497 1156 465 1119 q 559 1229 529 1192 q 610 1300 589 1267 l 675 1300 q 699 1231 683 1271 q 732 1153 714 1192 q 763 1090 750 1115 l 761 1078 l 719 1078 q 690 1122 706 1099 q 659 1173 674 1146 q 631 1226 644 1200 q 557 1149 596 1188 q 479 1078 518 1110 l 435 1078 l 438 1090 z "},"ŵ":{"ha":774,"x_min":85,"x_max":833,"o":"m 89 0 l 85 738 l 156 738 l 156 272 q 156 183 157 225 q 151 106 154 142 l 156 106 q 173 156 163 129 q 195 212 183 183 q 218 267 207 240 l 421 738 l 500 738 l 504 274 q 503 190 504 236 q 500 104 503 143 l 504 104 q 524 159 514 131 q 546 218 533 188 q 571 282 558 249 l 757 738 l 833 738 l 524 0 l 440 0 l 439 493 q 439 539 439 515 q 440 588 439 563 q 442 638 440 613 l 439 638 q 423 594 431 615 q 406 551 415 572 q 386 504 397 529 l 172 0 l 89 0 m 306 854 q 365 919 333 883 q 427 993 397 956 q 478 1064 457 1031 l 543 1064 q 567 995 551 1035 q 600 917 582 956 q 631 854 618 879 l 629 842 l 588 842 q 558 886 574 863 q 527 937 542 910 q 499 990 513 964 q 425 913 464 951 q 347 842 386 874 l 303 842 l 306 854 z "},"Ŷ":{"ha":521,"x_min":121,"x_max":642,"o":"m 133 0 l 214 381 l 121 992 l 197 992 l 269 478 l 558 992 l 642 992 l 290 382 l 210 0 l 133 0 m 226 1090 q 286 1156 254 1119 q 348 1229 318 1192 q 399 1300 378 1267 l 464 1300 q 488 1231 472 1271 q 521 1153 503 1192 q 551 1090 539 1115 l 550 1078 l 508 1078 q 478 1122 494 1099 q 448 1173 463 1146 q 419 1226 433 1200 q 346 1149 385 1188 q 268 1078 307 1110 l 224 1078 l 226 1090 z "},"ŷ":{"ha":490,"x_min":-144,"x_max":561,"o":"m -72 -336 q -115 -332 -97 -336 q -144 -322 -132 -328 l -137 -256 q -108 -266 -124 -262 q -74 -269 -93 -269 q 4 -236 -28 -269 q 68 -135 36 -203 l 135 7 l 90 738 l 165 738 l 186 276 q 190 219 189 249 q 191 160 190 189 q 190 107 192 132 l 194 107 q 215 158 204 131 q 239 215 226 186 q 263 265 251 243 l 483 738 l 561 738 l 138 -154 q 79 -254 108 -214 q 14 -315 50 -294 q -72 -336 -22 -336 m 167 854 q 226 919 194 883 q 288 993 258 956 q 339 1064 318 1031 l 404 1064 q 428 995 413 1035 q 461 917 443 956 q 492 854 479 879 l 490 842 l 449 842 q 419 886 435 863 q 388 937 403 910 q 360 990 374 964 q 286 913 325 951 q 208 842 247 874 l 164 842 l 167 854 z "},"Ÿ":{"ha":521,"x_min":121,"x_max":642,"o":"m 133 0 l 214 381 l 121 992 l 197 992 l 269 478 l 558 992 l 642 992 l 290 382 l 210 0 l 133 0 m 497 1124 q 469 1135 479 1124 q 458 1165 458 1146 q 472 1216 458 1193 q 514 1239 486 1239 q 542 1228 532 1239 q 551 1197 551 1217 q 536 1147 551 1169 q 497 1124 521 1124 m 289 1124 q 260 1135 271 1124 q 250 1165 250 1146 q 265 1216 250 1193 q 306 1239 279 1239 q 326 1234 318 1239 q 339 1220 335 1229 q 343 1197 343 1211 q 328 1147 343 1169 q 289 1124 314 1124 z "},"Ź":{"ha":533,"x_min":-44,"x_max":608,"o":"m -44 0 l -32 60 l 506 922 l 165 922 l 181 992 l 608 992 l 596 931 l 58 69 l 424 69 l 410 0 l -44 0 m 351 1108 q 413 1179 382 1142 q 471 1253 444 1217 q 515 1318 497 1289 l 603 1318 l 601 1307 q 563 1257 588 1286 q 508 1198 538 1228 q 449 1141 478 1168 q 396 1096 421 1114 l 351 1096 l 351 1108 z "},"ź":{"ha":433,"x_min":-40,"x_max":497,"o":"m -40 0 l -29 53 l 365 675 l 122 675 l 135 738 l 461 738 l 450 682 l 58 64 l 328 64 l 315 0 l -40 0 m 247 851 q 309 922 278 885 q 367 996 340 960 q 411 1061 393 1032 l 499 1061 l 497 1050 q 458 1000 483 1029 q 403 941 433 971 q 345 884 374 911 q 292 839 317 857 l 247 839 l 247 851 z "},"Ż":{"ha":533,"x_min":-44,"x_max":608,"o":"m -44 0 l -32 60 l 506 922 l 165 922 l 181 992 l 608 992 l 596 931 l 58 69 l 424 69 l 410 0 l -44 0 m 410 1121 q 379 1133 390 1121 q 368 1167 368 1146 q 383 1219 368 1194 q 428 1244 399 1244 q 451 1239 442 1244 q 465 1224 460 1233 q 469 1199 469 1214 q 453 1145 469 1169 q 410 1121 438 1121 z "},"ż":{"ha":433,"x_min":-40,"x_max":461,"o":"m -40 0 l -29 53 l 365 675 l 122 675 l 135 738 l 461 738 l 450 682 l 58 64 l 328 64 l 315 0 l -40 0 m 328 885 q 297 897 308 885 q 286 931 286 910 q 301 983 286 958 q 346 1008 317 1008 q 369 1003 360 1008 q 383 988 378 997 q 388 963 388 978 q 372 909 388 933 q 328 885 356 885 z "},"Ž":{"ha":533,"x_min":-44,"x_max":611,"o":"m -44 0 l -32 60 l 506 922 l 165 922 l 181 992 l 608 992 l 596 931 l 58 69 l 424 69 l 410 0 l -44 0 m 371 1078 q 348 1146 364 1106 q 315 1224 332 1186 q 283 1286 297 1263 l 286 1300 l 326 1300 q 356 1258 340 1282 q 386 1206 371 1233 q 415 1150 401 1179 q 490 1229 450 1190 q 568 1300 529 1268 l 611 1300 l 610 1286 q 552 1225 586 1263 q 487 1148 518 1188 q 438 1078 456 1108 l 371 1078 z "},"ž":{"ha":433,"x_min":-40,"x_max":519,"o":"m -40 0 l -29 53 l 365 675 l 122 675 l 135 738 l 461 738 l 450 682 l 58 64 l 328 64 l 315 0 l -40 0 m 279 842 q 256 910 272 869 q 223 988 240 950 q 192 1050 206 1026 l 194 1064 l 235 1064 q 264 1022 249 1046 q 294 970 279 997 q 324 914 310 943 q 398 993 358 954 q 476 1064 438 1032 l 519 1064 l 518 1050 q 460 989 494 1026 q 395 912 426 951 q 346 842 364 872 l 279 842 z "},"ſ":{"ha":282,"x_min":-189,"x_max":478,"o":"m -122 -333 q -159 -331 -142 -333 q -189 -322 -176 -328 l -189 -256 q -161 -264 -176 -261 q -128 -267 -146 -267 q -53 -226 -78 -267 q -12 -110 -28 -185 l 192 849 q 231 965 207 918 q 291 1038 254 1013 q 385 1063 328 1063 q 437 1057 411 1063 q 478 1043 463 1051 l 453 982 q 421 993 439 989 q 385 997 403 997 q 326 977 349 997 q 288 921 303 957 q 264 838 274 885 l 60 -117 q 25 -229 46 -181 q -31 -306 4 -278 q -122 -333 -65 -333 z "},"ƒ":{"ha":483,"x_min":-118,"x_max":654,"o":"m 44 -335 q -47 -312 -10 -335 q -101 -252 -83 -290 q -118 -169 -118 -214 q -115 -131 -118 -149 q -106 -97 -111 -112 l -42 -115 q -47 -141 -44 -128 q -50 -168 -50 -154 q -40 -219 -50 -196 q -9 -256 -31 -243 q 44 -269 13 -269 q 120 -232 94 -269 q 160 -129 146 -194 l 332 675 l 236 675 l 244 718 l 344 739 l 368 846 q 397 941 381 900 q 435 1009 413 982 q 488 1049 457 1036 q 561 1063 519 1063 q 613 1057 588 1063 q 654 1043 638 1051 l 629 982 q 598 993 615 989 q 563 997 581 997 q 485 958 511 997 q 440 840 458 919 l 419 738 l 538 738 l 524 675 l 406 675 l 233 -135 q 170 -282 214 -229 q 44 -335 126 -335 z "},"Ǻ":{"ha":585,"x_min":-86,"x_max":622,"o":"m 321 856 q 278 897 294 869 q 263 960 263 924 q 299 1057 263 1021 q 399 1093 336 1093 q 495 1056 458 1093 q 533 963 532 1018 q 510 884 533 915 q 447 842 486 853 l 501 0 l 425 0 l 404 331 l 153 331 l -4 0 l -86 0 l 321 856 m 183 400 l 403 400 l 388 713 q 383 769 385 740 q 382 821 382 797 l 374 821 q 353 770 365 799 q 328 713 342 742 l 183 400 m 397 878 q 458 901 435 878 q 481 960 481 924 q 458 1020 481 996 q 397 1044 436 1044 q 338 1020 360 1044 q 315 960 315 996 q 336 901 315 924 q 397 878 357 878 m 374 1140 q 431 1202 401 1168 q 487 1269 461 1236 q 531 1332 513 1303 l 622 1332 l 622 1321 q 567 1258 601 1294 q 494 1188 532 1222 q 422 1129 456 1153 l 374 1129 l 374 1140 z "},"ǻ":{"ha":624,"x_min":47,"x_max":649,"o":"m 208 -14 q 119 10 156 -14 q 65 83 83 35 q 47 199 47 131 q 60 341 47 265 q 98 490 72 417 q 162 622 124 563 q 252 716 200 681 q 368 751 304 751 q 435 737 407 751 q 481 696 463 722 q 510 633 500 669 l 514 633 l 544 738 l 606 738 l 449 0 l 389 0 l 407 124 l 403 124 q 345 52 376 83 q 280 3 314 21 q 208 -14 246 -14 m 222 53 q 319 92 276 53 q 395 197 363 132 q 447 336 428 263 q 471 447 464 396 q 478 546 478 499 q 449 648 478 611 q 369 685 419 685 q 285 654 324 685 q 216 572 246 624 q 166 456 186 519 q 135 324 146 392 q 124 196 124 257 q 147 89 124 125 q 222 53 169 53 m 411 808 q 314 844 351 808 q 276 940 276 879 q 314 1036 276 1000 q 411 1072 351 1072 q 509 1037 471 1072 q 547 943 547 1001 q 510 844 547 881 q 411 808 472 808 m 413 857 q 472 880 449 857 q 496 940 496 903 q 473 1001 496 978 q 413 1025 450 1025 q 352 1001 375 1025 q 329 940 329 978 q 350 878 329 900 q 413 857 371 857 m 400 1135 q 450 1193 424 1163 q 502 1257 476 1224 q 547 1324 528 1290 l 649 1324 l 649 1313 q 595 1254 629 1288 q 522 1187 561 1221 q 446 1125 483 1153 l 400 1125 l 400 1135 z "},"Ǽ":{"ha":833,"x_min":-90,"x_max":893,"o":"m -90 0 l 424 992 l 893 992 l 879 922 l 568 922 l 489 554 l 782 554 l 767 486 l 475 486 l 386 69 l 697 69 l 683 0 l 296 0 l 371 353 l 172 353 l -7 0 l -90 0 m 208 422 l 386 422 l 492 922 l 463 922 l 208 422 m 508 1108 q 570 1179 539 1142 q 628 1253 601 1217 q 672 1318 654 1289 l 760 1318 l 758 1307 q 719 1257 744 1286 q 665 1198 694 1228 q 606 1141 635 1168 q 553 1096 578 1114 l 508 1096 l 508 1108 z "},"ǽ":{"ha":918,"x_min":46,"x_max":897,"o":"m 199 -14 q 117 12 151 -14 q 65 87 83 38 q 46 207 46 136 q 60 358 46 281 q 101 505 74 435 q 166 631 128 575 q 253 719 204 686 q 361 751 303 751 q 428 735 401 751 q 472 690 456 718 q 496 625 489 661 l 500 625 l 529 738 l 585 738 l 560 622 q 644 715 594 679 q 756 751 693 751 q 858 715 818 751 q 897 606 897 678 q 874 499 897 547 q 803 415 850 450 q 686 360 756 381 q 526 340 617 340 l 508 340 q 501 289 504 317 q 499 232 499 261 q 533 97 499 144 q 643 50 568 50 q 721 63 683 50 q 794 94 758 75 l 790 26 q 717 -3 756 8 q 631 -14 678 -14 q 517 21 563 -14 q 457 126 472 56 l 431 0 l 376 0 l 399 128 l 394 128 q 342 54 371 86 q 278 4 313 22 q 199 -14 243 -14 m 221 51 q 293 74 260 51 q 353 135 326 96 q 400 226 379 175 q 433 335 421 278 q 456 448 449 394 q 464 547 464 501 q 439 649 464 613 q 368 686 414 686 q 285 656 324 686 q 217 577 247 626 q 166 466 188 528 q 133 338 144 404 q 122 211 122 272 q 149 90 122 129 q 221 51 175 51 m 535 403 q 696 428 631 403 q 793 499 761 454 q 825 600 825 544 q 805 664 825 640 q 743 688 785 688 q 651 651 694 688 q 573 551 607 615 q 519 403 539 486 l 535 403 m 492 851 q 553 922 522 885 q 611 996 585 960 q 656 1061 638 1032 l 743 1061 l 742 1050 q 703 1000 728 1029 q 648 941 678 971 q 590 884 618 911 q 536 839 561 857 l 492 839 l 492 851 z "},"Ǿ":{"ha":758,"x_min":1,"x_max":792,"o":"m 49 -57 l 1 -25 l 100 119 q 75 201 83 154 q 67 301 67 247 q 78 453 67 374 q 112 613 89 533 q 169 763 135 692 q 251 888 204 833 q 356 974 297 943 q 485 1006 415 1006 q 587 986 543 1006 q 660 925 631 967 l 743 1046 l 792 1014 l 693 872 q 717 796 708 839 q 725 703 725 753 q 715 559 725 638 q 683 400 704 481 q 630 246 663 319 q 551 114 597 172 q 444 21 504 56 q 310 -14 385 -14 q 208 6 251 -14 q 135 67 164 26 l 49 -57 m 315 56 q 418 85 372 56 q 500 167 464 115 q 563 283 536 218 q 608 420 590 349 q 635 561 626 492 q 644 689 644 631 q 643 741 646 717 q 633 785 640 765 l 181 135 q 235 75 201 94 q 315 56 269 56 m 614 857 q 560 918 593 899 q 479 938 528 938 q 374 907 421 938 q 290 825 326 876 q 227 708 254 774 q 182 573 200 643 q 155 436 164 503 q 146 315 146 369 q 149 256 146 283 q 158 204 151 228 l 614 857 m 468 1107 q 530 1178 499 1140 q 588 1251 561 1215 q 632 1317 614 1288 l 719 1317 l 718 1306 q 679 1256 704 1285 q 624 1197 654 1226 q 566 1140 594 1167 q 513 1094 538 1113 l 468 1094 l 468 1107 z "},"ǿ":{"ha":610,"x_min":-1,"x_max":611,"o":"m 44 -74 l -1 -43 l 78 76 q 56 140 64 104 q 47 222 47 176 q 59 352 47 281 q 96 494 71 424 q 159 622 121 564 q 250 716 197 681 q 371 751 303 751 q 442 739 411 751 q 497 701 474 726 l 565 804 l 611 774 l 532 657 q 553 594 546 629 q 560 517 560 558 q 548 379 560 451 q 511 238 536 307 q 448 111 486 168 q 358 20 410 54 q 239 -14 306 -14 q 169 -2 200 -14 q 114 32 138 10 l 44 -74 m 244 50 q 328 78 290 50 q 394 152 365 106 q 443 258 422 199 q 474 379 464 317 q 486 500 485 442 q 484 543 486 524 q 478 578 482 563 l 154 93 q 193 61 169 72 q 244 50 217 50 m 457 642 q 420 676 443 664 q 365 688 397 688 q 281 658 319 688 q 214 580 243 629 q 164 471 185 531 q 133 349 143 411 q 121 232 122 288 q 124 188 121 208 q 132 153 126 168 l 457 642 m 342 851 q 403 922 372 885 q 461 996 435 960 q 506 1061 488 1032 l 593 1061 l 592 1050 q 553 1000 578 1029 q 498 941 528 971 q 440 884 468 911 q 386 839 411 857 l 342 839 l 342 851 z "},"Ș":{"ha":557,"x_min":-18,"x_max":593,"o":"m 179 -14 q 67 -2 115 -14 q -18 29 18 10 l -12 108 q 74 72 25 86 q 181 57 122 57 q 264 70 225 57 q 333 109 303 83 q 378 174 363 135 q 394 264 394 213 q 381 341 394 307 q 337 408 367 375 q 260 482 307 440 q 188 553 219 518 q 139 633 157 589 q 121 733 121 676 q 142 851 121 800 q 202 936 164 901 q 291 988 240 971 q 400 1006 342 1006 q 509 991 460 1006 q 593 956 558 976 l 558 888 q 485 922 525 908 q 396 935 444 935 q 322 923 357 935 q 258 887 286 911 q 215 826 231 863 q 200 740 200 789 q 215 660 200 694 q 260 593 231 625 q 331 524 289 561 q 406 451 374 488 q 456 370 438 414 q 474 269 474 326 q 452 149 474 201 q 392 60 431 97 q 299 5 353 24 q 179 -14 244 -14 m 68 -289 q 108 -230 86 -265 q 150 -155 131 -194 q 179 -85 169 -115 l 250 -85 l 250 -99 q 216 -167 240 -128 q 163 -243 192 -206 q 108 -307 135 -281 l 68 -307 l 68 -289 z "},"ș":{"ha":465,"x_min":-10,"x_max":467,"o":"m 151 -14 q 57 -2 99 -14 q -10 24 15 10 l -10 100 q 60 67 18 82 q 147 51 101 51 q 232 69 199 51 q 282 119 265 86 q 299 196 299 151 q 288 253 299 228 q 254 302 276 278 q 197 357 232 326 q 139 415 164 386 q 99 477 114 443 q 85 554 85 511 q 111 657 85 613 q 185 726 138 701 q 296 751 232 751 q 394 738 351 751 q 467 707 436 725 l 435 646 q 374 675 408 663 q 296 688 339 688 q 198 654 235 688 q 161 563 161 621 q 170 508 161 532 q 200 460 179 483 q 253 410 221 438 q 318 346 290 375 q 360 283 346 317 q 375 201 375 250 q 349 86 375 135 q 273 12 322 38 q 151 -14 224 -14 m 21 -289 q 61 -230 39 -265 q 103 -155 83 -194 q 132 -85 122 -115 l 203 -85 l 203 -99 q 169 -167 193 -128 q 116 -243 144 -206 q 61 -307 88 -281 l 21 -307 l 21 -289 z "},"ˆ":{"ha":438,"x_min":157,"x_max":485,"o":"m 160 854 q 219 919 188 883 q 281 993 251 956 q 332 1064 311 1031 l 397 1064 q 421 995 406 1035 q 454 917 436 956 q 485 854 472 879 l 483 842 l 442 842 q 412 886 428 863 q 381 937 396 910 q 353 990 367 964 q 279 913 318 951 q 201 842 240 874 l 157 842 l 160 854 z "},"ˇ":{"ha":439,"x_min":201,"x_max":529,"o":"m 289 842 q 266 910 282 869 q 233 988 250 950 q 201 1050 215 1026 l 204 1064 l 244 1064 q 274 1022 258 1046 q 304 970 289 997 q 333 914 319 943 q 408 993 368 954 q 486 1064 447 1032 l 529 1064 l 528 1050 q 470 989 504 1026 q 405 912 436 951 q 356 842 374 872 l 289 842 z "},"ˉ":{"ha":439,"x_min":158,"x_max":497,"o":"m 158 849 l 169 910 l 497 910 l 483 849 l 158 849 z "},"˘":{"ha":425,"x_min":189,"x_max":506,"o":"m 329 843 q 250 860 281 843 q 204 906 219 876 q 189 975 189 936 q 190 993 189 985 q 192 1008 190 1001 l 242 1008 q 249 953 242 976 q 277 917 257 929 q 332 904 297 904 q 414 929 386 904 q 454 1008 442 954 l 506 1008 q 447 885 490 926 q 329 843 404 843 z "},"˙":{"ha":211,"x_min":178,"x_max":279,"o":"m 219 885 q 189 897 200 885 q 178 931 178 910 q 193 983 178 958 q 238 1008 208 1008 q 260 1003 251 1008 q 274 988 269 997 q 279 963 279 978 q 263 909 279 933 q 219 885 247 885 z "},"˚":{"ha":388,"x_min":189,"x_max":458,"o":"m 324 847 q 226 883 263 847 q 189 981 189 918 q 226 1076 189 1039 q 324 1113 264 1113 q 422 1076 386 1113 q 458 982 458 1039 q 422 885 458 922 q 324 847 385 847 m 324 896 q 385 919 363 896 q 407 981 407 943 q 385 1040 407 1017 q 324 1064 363 1064 q 263 1040 286 1064 q 240 981 240 1017 q 262 919 240 943 q 324 896 283 896 z "},"˛":{"ha":301,"x_min":-62,"x_max":139,"o":"m 40 -304 q -35 -277 -8 -304 q -62 -207 -62 -250 q -47 -133 -62 -167 q 3 -65 -31 -99 q 85 3 36 -32 l 139 0 q 67 -66 97 -35 q 22 -128 38 -97 q 6 -193 6 -158 q 19 -233 6 -219 q 60 -247 33 -247 q 87 -244 74 -247 q 113 -239 100 -242 l 106 -293 q 76 -301 92 -297 q 40 -304 60 -304 z "},"˜":{"ha":499,"x_min":158,"x_max":576,"o":"m 158 847 q 185 932 168 899 q 228 983 203 965 q 289 1000 254 1000 q 339 987 317 1000 q 380 956 361 974 q 415 926 399 939 q 451 913 432 913 q 495 932 478 913 q 524 1001 513 951 l 576 1001 q 549 915 567 949 q 506 865 531 881 q 449 849 481 849 q 399 862 421 849 q 360 892 378 875 q 324 923 342 910 q 285 936 306 936 q 238 915 256 936 q 210 847 221 893 l 158 847 z "},"˝":{"ha":518,"x_min":158,"x_max":608,"o":"m 364 854 q 428 927 396 889 q 485 1001 460 965 q 526 1064 511 1036 l 608 1064 l 608 1053 q 569 1003 593 1032 q 515 944 544 975 q 457 888 486 914 q 403 842 428 861 l 364 842 l 364 854 m 160 854 q 223 927 192 889 q 280 1001 254 965 q 322 1064 306 1036 l 403 1064 l 403 1053 q 365 1003 389 1031 q 311 945 340 975 q 252 888 282 915 q 196 842 222 861 l 158 842 l 160 854 z "},"΄":{"ha":269,"x_min":157,"x_max":364,"o":"m 157 842 l 160 857 l 274 1076 l 364 1076 l 361 1065 l 206 842 l 157 842 z "},"΅":{"ha":765,"x_min":271,"x_max":654,"o":"m 385 842 l 388 857 l 492 1076 l 582 1076 l 579 1065 l 435 842 l 385 842 m 313 872 q 281 887 292 872 q 276 928 271 901 q 297 972 281 956 q 336 988 314 988 q 365 973 356 988 q 371 932 375 958 q 349 888 365 904 q 313 872 333 872 m 589 872 q 558 888 568 872 q 553 928 549 903 q 574 972 557 956 q 613 988 590 988 q 643 973 632 988 q 649 933 654 958 q 627 889 644 906 q 589 872 610 872 z "},"Ά":{"ha":638,"x_min":-36,"x_max":551,"o":"m -36 0 l 421 994 l 511 994 l 551 0 l 475 0 l 463 351 l 206 351 l 47 0 l -36 0 m 236 421 l 460 421 l 451 781 q 449 848 450 814 q 449 910 449 882 l 446 910 q 422 849 436 882 q 392 779 408 817 l 236 421 m 88 757 l 90 772 l 204 992 l 294 992 l 292 981 l 136 757 l 88 757 z "},"·":{"ha":279,"x_min":149,"x_max":260,"o":"m 193 611 q 161 624 174 611 q 149 658 149 636 q 166 717 149 690 q 217 744 183 744 q 249 732 238 744 q 260 696 260 719 q 242 638 260 664 q 193 611 225 611 z "},"Έ":{"ha":732,"x_min":97,"x_max":786,"o":"m 190 0 l 401 992 l 786 992 l 772 922 l 463 922 l 385 554 l 674 554 l 660 486 l 369 486 l 281 69 l 590 69 l 576 0 l 190 0 m 97 757 l 100 772 l 214 992 l 304 992 l 301 981 l 146 757 l 97 757 z "},"Ή":{"ha":903,"x_min":97,"x_max":921,"o":"m 190 0 l 401 992 l 476 992 l 385 554 l 751 554 l 844 992 l 921 992 l 710 0 l 635 0 l 736 485 l 369 485 l 267 0 l 190 0 m 97 757 l 100 772 l 214 992 l 304 992 l 301 981 l 146 757 l 97 757 z "},"Ί":{"ha":531,"x_min":97,"x_max":619,"o":"m 143 0 l 153 46 l 251 60 l 436 932 l 344 946 l 353 992 l 619 992 l 610 946 l 511 932 l 326 60 l 418 46 l 410 0 l 143 0 m 97 757 l 100 772 l 214 992 l 304 992 l 301 981 l 146 757 l 97 757 z "},"Ό":{"ha":878,"x_min":97,"x_max":846,"o":"m 431 -14 q 294 22 349 -14 q 214 129 240 58 q 188 301 188 200 q 199 453 188 374 q 233 613 210 533 q 290 763 256 692 q 372 888 325 833 q 477 974 418 943 q 606 1006 536 1006 q 783 931 721 1006 q 846 703 846 857 q 835 559 846 638 q 804 400 825 481 q 751 246 783 319 q 672 114 718 172 q 565 21 625 56 q 431 -14 506 -14 m 436 56 q 540 87 493 56 q 623 171 586 118 q 687 290 660 224 q 732 430 714 357 q 758 573 750 503 q 767 703 767 643 q 725 879 767 821 q 600 938 683 938 q 494 906 542 938 q 409 822 446 875 q 345 701 372 768 q 301 563 318 635 q 274 424 283 492 q 265 301 265 357 q 285 165 265 219 q 342 83 304 111 q 436 56 381 56 m 97 757 l 100 772 l 214 992 l 304 992 l 301 981 l 146 757 l 97 757 z "},"Ύ":{"ha":751,"x_min":97,"x_max":872,"o":"m 364 0 l 444 381 l 351 992 l 428 992 l 500 478 l 789 992 l 872 992 l 521 382 l 440 0 l 364 0 m 97 757 l 100 772 l 214 992 l 304 992 l 301 981 l 146 757 l 97 757 z "},"Ώ":{"ha":924,"x_min":97,"x_max":917,"o":"m 174 0 l 189 71 l 376 71 q 299 183 328 117 q 263 339 271 250 q 269 536 256 428 q 339 792 290 688 q 465 951 388 897 q 649 1006 543 1006 q 815 951 754 1006 q 896 792 876 897 q 894 533 915 686 q 843 334 879 422 q 754 180 807 246 q 638 71 701 114 l 824 71 l 808 0 l 536 0 l 550 61 q 677 179 624 113 q 765 333 731 246 q 815 529 800 419 q 822 751 833 660 q 765 890 810 842 q 638 938 719 938 q 499 890 557 938 q 403 751 440 842 q 349 532 365 661 q 340 331 333 421 q 375 175 346 242 q 457 61 404 108 l 443 0 l 174 0 m 97 757 l 100 772 l 214 992 l 304 992 l 301 981 l 146 757 l 97 757 z "},"ΐ":{"ha":351,"x_min":39,"x_max":489,"o":"m 150 -14 q 90 -1 114 -14 q 52 37 65 11 q 39 103 39 63 q 41 138 39 119 q 47 178 43 156 l 167 738 l 243 738 l 124 182 q 118 148 119 164 q 117 119 117 132 q 131 70 117 86 q 172 54 144 54 q 203 58 188 54 q 233 67 218 61 l 218 -1 q 188 -10 206 -7 q 150 -14 171 -14 m 219 840 l 222 856 l 326 1075 l 417 1075 l 414 1064 l 269 840 l 219 840 m 147 871 q 116 885 126 871 q 111 926 106 900 q 132 970 115 954 q 171 986 149 986 q 200 972 190 986 q 206 931 210 957 q 184 887 200 903 q 147 871 168 871 m 424 871 q 393 886 403 871 q 388 926 383 901 q 408 970 392 954 q 447 986 425 986 q 478 972 467 986 q 483 932 489 957 q 462 888 479 904 q 424 871 444 871 z "},"Α":{"ha":586,"x_min":-87,"x_max":500,"o":"m -87 0 l 369 994 l 460 994 l 500 0 l 424 0 l 411 351 l 154 351 l -4 0 l -87 0 m 185 421 l 408 421 l 400 781 q 398 848 399 814 q 397 910 397 882 l 394 910 q 371 849 385 882 q 340 779 357 817 l 185 421 z "},"Β":{"ha":640,"x_min":21,"x_max":640,"o":"m 21 0 l 231 992 l 415 992 q 538 969 488 992 q 614 903 588 946 q 640 797 640 860 q 617 674 640 732 q 549 576 594 617 q 436 519 504 535 l 436 517 q 530 452 496 501 q 564 328 564 403 q 525 158 564 232 q 413 42 486 83 q 236 0 340 0 l 21 0 m 239 68 q 376 103 322 68 q 458 196 431 138 q 485 326 485 254 q 440 449 485 410 q 317 488 396 488 l 200 488 l 111 68 l 239 68 m 332 553 q 458 585 407 553 q 534 670 508 617 q 560 788 560 724 q 522 890 560 856 q 401 924 483 924 l 292 924 l 214 553 l 332 553 z "},"Γ":{"ha":497,"x_min":19,"x_max":593,"o":"m 19 0 l 231 992 l 593 992 l 579 922 l 292 922 l 96 0 l 19 0 z "},"Ε":{"ha":561,"x_min":19,"x_max":615,"o":"m 19 0 l 231 992 l 615 992 l 601 922 l 292 922 l 214 554 l 503 554 l 489 486 l 199 486 l 110 69 l 419 69 l 406 0 l 19 0 z "},"Ζ":{"ha":533,"x_min":-44,"x_max":608,"o":"m -44 0 l -32 60 l 506 922 l 165 922 l 181 992 l 608 992 l 596 931 l 58 69 l 424 69 l 410 0 l -44 0 z "},"Η":{"ha":732,"x_min":19,"x_max":750,"o":"m 19 0 l 231 992 l 306 992 l 214 554 l 581 554 l 674 992 l 750 992 l 539 0 l 464 0 l 565 485 l 199 485 l 96 0 l 19 0 z "},"Θ":{"ha":757,"x_min":67,"x_max":725,"o":"m 240 468 l 256 538 l 551 538 l 536 468 l 240 468 m 310 -14 q 174 22 228 -14 q 93 129 119 58 q 67 301 67 200 q 78 453 67 374 q 112 613 89 533 q 169 763 135 692 q 251 888 204 833 q 356 974 297 943 q 485 1006 415 1006 q 663 931 600 1006 q 725 703 725 857 q 715 559 725 638 q 683 400 704 481 q 630 246 663 319 q 551 114 597 172 q 444 21 504 56 q 310 -14 385 -14 m 315 56 q 419 87 372 56 q 502 171 465 118 q 566 290 539 224 q 611 430 593 357 q 638 573 629 503 q 646 703 646 643 q 604 879 646 821 q 479 938 563 938 q 373 906 421 938 q 288 822 325 875 q 224 701 251 768 q 180 563 197 635 q 153 424 163 492 q 144 301 144 357 q 164 165 144 219 q 222 83 183 111 q 315 56 260 56 z "},"Ι":{"ha":332,"x_min":-56,"x_max":421,"o":"m -56 0 l -46 46 l 53 60 l 238 932 l 146 946 l 154 992 l 421 992 l 411 946 l 313 932 l 128 60 l 219 46 l 211 0 l -56 0 z "},"Κ":{"ha":596,"x_min":19,"x_max":706,"o":"m 19 0 l 231 992 l 306 992 l 196 474 l 281 586 l 618 992 l 706 992 l 347 553 l 508 0 l 426 0 l 285 496 l 178 389 l 96 0 l 19 0 z "},"Λ":{"ha":589,"x_min":-87,"x_max":503,"o":"m -87 0 l 375 993 l 463 993 l 503 0 l 426 0 l 401 736 q 400 817 400 775 q 400 899 400 860 l 397 899 q 363 812 382 857 q 321 711 344 767 l -6 0 l -87 0 z "},"Μ":{"ha":943,"x_min":19,"x_max":960,"o":"m 19 0 l 231 992 l 338 992 l 404 115 l 408 115 l 844 992 l 960 992 l 750 0 l 675 0 l 829 728 q 840 777 835 753 q 852 826 846 801 q 864 875 858 851 l 861 875 l 422 0 l 344 0 l 276 875 l 274 875 q 265 823 269 849 q 256 772 260 797 q 246 721 251 747 l 93 0 l 19 0 z "},"Ν":{"ha":761,"x_min":19,"x_max":779,"o":"m 19 0 l 231 992 l 315 992 l 525 136 l 528 136 q 542 216 535 175 q 558 294 550 257 q 571 360 565 332 l 706 992 l 779 992 l 568 0 l 485 0 l 275 864 l 271 864 q 262 808 267 838 q 251 747 257 778 q 238 686 244 717 q 226 629 232 656 l 93 0 l 19 0 z "},"Ξ":{"ha":596,"x_min":-1,"x_max":639,"o":"m -1 0 l 14 69 l 456 69 l 440 0 l -1 0 m 146 486 l 161 554 l 514 554 l 499 486 l 146 486 m 208 922 l 222 992 l 639 992 l 625 922 l 208 922 z "},"Ο":{"ha":757,"x_min":67,"x_max":725,"o":"m 310 -14 q 174 22 228 -14 q 93 129 119 58 q 67 301 67 200 q 78 453 67 374 q 112 613 89 533 q 169 763 135 692 q 251 888 204 833 q 356 974 297 943 q 485 1006 415 1006 q 663 931 600 1006 q 725 703 725 857 q 715 559 725 638 q 683 400 704 481 q 630 246 663 319 q 551 114 597 172 q 444 21 504 56 q 310 -14 385 -14 m 315 56 q 419 87 372 56 q 502 171 465 118 q 566 290 539 224 q 611 430 593 357 q 638 573 629 503 q 646 703 646 643 q 604 879 646 821 q 479 938 563 938 q 373 906 421 938 q 288 822 325 875 q 224 701 251 768 q 180 563 197 635 q 153 424 163 492 q 144 301 144 357 q 164 165 144 219 q 222 83 183 111 q 315 56 260 56 z "},"Π":{"ha":729,"x_min":19,"x_max":746,"o":"m 19 0 l 231 992 l 746 992 l 535 0 l 460 0 l 656 922 l 292 922 l 96 0 l 19 0 z "},"Ρ":{"ha":601,"x_min":21,"x_max":618,"o":"m 21 0 l 231 992 l 381 992 q 513 965 460 992 q 592 889 565 939 q 618 769 618 839 q 595 623 618 689 q 528 508 572 557 q 419 433 483 460 q 269 406 354 406 l 182 406 l 96 0 l 21 0 m 272 474 q 422 510 363 474 q 510 613 481 547 q 539 764 539 679 q 497 883 539 842 q 368 924 456 924 l 292 924 l 196 474 l 272 474 z "},"Σ":{"ha":532,"x_min":-44,"x_max":603,"o":"m -44 0 l -31 63 l 274 518 l 178 932 l 190 992 l 603 992 l 589 922 l 361 922 q 326 923 343 922 q 292 924 308 924 q 258 925 275 924 l 347 521 l 344 504 l 50 67 q 110 68 78 67 q 181 69 142 69 l 421 69 l 407 0 l -44 0 z "},"Τ":{"ha":515,"x_min":118,"x_max":628,"o":"m 131 0 l 326 922 l 118 922 l 132 992 l 628 992 l 613 922 l 403 922 l 207 0 l 131 0 z "},"Υ":{"ha":521,"x_min":121,"x_max":642,"o":"m 133 0 l 214 381 l 121 992 l 197 992 l 269 478 l 558 992 l 642 992 l 290 382 l 210 0 l 133 0 z "},"Φ":{"ha":931,"x_min":64,"x_max":906,"o":"m 338 0 l 365 131 q 217 167 278 136 q 121 251 156 199 q 75 373 86 303 q 76 526 64 443 q 122 679 89 611 q 211 795 156 747 q 345 868 267 843 q 526 893 424 893 l 547 992 l 624 992 l 601 892 q 751 855 690 886 q 848 772 813 824 q 894 649 883 719 q 893 496 906 579 q 846 343 879 411 q 758 227 813 275 q 624 153 703 179 q 440 129 544 128 l 414 0 l 338 0 m 379 197 l 513 826 q 331 792 406 826 q 213 690 256 757 q 156 525 169 622 q 152 394 144 453 q 186 292 160 335 q 260 226 213 250 q 379 197 308 201 m 454 197 q 638 231 563 196 q 756 333 713 265 q 814 497 800 401 q 817 629 825 569 q 783 731 810 689 q 708 798 756 774 q 588 825 660 822 l 454 197 z "},"Χ":{"ha":539,"x_min":-81,"x_max":642,"o":"m -81 0 l 254 524 l 157 992 l 235 992 l 311 589 l 560 992 l 642 992 l 340 513 l 440 0 l 361 0 l 282 444 l 1 0 l -81 0 z "},"Ψ":{"ha":858,"x_min":121,"x_max":883,"o":"m 304 0 l 360 263 q 242 288 292 268 q 163 347 192 307 q 127 451 133 388 q 140 608 121 515 l 222 992 l 299 992 l 218 614 q 206 458 199 521 q 253 365 213 396 q 375 331 293 333 l 514 992 l 590 992 l 450 331 q 574 359 521 332 q 665 448 628 386 q 725 613 703 510 l 807 992 l 883 992 l 800 607 q 749 453 781 518 q 673 347 718 389 q 569 285 628 306 q 435 263 510 264 l 379 0 l 304 0 z "},"Ϊ":{"ha":332,"x_min":-56,"x_max":474,"o":"m -56 0 l -46 46 l 53 60 l 238 932 l 146 946 l 154 992 l 421 992 l 411 946 l 313 932 l 128 60 l 219 46 l 211 0 l -56 0 m 421 1146 q 392 1157 403 1146 q 382 1188 382 1168 q 396 1238 382 1215 q 438 1261 410 1261 q 465 1250 456 1261 q 475 1219 475 1239 q 460 1169 475 1192 q 421 1146 444 1146 m 213 1146 q 184 1157 194 1146 q 174 1188 174 1168 q 188 1238 174 1215 q 229 1261 203 1261 q 250 1256 242 1261 q 263 1242 258 1251 q 267 1219 267 1233 q 252 1169 267 1192 q 213 1146 238 1146 z "},"Ϋ":{"ha":521,"x_min":121,"x_max":642,"o":"m 133 0 l 214 381 l 121 992 l 197 992 l 269 478 l 558 992 l 642 992 l 290 382 l 210 0 l 133 0 m 497 1124 q 469 1135 479 1124 q 458 1165 458 1146 q 472 1216 458 1193 q 514 1239 486 1239 q 542 1228 532 1239 q 551 1197 551 1217 q 536 1147 551 1169 q 497 1124 521 1124 m 289 1124 q 260 1135 271 1124 q 250 1165 250 1146 q 265 1216 250 1193 q 306 1239 279 1239 q 326 1234 318 1239 q 339 1220 335 1229 q 343 1197 343 1211 q 328 1147 343 1169 q 289 1124 314 1124 z "},"ά":{"ha":649,"x_min":44,"x_max":606,"o":"m 201 -14 q 86 43 128 -14 q 44 208 44 100 q 57 350 44 275 q 96 497 69 425 q 160 626 122 568 q 247 717 197 683 q 360 751 297 751 q 433 735 403 751 q 483 690 464 719 q 510 621 501 661 l 514 621 l 551 738 l 606 738 l 493 203 q 481 148 486 174 q 476 103 476 122 q 486 65 476 79 q 518 51 496 51 q 538 53 526 51 q 565 60 550 56 l 553 -1 q 532 -8 543 -6 q 510 -12 521 -11 q 490 -14 500 -14 q 432 4 451 -14 q 408 55 413 22 q 408 129 404 88 l 406 129 q 349 54 379 86 q 282 4 318 22 q 201 -14 246 -14 m 222 51 q 320 92 276 51 q 396 197 364 133 q 447 331 428 261 q 472 446 464 393 q 479 536 479 499 q 449 648 479 610 q 365 686 419 686 q 277 653 317 686 q 208 568 238 621 q 159 452 178 515 q 131 326 140 389 q 121 213 121 264 q 147 91 121 131 q 222 51 172 51 m 364 840 l 367 856 l 481 1075 l 571 1075 l 568 1064 l 413 840 l 364 840 z "},"έ":{"ha":443,"x_min":26,"x_max":529,"o":"m 213 -14 q 101 15 143 -14 q 42 92 58 43 q 33 201 26 142 q 84 331 42 285 q 188 389 126 378 l 189 393 q 125 454 146 413 q 110 564 104 496 q 146 669 115 628 q 224 732 176 711 q 324 753 271 753 q 406 742 369 753 q 471 708 442 731 l 442 646 q 390 674 421 663 q 326 685 360 685 q 252 670 283 685 q 203 627 221 656 q 182 557 186 599 q 201 460 176 497 q 290 422 225 422 l 351 422 l 338 358 l 281 358 q 192 342 229 358 q 135 292 156 325 q 108 208 114 260 q 128 94 100 136 q 226 51 156 51 q 299 60 267 51 q 364 86 332 68 l 364 19 q 299 -6 339 3 q 213 -14 260 -14 m 322 840 l 325 856 l 439 1075 l 529 1075 l 526 1064 l 371 840 l 322 840 z "},"ή":{"ha":610,"x_min":14,"x_max":557,"o":"m 461 468 q 475 536 469 503 q 481 597 481 569 q 458 662 481 640 q 394 683 435 683 q 320 664 354 683 q 258 606 286 644 q 209 513 231 568 q 171 385 188 457 l 90 0 l 14 0 l 171 739 l 232 739 l 213 617 l 215 617 q 251 669 231 644 q 297 712 271 693 q 351 742 322 731 q 414 753 381 753 q 490 737 458 753 q 540 689 522 721 q 557 608 557 657 q 551 540 557 579 q 538 467 544 501 l 367 -333 l 292 -333 l 461 468 m 317 840 l 319 856 l 433 1075 l 524 1075 l 521 1064 l 365 840 l 317 840 z "},"ί":{"ha":300,"x_min":39,"x_max":413,"o":"m 150 -14 q 90 -1 114 -14 q 52 37 65 11 q 39 103 39 63 q 41 138 39 119 q 47 178 43 156 l 167 738 l 243 738 l 124 182 q 118 148 119 164 q 117 119 117 132 q 131 70 117 86 q 172 54 144 54 q 203 58 188 54 q 233 67 218 61 l 218 -1 q 188 -10 206 -7 q 150 -14 171 -14 m 206 840 l 208 856 l 322 1075 l 413 1075 l 410 1064 l 254 840 l 206 840 z "},"ΰ":{"ha":594,"x_min":40,"x_max":624,"o":"m 207 -14 q 103 13 143 -12 q 52 92 64 39 q 58 231 40 146 l 167 738 l 242 738 l 132 228 q 131 96 113 138 q 215 54 150 54 q 367 133 306 54 q 457 357 429 213 q 474 463 468 411 q 483 564 481 515 q 485 657 486 613 q 481 738 483 701 l 554 738 q 560 628 560 690 q 553 495 560 565 q 532 351 547 425 q 464 152 510 233 q 353 28 418 71 q 207 -14 289 -14 m 354 840 l 357 856 l 461 1075 l 551 1075 l 549 1064 l 404 840 l 354 840 m 282 871 q 251 885 261 871 q 246 926 240 900 q 267 970 250 954 q 306 986 283 986 q 335 972 325 986 q 340 931 344 957 q 319 887 335 903 q 282 871 303 871 m 558 871 q 528 886 538 871 q 522 926 518 901 q 543 970 526 954 q 582 986 560 986 q 613 972 601 986 q 618 932 624 957 q 597 888 614 904 q 558 871 579 871 z "},"α":{"ha":649,"x_min":44,"x_max":606,"o":"m 201 -14 q 86 43 128 -14 q 44 208 44 100 q 57 350 44 275 q 96 497 69 425 q 160 626 122 568 q 247 717 197 683 q 360 751 297 751 q 433 735 403 751 q 483 690 464 719 q 510 621 501 661 l 514 621 l 551 738 l 606 738 l 493 203 q 481 148 486 174 q 476 103 476 122 q 486 65 476 79 q 518 51 496 51 q 538 53 526 51 q 565 60 550 56 l 553 -1 q 532 -8 543 -6 q 510 -12 521 -11 q 490 -14 500 -14 q 432 4 451 -14 q 408 55 413 22 q 408 129 404 88 l 406 129 q 349 54 379 86 q 282 4 318 22 q 201 -14 246 -14 m 222 51 q 320 92 276 51 q 396 197 364 133 q 447 331 428 261 q 472 446 464 393 q 479 536 479 499 q 449 648 479 610 q 365 686 419 686 q 277 653 317 686 q 208 568 238 621 q 159 452 178 515 q 131 326 140 389 q 121 213 121 264 q 147 91 121 131 q 222 51 172 51 z "},"β":{"ha":629,"x_min":-51,"x_max":639,"o":"m -51 -322 l 183 788 q 234 935 203 874 q 317 1029 265 996 q 447 1063 368 1063 q 551 1040 507 1063 q 617 972 594 1017 q 636 861 639 926 q 609 723 635 788 q 535 614 583 658 q 417 556 488 569 q 528 487 486 542 q 568 336 571 432 q 545 208 565 271 q 488 96 525 146 q 394 16 450 46 q 265 -14 339 -14 q 172 4 215 -14 q 100 46 129 22 l 21 -322 l -51 -322 m 264 53 q 365 78 322 53 q 435 144 407 103 q 476 235 463 185 q 492 333 490 285 q 478 437 494 394 q 426 501 463 479 q 332 524 390 524 l 290 524 l 303 588 l 344 588 q 440 610 400 588 q 506 672 479 633 q 545 757 532 710 q 560 851 558 804 q 532 960 564 924 q 442 997 500 997 q 353 973 389 997 q 294 902 318 949 q 257 788 271 856 l 115 113 q 182 69 142 86 q 264 53 222 53 z "},"γ":{"ha":511,"x_min":43,"x_max":524,"o":"m 43 -286 l 107 19 l 76 738 l 150 738 l 165 242 q 167 190 167 218 q 167 135 167 163 q 167 85 168 107 l 171 85 q 303 271 246 171 q 397 487 360 371 q 449 738 435 603 l 524 738 q 464 463 508 590 q 349 224 419 336 q 178 7 278 111 l 115 -286 l 43 -286 z "},"δ":{"ha":606,"x_min":40,"x_max":647,"o":"m 253 -14 q 137 17 185 -14 q 65 105 89 49 q 43 238 40 161 q 79 416 44 332 q 178 562 114 500 q 338 653 243 624 q 271 749 294 703 q 250 860 247 794 q 278 964 250 919 q 355 1033 306 1008 q 469 1057 404 1057 q 577 1039 532 1057 q 647 1000 622 1021 l 610 942 q 547 977 583 963 q 465 992 511 992 q 363 957 400 992 q 324 863 325 922 q 334 792 322 824 q 369 729 346 760 q 419 664 392 699 q 493 567 465 617 q 533 464 521 518 q 544 343 546 410 q 524 213 543 276 q 470 98 506 149 q 381 17 435 47 q 253 -14 326 -14 m 258 51 q 353 78 314 51 q 417 149 392 106 q 454 244 442 193 q 468 342 467 294 q 460 448 471 400 q 428 536 450 496 q 375 610 406 576 q 238 531 294 586 q 151 400 182 475 q 119 243 121 325 q 133 142 117 185 q 181 75 149 99 q 258 51 213 51 z "},"ε":{"ha":443,"x_min":26,"x_max":471,"o":"m 213 -14 q 101 15 143 -14 q 42 92 58 43 q 33 201 26 142 q 84 331 42 285 q 188 389 126 378 l 189 393 q 125 454 146 413 q 110 564 104 496 q 146 669 115 628 q 224 732 176 711 q 324 753 271 753 q 406 742 369 753 q 471 708 442 731 l 442 646 q 390 674 421 663 q 326 685 360 685 q 252 670 283 685 q 203 627 221 656 q 182 557 186 599 q 201 460 176 497 q 290 422 225 422 l 351 422 l 338 358 l 281 358 q 192 342 229 358 q 135 292 156 325 q 108 208 114 260 q 128 94 100 136 q 226 51 156 51 q 299 60 267 51 q 364 86 332 68 l 364 19 q 299 -6 339 3 q 213 -14 260 -14 z "},"ζ":{"ha":436,"x_min":24,"x_max":561,"o":"m 231 -281 q 283 -200 264 -235 q 307 -124 303 -165 q 304 -74 310 -96 q 277 -34 299 -51 q 213 -3 256 -17 q 102 60 146 21 q 41 155 58 99 q 32 285 24 211 q 57 388 39 339 q 105 491 75 438 q 179 609 135 544 q 285 756 224 674 l 471 997 q 435 994 456 996 q 390 992 414 993 q 343 992 367 992 l 168 992 l 181 1056 l 561 1056 l 551 1006 l 336 725 q 211 540 258 618 q 141 402 164 463 q 111 286 118 342 q 114 197 106 240 q 156 118 122 153 q 257 60 189 83 q 337 18 307 42 q 377 -38 367 -6 q 383 -117 388 -71 q 369 -175 379 -147 q 342 -228 358 -203 q 306 -281 326 -254 l 231 -281 z "},"η":{"ha":610,"x_min":14,"x_max":557,"o":"m 461 468 q 475 536 469 503 q 481 597 481 569 q 458 662 481 640 q 394 683 435 683 q 320 664 354 683 q 258 606 286 644 q 209 513 231 568 q 171 385 188 457 l 90 0 l 14 0 l 171 739 l 232 739 l 213 617 l 215 617 q 251 669 231 644 q 297 712 271 693 q 351 742 322 731 q 414 753 381 753 q 490 737 458 753 q 540 689 522 721 q 557 608 557 657 q 551 540 557 579 q 538 467 544 501 l 367 -333 l 292 -333 l 461 468 z "},"θ":{"ha":603,"x_min":50,"x_max":607,"o":"m 50 251 q 54 344 50 293 q 67 451 58 394 q 89 567 76 507 q 142 759 111 668 q 215 919 174 850 q 312 1028 257 989 q 433 1068 367 1068 q 529 1042 490 1068 q 588 958 568 1015 q 607 811 607 901 q 601 697 607 761 q 582 566 594 633 q 551 435 569 499 q 496 255 528 338 q 424 112 464 172 q 335 18 385 51 q 226 -15 286 -15 q 130 13 169 -15 q 70 99 90 40 q 50 251 50 158 m 124 251 q 151 96 124 142 q 232 50 179 50 q 318 85 279 50 q 390 182 357 119 q 450 328 424 244 q 496 511 476 413 l 153 511 q 131 367 139 433 q 124 251 124 300 m 167 576 l 508 576 q 527 708 521 646 q 533 817 533 771 q 508 960 533 917 q 426 1003 482 1003 q 343 972 382 1003 q 272 883 304 940 q 214 747 240 825 q 167 576 188 669 z "},"ι":{"ha":300,"x_min":39,"x_max":243,"o":"m 150 -14 q 90 -1 114 -14 q 52 37 65 11 q 39 103 39 63 q 41 138 39 119 q 47 178 43 156 l 167 738 l 243 738 l 124 182 q 118 148 119 164 q 117 119 117 132 q 131 70 117 86 q 172 54 144 54 q 203 58 188 54 q 233 67 218 61 l 218 -1 q 188 -10 206 -7 q 150 -14 171 -14 z "},"κ":{"ha":514,"x_min":15,"x_max":567,"o":"m 15 0 l 174 738 l 247 738 l 201 529 q 181 440 192 486 q 158 353 169 394 l 161 353 l 483 739 l 567 739 l 315 438 l 429 0 l 351 0 l 254 379 l 143 260 l 89 0 l 15 0 z "},"λ":{"ha":571,"x_min":-62,"x_max":496,"o":"m 431 -14 q 375 1 396 -14 q 344 46 354 15 q 333 126 335 76 l 319 474 q 319 521 319 500 q 317 559 318 542 q 315 591 315 576 q 315 621 315 606 l 310 621 q 287 569 300 596 q 261 515 274 542 l 17 0 l -62 0 l 301 739 l 297 888 q 272 972 296 950 q 210 994 249 994 q 176 991 193 994 q 147 982 160 988 l 163 1051 q 181 1057 171 1054 q 205 1061 192 1060 q 232 1063 218 1063 q 303 1047 274 1063 q 351 996 333 1032 q 371 897 368 960 l 406 144 q 413 91 407 111 q 430 63 418 71 q 458 54 442 54 q 479 56 469 54 q 496 61 489 58 l 482 -4 q 467 -9 475 -7 q 450 -12 458 -11 q 431 -14 442 -14 z "},"ν":{"ha":511,"x_min":76,"x_max":524,"o":"m 108 0 l 76 738 l 150 738 l 165 242 q 167 190 167 218 q 167 133 167 161 q 167 83 168 106 l 172 83 q 303 269 246 169 q 397 486 360 369 q 449 738 435 603 l 524 738 q 464 463 508 590 q 347 222 419 336 q 175 0 275 108 l 108 0 z "}}}
